<?xml version="1.0" encoding="UTF-8"?>
<svg version="1.1" viewBox="0 0 610.23 271.49" xml:space="preserve" xmlns="http://www.w3.org/2000/svg"
>

  <path d="m61 259.93h13.56v3.55h-17.67v-29.35h4.11v25.8zm24.66 0.72q1.4 0 2.48-0.07 1.08-0.06 1.8-0.23v-6.57q-0.43-0.21-1.38-0.36t-2.31-0.15q-0.89 0-1.88 0.13-1 0.13-1.82 0.53-0.83 0.4-1.38 1.1t-0.55 1.85q0 2.11 1.35 2.94 1.36 0.83 3.69 0.83zm-0.34-19.75q2.37 0 4 0.62 1.64 0.61 2.63 1.74 1 1.12 1.42 2.66 0.42 1.55 0.42 3.41v13.77q-0.5 0.09-1.42 0.24-0.91 0.14-2.05 0.27t-2.48 0.23q-1.33 0.11-2.65 0.11-1.86 0-3.43-0.38t-2.71-1.21q-1.14-0.82-1.78-2.18-0.63-1.36-0.63-3.26 0-1.82 0.74-3.14 0.74-1.31 2.01-2.12 1.27-0.8 2.97-1.18 1.69-0.38 3.55-0.38 0.6 0 1.23 0.06 0.64 0.06 1.21 0.17t1 0.19q0.42 0.09 0.59 0.13v-1.1q0-0.98-0.21-1.93-0.22-0.95-0.77-1.7-0.55-0.74-1.5-1.18-0.95-0.45-2.48-0.45-1.95 0-3.41 0.28-1.46 0.27-2.18 0.57l-0.47-3.26q0.77-0.34 2.55-0.66 1.77-0.32 3.85-0.32zm14.57 22.58v-21.39q1.36-0.34 3.61-0.72 2.24-0.38 5.16-0.38 2.63 0 4.37 0.74 1.73 0.74 2.77 2.08 1.04 1.33 1.46 3.19 0.43 1.87 0.43 4.11v12.37h-3.94v-11.52q0-2.03-0.28-3.47-0.27-1.44-0.91-2.33-0.63-0.89-1.69-1.29-1.06-0.41-2.63-0.41-0.64 0-1.31 0.04-0.68 0.05-1.3 0.11-0.61 0.06-1.1 0.15-0.48 0.08-0.7 0.13v18.59h-3.94zm38.13-3.43v-13.94q-0.72-0.59-2.07-1.14-1.36-0.55-2.97-0.55-1.69 0-2.9 0.61-1.21 0.62-1.97 1.7t-1.1 2.56q-0.34 1.49-0.34 3.18 0 3.85 1.91 5.95 1.9 2.1 5.08 2.1 1.61 0 2.69-0.15t1.67-0.32zm0-17.62v-11.14l3.94-0.68v32.24q-1.35 0.38-3.47 0.76t-4.87 0.38q-2.54 0-4.58-0.8-2.03-0.81-3.47-2.29t-2.23-3.62q-0.78-2.14-0.78-4.81 0-2.54 0.66-4.66 0.65-2.12 1.92-3.64 1.28-1.53 3.12-2.38 1.84-0.84 4.21-0.84 1.91 0 3.37 0.5 1.46 0.51 2.18 0.98zm9.07 10.08q0-2.92 0.85-5.1 0.84-2.18 2.24-3.63 1.4-1.44 3.22-2.16t3.73-0.72q4.45 0 6.82 2.78 2.37 2.77 2.37 8.45 0 0.25 0 0.66 0 0.4-0.04 0.74h-15.08q0.25 3.43 1.99 5.21t5.42 1.78q2.08 0 3.5-0.36t2.14-0.7l0.55 3.3q-0.72 0.39-2.52 0.81t-4.09 0.42q-2.88 0-4.98-0.87-2.1-0.86-3.45-2.39-1.36-1.52-2.01-3.62-0.66-2.1-0.66-4.6zm4.19-2.16h10.93q0.05-2.67-1.33-4.38-1.38-1.72-3.79-1.72-1.36 0-2.4 0.53-1.03 0.53-1.75 1.38-0.72 0.84-1.13 1.95-0.4 1.1-0.53 2.24zm25.42 10.3q2.42 0 3.58-0.64 1.17-0.63 1.17-2.03 0-1.44-1.15-2.29-1.14-0.85-3.77-1.91-1.27-0.51-2.43-1.03-1.17-0.53-2.01-1.25-0.85-0.72-1.36-1.74t-0.51-2.5q0-2.92 2.16-4.64t5.89-1.72q0.93 0 1.86 0.11 0.94 0.11 1.74 0.25 0.81 0.15 1.42 0.32 0.62 0.17 0.95 0.3l-0.72 3.39q-0.63-0.34-1.99-0.7-1.35-0.36-3.26-0.36-1.65 0-2.88 0.66-1.23 0.65-1.23 2.05 0 0.72 0.28 1.27 0.27 0.55 0.84 1 0.58 0.44 1.42 0.82 0.85 0.38 2.04 0.81 1.56 0.59 2.79 1.16t2.1 1.34q0.87 0.76 1.33 1.84 0.47 1.08 0.47 2.65 0 3.05-2.27 4.62-2.26 1.56-6.46 1.56-2.92 0-4.57-0.48-1.65-0.49-2.25-0.75l0.72-3.38q0.68 0.25 2.16 0.76 1.49 0.51 3.94 0.51zm26.48-19.2h4.07q-1.65 6.19-3.88 11.87-2.22 5.67-4.3 10.16h-3.56q-2.07-4.49-4.3-10.16-2.22-5.68-3.87-11.87h4.23q0.51 2.08 1.21 4.43t1.48 4.66q0.79 2.31 1.59 4.47 0.81 2.16 1.53 3.86 0.72-1.7 1.52-3.86 0.81-2.16 1.59-4.47 0.79-2.31 1.48-4.66 0.7-2.35 1.21-4.43zm6.48 11.06q0-2.92 0.85-5.1t2.25-3.63q1.39-1.44 3.22-2.16 1.82-0.72 3.72-0.72 4.45 0 6.82 2.78 2.38 2.77 2.38 8.45 0 0.25 0 0.66 0 0.4-0.04 0.74h-15.09q0.26 3.43 1.99 5.21 1.74 1.78 5.43 1.78 2.07 0 3.49-0.36t2.14-0.7l0.55 3.3q-0.72 0.39-2.52 0.81t-4.09 0.42q-2.88 0-4.97-0.87-2.1-0.86-3.46-2.39-1.35-1.52-2.01-3.62t-0.66-4.6zm4.2-2.16h10.93q0.04-2.67-1.34-4.38-1.37-1.72-3.79-1.72-1.35 0-2.39 0.53t-1.76 1.38q-0.72 0.84-1.12 1.95-0.41 1.1-0.53 2.24zm28.42-9.36q0.51 0 1.17 0.06 0.66 0.07 1.29 0.17 0.64 0.11 1.17 0.21 0.53 0.11 0.78 0.19l-0.68 3.44q-0.46-0.17-1.54-0.41-1.08-0.23-2.78-0.23-1.1 0-2.18 0.23-1.08 0.24-1.42 0.32v18.51h-3.94v-21.09q1.4-0.51 3.47-0.96 2.08-0.44 4.66-0.44zm11.74-10.38v11.82q0.72-0.47 2.18-0.98 1.46-0.5 3.37-0.5 2.37 0 4.22 0.84 1.84 0.85 3.11 2.38 1.27 1.52 1.93 3.64 0.65 2.12 0.65 4.66 0 2.67-0.78 4.81t-2.22 3.62-3.48 2.29q-2.03 0.8-4.57 0.8-2.76 0-4.88-0.38-2.11-0.38-3.47-0.76v-31.56l3.94-0.68zm0 15.5v13.94q0.59 0.17 1.67 0.32t2.69 0.15q3.18 0 5.09-2.1 1.9-2.1 1.9-5.95 0-1.69-0.33-3.18-0.34-1.48-1.11-2.56-0.76-1.08-1.97-1.7-1.2-0.61-2.9-0.61-1.61 0-2.96 0.55-1.36 0.55-2.08 1.14zm28.05 14.54q1.39 0 2.47-0.07 1.08-0.06 1.81-0.23v-6.57q-0.43-0.21-1.38-0.36t-2.31-0.15q-0.89 0-1.89 0.13-0.99 0.13-1.82 0.53-0.82 0.4-1.37 1.1-0.56 0.7-0.56 1.85 0 2.11 1.36 2.94t3.69 0.83zm-0.34-19.75q2.37 0 4 0.62 1.63 0.61 2.63 1.74 0.99 1.12 1.42 2.66 0.42 1.55 0.42 3.41v13.77q-0.51 0.09-1.42 0.24-0.91 0.14-2.05 0.27-1.15 0.13-2.48 0.23-1.34 0.11-2.65 0.11-1.86 0-3.43-0.38t-2.71-1.21q-1.15-0.82-1.78-2.18-0.64-1.36-0.64-3.26 0-1.82 0.74-3.14 0.75-1.31 2.02-2.12 1.27-0.8 2.96-1.18 1.7-0.38 3.56-0.38 0.59 0 1.23 0.06 0.63 0.06 1.21 0.17 0.57 0.11 0.99 0.19 0.43 0.09 0.6 0.13v-1.1q0-0.98-0.22-1.93-0.21-0.95-0.76-1.7-0.55-0.74-1.5-1.18-0.96-0.45-2.48-0.45-1.95 0-3.41 0.28-1.46 0.27-2.18 0.57l-0.47-3.26q0.76-0.34 2.54-0.66t3.86-0.32zm14.57 22.58v-21.39q1.36-0.34 3.6-0.72 2.25-0.38 5.17-0.38 2.63 0 4.36 0.74 1.74 0.74 2.78 2.08 1.04 1.33 1.46 3.19 0.42 1.87 0.42 4.11v12.37h-3.94v-11.52q0-2.03-0.27-3.47-0.28-1.44-0.91-2.33-0.64-0.89-1.7-1.29-1.06-0.41-2.62-0.41-0.64 0-1.32 0.04-0.67 0.05-1.29 0.11-0.61 0.06-1.1 0.15-0.49 0.08-0.7 0.13v18.59h-3.94zm38.13-3.43v-13.94q-0.72-0.59-2.08-1.14-1.35-0.55-2.96-0.55-1.7 0-2.9 0.61-1.21 0.62-1.97 1.7-0.77 1.08-1.11 2.56-0.33 1.49-0.33 3.18 0 3.85 1.9 5.95 1.91 2.1 5.09 2.1 1.61 0 2.69-0.15t1.67-0.32zm0-17.62v-11.14l3.94-0.68v32.24q-1.36 0.38-3.47 0.76-2.12 0.38-4.88 0.38-2.54 0-4.57-0.8-2.04-0.81-3.48-2.29t-2.22-3.62-0.78-4.81q0-2.54 0.65-4.66 0.66-2.12 1.93-3.64 1.27-1.53 3.11-2.38 1.85-0.84 4.22-0.84 1.91 0 3.37 0.5 1.46 0.51 2.18 0.98zm27.83 21.31q-0.89 0-1.92-0.04-1.04-0.05-2.08-0.13-1.04-0.09-2.05-0.21-1.02-0.13-1.87-0.34v-28.47q0.85-0.21 1.87-0.34 1.01-0.13 2.05-0.21 1.04-0.09 2.06-0.13 1.01-0.04 1.9-0.04 2.54 0 4.77 0.38 2.22 0.38 3.85 1.29t2.57 2.4q0.93 1.48 0.93 3.64 0 2.41-1.15 3.96-1.14 1.55-3.05 2.31 2.59 0.76 4.11 2.41 1.53 1.66 1.53 4.66 0 4.41-3.24 6.63-3.24 2.23-10.28 2.23zm1.44-13.94h-5.29v10.34q0.46 0.04 1.1 0.08 0.55 0.04 1.29 0.07 0.74 0.02 1.72 0.02 1.82 0 3.45-0.24 1.63-0.23 2.86-0.82 1.23-0.6 1.97-1.65 0.74-1.06 0.74-2.67 0-1.44-0.55-2.44-0.55-0.99-1.59-1.59-1.04-0.59-2.48-0.85-1.44-0.25-3.22-0.25zm-5.29-12.37v9.07h4.32q1.53 0 2.88-0.22 1.36-0.21 2.35-0.76 1-0.55 1.57-1.44t0.57-2.24q0-1.28-0.59-2.14-0.59-0.87-1.63-1.4t-2.44-0.79q-1.4-0.25-2.96-0.25-1.57 0-2.46 0.04-0.89 0.05-1.61 0.13zm29.95 23.22q1.4 0 2.48-0.07 1.08-0.06 1.8-0.23v-6.57q-0.42-0.21-1.38-0.36-0.95-0.15-2.31-0.15-0.89 0-1.88 0.13-1 0.13-1.82 0.53-0.83 0.4-1.38 1.1t-0.55 1.85q0 2.11 1.36 2.94 1.35 0.83 3.68 0.83zm-0.34-19.75q2.37 0 4.01 0.62 1.63 0.61 2.62 1.74 1 1.12 1.42 2.66 0.43 1.55 0.43 3.41v13.77q-0.51 0.09-1.42 0.24-0.91 0.14-2.06 0.27-1.14 0.13-2.48 0.23-1.33 0.11-2.64 0.11-1.87 0-3.44-0.38-1.56-0.38-2.71-1.21-1.14-0.82-1.78-2.18-0.63-1.36-0.63-3.26 0-1.82 0.74-3.14 0.74-1.31 2.01-2.12 1.27-0.8 2.97-1.18 1.69-0.38 3.56-0.38 0.59 0 1.22 0.06 0.64 0.06 1.21 0.17t1 0.19q0.42 0.09 0.59 0.13v-1.1q0-0.98-0.21-1.93t-0.76-1.7q-0.55-0.74-1.51-1.18-0.95-0.45-2.48-0.45-1.95 0-3.41 0.28-1.46 0.27-2.18 0.57l-0.46-3.26q0.76-0.34 2.54-0.66t3.85-0.32zm11.27 29.87 0.72-3.18q0.47 0.22 1.21 0.41t1.46 0.19q2.33 0 3.64-1.04 1.32-1.04 2.38-3.37-2.67-5.08-4.98-10.78t-3.84-11.55h4.24q0.47 1.91 1.12 4.11 0.66 2.21 1.47 4.54 0.8 2.33 1.73 4.66t1.95 4.49q1.61-4.45 2.8-8.81 1.18-4.37 2.24-8.99h4.07q-1.53 6.23-3.39 11.97t-4.02 10.74q-0.85 1.91-1.76 3.29-0.91 1.37-2.01 2.26-1.11 0.89-2.48 1.32-1.38 0.42-3.12 0.42-0.46 0-0.97-0.06-0.51-0.07-1-0.17-0.48-0.11-0.89-0.24-0.4-0.12-0.57-0.21zm22.71-18.26q0-2.92 0.85-5.1 0.84-2.18 2.24-3.63 1.4-1.44 3.22-2.16t3.73-0.72q4.45 0 6.82 2.78 2.37 2.77 2.37 8.45 0 0.25 0 0.66 0 0.4-0.04 0.74h-15.08q0.25 3.43 1.99 5.21t5.42 1.78q2.08 0 3.5-0.36t2.14-0.7l0.55 3.3q-0.72 0.39-2.52 0.81t-4.09 0.42q-2.88 0-4.98-0.87-2.1-0.86-3.45-2.39-1.36-1.52-2.01-3.62-0.66-2.1-0.66-4.6zm4.19-2.16h10.93q0.05-2.67-1.33-4.38-1.38-1.72-3.79-1.72-1.36 0-2.4 0.53-1.03 0.53-1.75 1.38-0.72 0.84-1.13 1.95-0.4 1.1-0.53 2.24zm28.43-9.36q0.51 0 1.17 0.06 0.65 0.07 1.29 0.17 0.63 0.11 1.16 0.21 0.53 0.11 0.79 0.19l-0.68 3.44q-0.47-0.17-1.55-0.41-1.08-0.23-2.77-0.23-1.1 0-2.18 0.23-1.08 0.24-1.42 0.32v18.51h-3.94v-21.09q1.39-0.51 3.47-0.96 2.08-0.44 4.66-0.44zm7.8 22.49v-21.39q1.35-0.34 3.6-0.72 2.24-0.38 5.17-0.38 2.62 0 4.36 0.74t2.77 2.08q1.04 1.33 1.47 3.19 0.42 1.87 0.42 4.11v12.37h-3.94v-11.52q0-2.03-0.28-3.47-0.27-1.44-0.91-2.33-0.63-0.89-1.69-1.29-1.06-0.41-2.63-0.41-0.63 0-1.31 0.04-0.68 0.05-1.29 0.11-0.62 0.06-1.1 0.15-0.49 0.08-0.7 0.13v18.59h-3.94z"/>
  <g transform="matrix(1.3333 0 0 -1.3333 0 214.07)">
    <g transform="scale(.1)">
      <path d="m456.38 1054.2 579.75 524.14-620.86-54.33 41.106-469.81" fill="#ff8c00"/>
      <path d="m406.36 842.22 654.61-426.98-621.71-43.468-32.899 470.45" fill="#ff8c00"/>
      <path d="m3242.6 1460.1c40.13 0 72.68 32.5 72.68 72.65 0 40.16-32.55 72.66-72.68 72.66-40.15 0-72.69-32.5-72.69-72.66 0-40.15 32.54-72.65 72.69-72.65" fill="#ff8c00"/>
      <path d="m0 1493.7v-1069.4h360.34v1069.4h-360.34"/>
      <path d="m1133.1 1492.8v-1067.6l-705.39 533.8 705.39 533.8"/>
      <path d="m4477 283.45c-9.75-4.019-22.78-7.168-39.11-9.461-16.34-2.289-30.52-3.429-42.56-3.429-37.25 0-66.04 10.742-86.39 32.23-20.34 21.492-30.5 58.59-30.5 111.31 0 55.578 10.88 95.418 32.65 119.48 21.78 24.082 49.56 36.113 83.38 36.113 11.47 0 23.64-0.582 36.53-1.722 12.91-1.149 28.23-4.008 46-8.59zm99.71-45.558v569.9c0 6.301-1.29 10.312-3.84 12.031-2.56 1.719-6.68 2.582-12.36 2.582h-66.47c-6.26 0-10.66-0.863-13.22-2.582-2.55-1.719-3.82-5.73-3.82-12.031v-162.46c-18.35 4.582-35.4 7.441-51.15 8.594-15.76 1.144-29.38 1.719-40.83 1.719-37.26 0-69.06-6.59-95.41-19.766-26.37-13.191-48.14-30.809-65.33-52.867-17.19-22.063-29.81-47.711-37.83-76.934-8.02-29.219-12.03-59.887-12.03-91.976 0-34.383 3.58-65.622 10.73-93.692 7.13-28.09 18.86-52.148 35.17-72.211 16.29-20.058 37.59-35.527 63.89-46.41 26.3-10.879 58.61-16.328 96.93-16.328 9.72 0 25.44 0.719 47.17 2.148 21.73 1.43 43.59 4.012 65.62 7.731 22.02 3.719 41.31 9.031 57.91 15.898 16.57 6.883 24.87 15.762 24.87 26.653"/>
      <path d="m2376.2 280.12c-15 5.481-26.67 13.688-35.02 24.641-8.36 10.937-13.97 24.769-16.85 41.5-2.9 16.707-4.33 36.308-4.33 58.777v229.96c0 6.34-1.29 10.371-3.89 12.102-2.6 1.726-6.77 2.597-12.54 2.597h-67.42c-6.35 0-10.68-0.871-12.97-2.597-2.31-1.731-3.46-5.762-3.46-12.102v-228.23c0-39.77 3.89-73.782 11.67-102.01 7.78-28.25 20.02-51.16 36.74-68.723 16.71-17.59 38.61-30.41 65.71-38.48 27.08-8.071 60.21-12.098 99.41-12.098 7.48 0 16.13 0.148 25.94 0.43 9.79 0.3 19.88 0.73 30.25 1.3 10.38 0.571 20.46 1.438 30.27 2.59 9.79 1.16 18.43 2.309 25.93 3.457 20.17 4.032 34.87 11.961 44.09 23.774 9.21 11.808 13.83 27.808 13.83 47.976v370.01c0 6.34-1.3 10.371-3.89 12.102-2.59 1.726-6.78 2.597-12.53 2.597h-67.43c-6.35 0-10.68-0.871-12.97-2.597-2.32-1.731-3.46-5.762-3.46-12.102v-357.91c-15.57-2.891-29.26-4.461-41.06-4.75-11.82-0.301-20.9-0.43-27.24-0.43-24.2 0-43.8 2.731-58.78 8.211"/>
      <path d="m2993.5 288.38c-18.46-5.219-35.88-8.688-52.31-10.418-16.42-1.731-29.26-2.59-38.46-2.59-34.58 0-61.68 11.848-81.27 35.539-19.6 23.692-29.4 60.988-29.4 111.85 0 27.75 2.88 51.16 8.64 70.226 5.77 19.071 13.84 34.532 24.21 46.383 10.38 11.84 22.91 20.508 37.61 26.008 14.7 5.492 30.98 8.242 48.85 8.242 11.52 0 24.64-0.883 39.33-2.601 14.7-1.731 28.96-4.622 42.8-8.668zm102.01-51.91v370.01c0 4.597-0.87 8.496-2.6 11.668-1.73 3.156-5.48 6.183-11.24 9.074-25.93 11.523-54.18 19.453-84.72 23.777-30.55 4.317-60.51 6.484-89.91 6.484-38.04 0-70.75-6.054-98.11-18.152-27.39-12.109-50.01-28.683-67.87-49.719-17.88-21.039-31.13-46.25-39.77-75.629-8.64-29.402-12.97-61.39-12.97-95.968 0-34.024 3.9-64.981 11.67-92.934 7.78-27.969 19.74-52.019 35.88-72.187 16.13-20.18 36.59-35.879 61.38-47.121 24.77-11.239 54.17-16.848 88.18-16.848 16.13 0 33.85 1.297 53.16 3.879 19.31 2.597 37.32 6.488 54.04 11.668v-5.18c0-18.437-3.32-33.848-9.94-46.25-6.63-12.379-16.15-22.769-28.53-31.129-12.4-8.34-27.38-14.98-44.96-19.879-17.58-4.8904-37.03-9.0701-58.35-12.531-7.5-1.7305-10.96-6.3398-10.37-13.84l8.64-65.699c1.15-8.0625 6.62-11.242 16.43-9.5117 38.03 5.1992 71.32 12.973 99.85 23.352 28.53 10.371 52.43 24.777 71.75 43.219 19.31 18.449 33.86 41.5 43.66 69.16 9.8 27.672 14.7 61.09 14.7 100.29"/>
      <path d="m3501.8 464.7h-198.84c0.57 14.391 3.46 28.231 8.64 41.492 5.19 13.25 12.1 25.071 20.75 35.438 8.65 10.383 19.02 18.601 31.13 24.641 12.1 6.05 25.92 9.082 41.49 9.082 19.58 0 35.58-2.891 47.98-8.641 12.38-5.77 22.18-13.699 29.39-23.781 7.2-10.09 12.24-21.758 15.13-35.008 2.88-13.262 4.33-27.672 4.33-43.223zm96.81 3.461c0 59.352-15.98 106.03-47.98 140.04-31.98 33.996-81.12 51.008-147.39 51.008-29.98 0-57.63-5.344-83-15.996-25.36-10.676-47.11-26.231-65.26-46.684-18.16-20.461-32.42-45.531-42.79-75.211-10.38-29.691-15.57-63.55-15.57-101.58 0-81.258 18.44-140.63 55.33-178.09 36.88-37.468 90.19-56.187 159.93-56.187 23.63 0 48.41 2.598 74.35 7.777 25.94 5.192 49.84 14.403 71.76 27.66 8.05 4.032 10.08 10.661 6.04 19.891l-23.34 49.281c-3.45 7.481-9.8 9.211-19.01 5.18-13.27-6.34-28.83-11.82-46.69-16.422-17.87-4.617-36.03-6.918-54.46-6.918-16.72 0-32.29 2.02-46.68 6.051-14.42 4.019-27.1 10.809-38.04 20.309-10.96 9.511-19.6 21.91-25.94 37.179-6.34 15.262-9.8 34.153-10.37 56.629h229.95c9.8 0 18.88 1.141 27.24 3.461 8.35 2.289 15.69 6.332 22.04 12.102 6.34 5.75 11.24 13.531 14.7 23.339 3.45 9.79 5.18 22.18 5.18 37.18"/>
      <path d="m3922.4 564.54c15.85-5.48 28.38-13.687 37.61-24.641 9.21-10.949 15.69-24.777 19.45-41.488 3.74-16.719 5.62-36.308 5.62-58.789v-229.96c0-6.351 1.29-10.371 3.85-12.101 2.57-1.731 6.72-2.59 12.44-2.59h67.7c6.28 0 10.57 0.859 12.86 2.59 2.29 1.73 3.43 5.75 3.43 12.101v228.23c0 39.769-4.32 73.769-12.94 102.01-8.63 28.243-22 51.153-40.11 68.735-18.12 17.578-41.13 30.39-69.01 38.469-27.89 8.066-60.81 12.109-98.77 12.109-7.48 0-16.39-0.305-26.74-0.871-10.35-0.574-20.99-1.16-31.92-1.727-10.93-0.578-21.28-1.445-31.05-2.59-9.78-1.16-17.53-2.031-23.28-2.597-23.58-4.043-39.12-11.817-46.59-23.34-7.48-11.531-11.21-27.664-11.21-48.414v-370.01c0-6.351 1.3-10.371 3.89-12.101 2.6-1.731 6.77-2.59 12.54-2.59h67.43c6.34 0 10.65 0.859 12.97 2.59 2.29 1.73 3.45 5.75 3.45 12.101v357.91c15.56 2.879 29.25 4.461 41.07 4.75 11.81 0.289 20.88 0.43 27.23 0.43 24.2 0 44.22-2.738 60.08-8.211"/>
      <path d="m1840.2 1479c3.46 4.03 4.33 7.49 2.6 10.38-1.73 2.87-5.19 4.32-10.37 4.32h-88.19c-8.64 0-15.56-1.02-20.74-3.03-5.19-2.02-9.52-5.05-12.97-9.08l-131.4-160.79-86.46-109.8-3.46 1.74v262.8c0 8.07-1.29 13.11-3.88 15.13-2.6 2.01-7.93 3.03-16 3.03h-64.84c-6.35 0-11.23-1.16-14.7-3.46-3.45-2.31-5.18-7.21-5.18-14.7v-568.84c0-7.5 1.73-12.402 5.18-14.699 3.47-2.309 8.35-3.457 14.7-3.457h64.84c8.07 0 13.4 0.996 16 3.023 2.59 2.016 3.88 7.055 3.88 15.133v146.96l109.8 134.86 154.74-281.82c5.19-9.23 10.08-14.562 14.7-15.996 4.61-1.445 12.39-2.16 23.34-2.16h76.94c13.25 0 16.13 6.617 8.65 19.883l-205.75 367.41 168.57 203.16"/>
      <path d="m2218 1188.5c0-20.29-1.88-39.56-5.62-57.83-3.76-18.26-9.81-34.33-18.16-48.25-8.36-13.91-19.45-25.07-33.28-33.47-13.84-8.4-30.84-12.6-51.01-12.6-39.76 0-67.43 13.77-82.99 41.29-15.56 27.53-23.34 65.35-23.34 113.47 0 21.44 2.16 41.43 6.48 59.97 4.32 18.55 11.09 34.49 20.32 47.82 9.21 13.34 20.75 23.92 34.58 31.75 13.83 7.82 29.96 11.74 48.41 11.74 20.75 0 37.89-4.07 51.44-12.17 13.53-8.12 24.21-19.28 31.99-33.48 7.77-14.21 13.25-30.58 16.42-49.12 3.16-18.55 4.76-38.26 4.76-59.12zm102.87 2.6c0 73.18-17.72 130.67-53.17 172.47-35.44 41.77-87.46 62.67-156.04 62.67-31.12 0-59.51-5.33-85.15-15.99-25.65-10.67-47.7-26.08-66.14-46.25-18.45-20.18-32.85-44.95-43.22-74.35-10.38-29.39-15.56-63.11-15.56-101.15 0-77.24 17.14-135.87 51.44-175.92 34.28-40.07 86.3-60.089 156.04-60.089 70.3 0 123.19 20.602 158.63 61.809 35.45 41.2 53.17 100.14 53.17 176.8"/>
      <path d="m2595 1031.1c-0.58 4.61-1.88 7.64-3.9 9.08-2.02 1.43-5.33 1.86-9.94 1.3-4.03-0.58-9.07-1.16-15.12-1.73-6.06-0.58-11.39-0.87-16-0.87-11.53 0-19.32 2.73-23.34 8.22-4.04 5.47-6.05 15.69-6.05 30.69v501.41c0 6.34-1.29 10.38-3.89 12.1-2.6 1.73-7.06 2.6-13.4 2.6h-68.3c-5.76 0-9.94-0.87-12.53-2.6-2.6-1.72-3.9-5.76-3.9-12.1v-525.62c0-37.47 7.49-63.688 22.48-78.669 14.98-14.98 38.61-22.48 70.89-22.48 11.53 0 24.64 0.734 39.34 2.164 14.7 1.445 27.8 4.473 39.34 9.078 5.75 2.875 9.2 5.32 10.37 7.348 1.15 2.012 1.15 5.902 0 11.672l-6.05 48.407"/>
      <path d="m2984.8 1190.2c0-28.24-2.9-51.87-8.68-70.89-5.8-19.02-13.9-34.44-24.31-46.25-10.42-11.82-22.71-20.31-36.9-25.5-14.18-5.18-29.68-7.78-46.45-7.78-11.58 0-24.16 0.86-37.77 2.6-13.6 1.72-29.38 4.88-47.31 9.5v274.91c10.41 3.46 23.58 6.34 39.49 8.65 15.91 2.29 29.67 3.46 41.25 3.46 18.51 0 35.3-2.6 50.35-7.78 15.04-5.19 27.79-13.7 38.21-25.5 10.42-11.82 18.37-27.1 23.87-45.82 5.5-18.74 8.25-41.93 8.25-69.6zm104.61-0.86c0 32.85-3.89 63.67-11.68 92.5-7.77 28.81-20.17 53.88-37.16 75.21-17.02 21.32-38.77 38.04-65.28 50.14-26.51 12.11-58.5 18.16-95.95 18.16-28.83 0-59.22-2.31-91.22-6.92-31.98-4.62-62.39-13.26-91.2-25.93-5.77-2.89-9.51-5.77-11.24-8.65-1.73-2.89-2.58-6.92-2.58-12.1v-570.58c0-6.328 1.27-10.371 3.84-12.098 2.57-1.73 6.71-2.597 12.44-2.597h67.7c6.29 0 10.57 0.867 12.86 2.597 2.29 1.727 3.44 5.77 3.44 12.098v164.26c20.21-4.606 38.56-7.778 55.04-9.504 16.48-1.735 32.51-2.602 48.12-2.602 34.1 0 63.86 6.203 89.29 18.59 25.43 12.391 46.52 29.396 63.29 51.006 16.76 21.61 29.34 46.69 37.72 75.21 8.36 28.53 12.57 58.92 12.57 91.21"/>
      <path d="m3646.6 1331.6c15.84-5.48 28.38-13.7 37.6-24.64 9.22-10.95 15.7-24.78 19.45-41.49 3.74-16.73 5.63-36.31 5.63-58.79v-229.96c0-6.348 1.28-10.375 3.85-12.106 2.56-1.726 6.7-2.593 12.44-2.593h67.7c6.28 0 10.56 0.867 12.85 2.593 2.29 1.731 3.44 5.758 3.44 12.106v228.23c0 39.77-4.33 73.77-12.94 102.01-8.63 28.23-22.01 51.14-40.13 68.73-18.1 17.57-41.11 30.39-68.99 38.47-27.89 8.07-60.81 12.1-98.77 12.1-7.48 0-16.4-0.3-26.75-0.86-10.34-0.58-20.98-1.17-31.91-1.73-10.93-0.58-21.28-1.44-31.06-2.59-9.78-1.17-17.54-2.03-23.28-2.6-23.58-4.04-39.11-11.82-46.58-23.34-7.49-11.54-11.21-27.66-11.21-48.41v-370.01c0-6.348 1.29-10.375 3.89-12.106 2.59-1.726 6.76-2.593 12.54-2.593h67.43c6.33 0 10.65 0.867 12.96 2.593 2.3 1.731 3.46 5.758 3.46 12.106v357.9c15.56 2.88 29.24 4.47 41.07 4.76 11.79 0.28 20.88 0.43 27.22 0.43 24.21 0 44.23-2.74 60.09-8.21"/>
      <path d="m4203.8 1055.4c-18.45-5.21-35.88-8.68-52.31-10.41-16.42-1.73-29.25-2.59-38.46-2.59-34.58 0-61.68 11.84-81.26 35.53-19.6 23.69-29.4 60.99-29.4 111.86 0 27.75 2.87 51.16 8.65 70.23 5.75 19.07 13.82 34.52 24.21 46.37 10.37 11.85 22.91 20.52 37.6 26.01s30.97 8.25 48.84 8.25c11.52 0 24.64-0.88 39.34-2.61 14.69-1.73 28.96-4.62 42.79-8.66zm102.01-51.91v370.01c0 4.6-0.86 8.49-2.59 11.67-1.73 3.15-5.48 6.19-11.24 9.07-25.93 11.53-54.18 19.46-84.72 23.78-30.56 4.32-60.52 6.48-89.91 6.48-38.03 0-70.76-6.05-98.12-18.15-27.38-12.11-50.01-28.68-67.86-49.71-17.87-21.05-31.13-46.25-39.77-75.64-8.65-29.4-12.97-61.38-12.97-95.96 0-34.02 3.89-64.99 11.67-92.94 7.79-27.96 19.74-52.02 35.88-72.19 16.13-20.175 36.59-35.87 61.38-47.113 24.77-11.238 54.17-16.851 88.17-16.851 16.14 0 33.86 1.293 53.18 3.883 19.29 2.593 37.3 6.488 54.03 11.671v-5.183c0-18.442-3.33-33.856-9.94-46.25-6.64-12.391-16.14-22.766-28.54-31.125-12.4-8.352-27.38-14.981-44.95-19.883-17.59-4.894-37.04-9.078-58.35-12.535-7.5-1.727-10.95-6.336-10.38-13.832l8.64-65.699c1.16-8.067 6.63-11.239 16.43-9.512 38.04 5.187 71.33 12.969 99.85 23.34 28.53 10.371 52.45 24.785 71.76 43.222 19.3 18.454 33.85 41.5 43.65 69.161 9.8 27.668 14.7 61.086 14.7 100.29"/>
      <path d="m2041.1 698.1c40.14 0 72.69 32.5 72.69 72.657 0 40.156-32.55 72.656-72.69 72.656s-72.68-32.5-72.68-72.656c0-40.157 32.54-72.657 72.68-72.657"/>
      <path d="m2090.9 637.34c0 6.297-1.14 10.312-3.41 12.031-2.28 1.719-6.54 2.578-12.79 2.578l-67.31-24.23s-9.82-3.125-12.37-4.844-3.83-5.742-3.83-12.039v-355.15c0-17.192-1.01-33.379-3.01-48.571-2.01-15.179-6.16-29.5-12.46-42.98-6.32-13.457-15.19-25.777-26.65-36.949-11.47-11.18-26.65-21.071-45.56-29.66-4.58-2.8593-7.87-5.289-9.88-7.3007-2-2.0079-1.86-5.8672 0.43-11.617l21.49-60.16c2.28-7.4414 8.87-9.7422 19.77-6.8828 21.77 7.4531 42.21 17.191 61.31 29.223 19.1 12.039 35.6 27.938 49.52 47.719 13.91 19.762 24.86 44.129 32.81 73.051 7.95 28.949 11.94 64.051 11.94 105.31v370.48"/>
      <path d="m3292.4 1399.5c0 6.3-1.29 10.31-3.87 12.03-2.57 1.72-7.02 2.58-13.32 2.58l-66.19-24.23s-9.88-4.11-12.46-5.83-3.87-5.74-3.87-12.03v-394.57c0-6.312 1.29-10.316 3.87-12.035s6.73-2.578 12.46-2.578h66.19c6.3 0 10.75 0.859 13.32 2.578 2.58 1.719 3.87 5.723 3.87 12.035v422.05"/>
    </g>
  </g>
</svg>
