<?xml version="1.0" encoding="utf-8"?>
<!-- Generator: Adobe Illustrator 26.0.1, SVG Export Plug-In . SVG Version: 6.00 Build 0)  -->
<svg version="1.1" id="Ebene_1" xmlns="http://www.w3.org/2000/svg" xmlns:xlink="http://www.w3.org/1999/xlink" x="0px" y="0px"
	 viewBox="0 0 610.2 271.5" style="enable-background:new 0 0 610.2 271.5;" xml:space="preserve">
<style type="text/css">
	.st0{fill:#FFFFFF;}
	.st1{fill:#FF8C00;}
</style>
<path class="st0" d="M61,259.9h13.6v3.5H56.9v-29.4H61V259.9L61,259.9z M85.7,260.6c0.9,0,1.8,0,2.5-0.1c0.7,0,1.3-0.1,1.8-0.2v-6.6
	c-0.3-0.1-0.7-0.3-1.4-0.4c-0.6-0.1-1.4-0.1-2.3-0.1c-0.6,0-1.2,0-1.9,0.1c-0.7,0.1-1.3,0.3-1.8,0.5c-0.6,0.3-1,0.6-1.4,1.1
	c-0.4,0.5-0.5,1.1-0.6,1.9c0,1.4,0.4,2.4,1.3,2.9C82.9,260.4,84.1,260.6,85.7,260.6L85.7,260.6z M85.3,240.9c1.6,0,2.9,0.2,4,0.6
	c1.1,0.4,2,1,2.6,1.7c0.7,0.7,1.1,1.6,1.4,2.7c0.3,1,0.4,2.2,0.4,3.4v13.8c-0.3,0.1-0.8,0.1-1.4,0.2c-0.6,0.1-1.3,0.2-2.1,0.3
	c-0.8,0.1-1.6,0.2-2.5,0.2c-0.9,0.1-1.8,0.1-2.7,0.1c-1.2,0-2.4-0.1-3.4-0.4c-1-0.3-1.9-0.7-2.7-1.2c-0.8-0.5-1.4-1.3-1.8-2.2
	c-0.4-0.9-0.6-2-0.6-3.3c0-1.2,0.2-2.3,0.7-3.1c0.5-0.9,1.2-1.6,2-2.1c0.8-0.5,1.8-0.9,3-1.2c1.1-0.3,2.3-0.4,3.6-0.4
	c0.4,0,0.8,0,1.2,0.1c0.4,0,0.8,0.1,1.2,0.2s0.7,0.1,1,0.2c0.3,0.1,0.5,0.1,0.6,0.1v-1.1c0-0.7-0.1-1.3-0.2-1.9
	c-0.1-0.6-0.4-1.2-0.8-1.7c-0.4-0.5-0.9-0.9-1.5-1.2c-0.6-0.3-1.5-0.5-2.5-0.4c-1.3,0-2.4,0.1-3.4,0.3c-1,0.2-1.7,0.4-2.2,0.6
	l-0.5-3.3c0.5-0.2,1.4-0.4,2.6-0.7C82.7,241,83.9,240.9,85.3,240.9L85.3,240.9z M99.9,263.5v-21.4c0.9-0.2,2.1-0.5,3.6-0.7
	c1.5-0.3,3.2-0.4,5.2-0.4c1.8,0,3.2,0.2,4.4,0.7c1.2,0.5,2.1,1.2,2.8,2.1c0.7,0.9,1.2,2,1.5,3.2c0.3,1.2,0.4,2.6,0.4,4.1v12.4h-3.9
	V252c0-1.4-0.1-2.5-0.3-3.5c-0.2-1-0.5-1.7-0.9-2.3c-0.4-0.6-1-1-1.7-1.3c-0.7-0.3-1.6-0.4-2.6-0.4c-0.4,0-0.9,0-1.3,0
	c-0.5,0-0.9,0.1-1.3,0.1c-0.4,0-0.8,0.1-1.1,0.1c-0.3,0.1-0.6,0.1-0.7,0.1v18.6C103.8,263.5,99.9,263.5,99.9,263.5z M138,260v-13.9
	c-0.5-0.4-1.2-0.8-2.1-1.1c-0.9-0.4-1.9-0.6-3-0.6c-1.1,0-2.1,0.2-2.9,0.6c-0.8,0.4-1.5,1-2,1.7c-0.5,0.7-0.9,1.6-1.1,2.6
	c-0.2,1-0.3,2.1-0.3,3.2c0,2.6,0.6,4.6,1.9,6c1.3,1.4,3,2.1,5.1,2.1c1.1,0,2,0,2.7-0.1S137.6,260.2,138,260z M138,242.4v-11.1
	l3.9-0.7v32.2c-0.9,0.3-2.1,0.5-3.5,0.8c-1.4,0.3-3,0.4-4.9,0.4c-1.7,0-3.2-0.3-4.6-0.8c-1.4-0.5-2.5-1.3-3.5-2.3s-1.7-2.2-2.2-3.6
	c-0.5-1.4-0.8-3-0.8-4.8c0-1.7,0.2-3.2,0.7-4.7c0.4-1.4,1.1-2.6,1.9-3.6c0.9-1,1.9-1.8,3.1-2.4c1.2-0.6,2.6-0.8,4.2-0.8
	c1.3,0,2.4,0.2,3.4,0.5C136.8,241.8,137.5,242.1,138,242.4L138,242.4z M147.1,252.5c0-1.9,0.3-3.6,0.9-5.1c0.6-1.5,1.3-2.7,2.2-3.6
	c0.9-1,2-1.7,3.2-2.2c1.2-0.5,2.5-0.7,3.7-0.7c3,0,5.2,0.9,6.8,2.8c1.6,1.8,2.4,4.7,2.4,8.4c0,0.2,0,0.4,0,0.7c0,0.3,0,0.5,0,0.7
	h-15.1c0.2,2.3,0.8,4,2,5.2s3,1.8,5.4,1.8c1.4,0,2.6-0.1,3.5-0.4s1.7-0.5,2.1-0.7l0.6,3.3c-0.5,0.3-1.3,0.5-2.5,0.8
	c-1.2,0.3-2.6,0.4-4.1,0.4c-1.9,0-3.6-0.3-5-0.9c-1.4-0.6-2.6-1.4-3.4-2.4c-0.9-1-1.6-2.2-2-3.6
	C147.3,255.7,147.1,254.2,147.1,252.5L147.1,252.5z M151.3,250.3h10.9c0-1.8-0.4-3.2-1.3-4.4c-0.9-1.1-2.2-1.7-3.8-1.7
	c-0.9,0-1.7,0.2-2.4,0.5c-0.7,0.4-1.3,0.8-1.8,1.4c-0.5,0.6-0.9,1.2-1.1,1.9C151.5,248.8,151.4,249.6,151.3,250.3z M176.7,260.6
	c1.6,0,2.8-0.2,3.6-0.6c0.8-0.4,1.2-1.1,1.2-2c0-1-0.4-1.7-1.1-2.3c-0.8-0.6-2-1.2-3.8-1.9c-0.8-0.3-1.7-0.7-2.4-1
	c-0.8-0.4-1.4-0.8-2-1.2c-0.6-0.5-1-1.1-1.4-1.7s-0.5-1.5-0.5-2.5c0-1.9,0.7-3.5,2.2-4.6s3.4-1.7,5.9-1.7c0.6,0,1.2,0,1.9,0.1
	c0.6,0.1,1.2,0.2,1.7,0.2c0.5,0.1,1,0.2,1.4,0.3c0.4,0.1,0.7,0.2,0.9,0.3l-0.7,3.4c-0.4-0.2-1.1-0.5-2-0.7c-0.9-0.2-2-0.4-3.3-0.4
	c-1.1,0-2.1,0.2-2.9,0.7c-0.8,0.4-1.2,1.1-1.2,2.1c0,0.5,0.1,0.9,0.3,1.3c0.2,0.4,0.5,0.7,0.8,1c0.4,0.3,0.9,0.6,1.4,0.8
	c0.6,0.3,1.2,0.5,2,0.8c1,0.4,2,0.8,2.8,1.2c0.8,0.4,1.5,0.8,2.1,1.3c0.6,0.5,1,1.1,1.3,1.8c0.3,0.7,0.5,1.6,0.5,2.7
	c0,2-0.8,3.6-2.3,4.6c-1.5,1-3.7,1.6-6.5,1.6c-1.9,0-3.5-0.2-4.6-0.5c-1.1-0.3-1.9-0.6-2.2-0.8l0.7-3.4c0.5,0.2,1.2,0.4,2.2,0.8
	C173.8,260.5,175.1,260.6,176.7,260.6z M203.2,241.4h4.1c-1.1,4.1-2.4,8.1-3.9,11.9c-1.5,3.8-2.9,7.2-4.3,10.2h-3.6
	c-1.4-3-2.8-6.4-4.3-10.2c-1.5-3.8-2.8-7.7-3.9-11.9h4.2c0.3,1.4,0.7,2.9,1.2,4.4c0.5,1.6,1,3.1,1.5,4.7c0.5,1.5,1.1,3,1.6,4.5
	c0.5,1.4,1,2.7,1.5,3.9c0.5-1.1,1-2.4,1.5-3.9c0.5-1.4,1.1-2.9,1.6-4.5c0.5-1.5,1-3.1,1.5-4.7C202.4,244.3,202.8,242.8,203.2,241.4
	L203.2,241.4z M209.7,252.5c0-1.9,0.3-3.6,0.9-5.1c0.6-1.5,1.3-2.7,2.2-3.6c0.9-1,2-1.7,3.2-2.2c1.2-0.5,2.5-0.7,3.7-0.7
	c3,0,5.2,0.9,6.8,2.8c1.6,1.8,2.4,4.7,2.4,8.4c0,0.2,0,0.4,0,0.7c0,0.3,0,0.5,0,0.7h-15.1c0.2,2.3,0.8,4,2,5.2
	c1.2,1.2,3,1.8,5.4,1.8c1.4,0,2.5-0.1,3.5-0.4s1.7-0.5,2.1-0.7l0.6,3.3c-0.5,0.3-1.3,0.5-2.5,0.8c-1.2,0.3-2.6,0.4-4.1,0.4
	c-1.9,0-3.6-0.3-5-0.9c-1.4-0.6-2.6-1.4-3.5-2.4c-0.9-1-1.6-2.2-2-3.6C209.9,255.7,209.7,254.2,209.7,252.5L209.7,252.5z
	 M213.9,250.3h10.9c0-1.8-0.4-3.2-1.3-4.4c-0.9-1.1-2.2-1.7-3.8-1.7c-0.9,0-1.7,0.2-2.4,0.5s-1.3,0.8-1.8,1.4
	c-0.5,0.6-0.9,1.2-1.1,1.9C214.1,248.8,213.9,249.6,213.9,250.3L213.9,250.3z M242.3,241c0.3,0,0.7,0,1.2,0.1c0.4,0,0.9,0.1,1.3,0.2
	c0.4,0.1,0.8,0.1,1.2,0.2c0.4,0.1,0.6,0.1,0.8,0.2l-0.7,3.4c-0.3-0.1-0.8-0.2-1.5-0.4c-0.7-0.2-1.6-0.2-2.8-0.2
	c-0.7,0-1.5,0.1-2.2,0.2c-0.7,0.2-1.2,0.3-1.4,0.3v18.5h-3.9v-21.1c0.9-0.3,2.1-0.7,3.5-1C239,241.1,240.6,241,242.3,241L242.3,241z
	 M254,230.6v11.8c0.5-0.3,1.2-0.6,2.2-1c1-0.3,2.1-0.5,3.4-0.5c1.6,0,3,0.3,4.2,0.8c1.2,0.6,2.3,1.4,3.1,2.4c0.8,1,1.5,2.2,1.9,3.6
	c0.4,1.4,0.6,3,0.6,4.7c0,1.8-0.3,3.4-0.8,4.8c-0.5,1.4-1.3,2.6-2.2,3.6c-1,1-2.1,1.8-3.5,2.3c-1.4,0.5-2.9,0.8-4.6,0.8
	c-1.8,0-3.5-0.1-4.9-0.4c-1.4-0.3-2.6-0.5-3.5-0.8v-31.6L254,230.6L254,230.6z M254,246.1V260c0.4,0.1,0.9,0.2,1.7,0.3
	c0.7,0.1,1.6,0.1,2.7,0.1c2.1,0,3.8-0.7,5.1-2.1c1.3-1.4,1.9-3.4,1.9-6c0-1.1-0.1-2.2-0.3-3.2c-0.2-1-0.6-1.8-1.1-2.6
	c-0.5-0.7-1.2-1.3-2-1.7c-0.8-0.4-1.8-0.6-2.9-0.6c-1.1,0-2.1,0.2-3,0.6C255.2,245.3,254.5,245.7,254,246.1L254,246.1z M282.1,260.6
	c0.9,0,1.8,0,2.5-0.1c0.7,0,1.3-0.1,1.8-0.2v-6.6c-0.3-0.1-0.7-0.3-1.4-0.4c-0.6-0.1-1.4-0.1-2.3-0.1c-0.6,0-1.2,0-1.9,0.1
	c-0.7,0.1-1.3,0.3-1.8,0.5c-0.5,0.3-1,0.6-1.4,1.1c-0.4,0.5-0.6,1.1-0.6,1.9c0,1.4,0.5,2.4,1.4,2.9S280.5,260.6,282.1,260.6
	L282.1,260.6z M281.7,240.9c1.6,0,2.9,0.2,4,0.6c1.1,0.4,2,1,2.6,1.7c0.7,0.7,1.1,1.6,1.4,2.7c0.3,1,0.4,2.2,0.4,3.4v13.8
	c-0.3,0.1-0.8,0.1-1.4,0.2c-0.6,0.1-1.3,0.2-2,0.3c-0.8,0.1-1.6,0.2-2.5,0.2c-0.9,0.1-1.8,0.1-2.6,0.1c-1.2,0-2.4-0.1-3.4-0.4
	c-1-0.3-2-0.7-2.7-1.2c-0.8-0.5-1.4-1.3-1.8-2.2c-0.4-0.9-0.6-2-0.6-3.3c0-1.2,0.2-2.3,0.7-3.1c0.5-0.9,1.2-1.6,2-2.1
	c0.8-0.5,1.8-0.9,3-1.2c1.1-0.3,2.3-0.4,3.6-0.4c0.4,0,0.8,0,1.2,0.1c0.4,0,0.8,0.1,1.2,0.2c0.4,0.1,0.7,0.1,1,0.2
	c0.3,0.1,0.5,0.1,0.6,0.1v-1.1c0-0.7-0.1-1.3-0.2-1.9c-0.1-0.6-0.4-1.2-0.8-1.7c-0.4-0.5-0.9-0.9-1.5-1.2c-0.6-0.3-1.5-0.5-2.5-0.4
	c-1.3,0-2.4,0.1-3.4,0.3c-1,0.2-1.7,0.4-2.2,0.6l-0.5-3.3c0.5-0.2,1.4-0.4,2.5-0.7C279.1,241,280.3,240.9,281.7,240.9L281.7,240.9z
	 M296.3,263.5v-21.4c0.9-0.2,2.1-0.5,3.6-0.7c1.5-0.3,3.2-0.4,5.2-0.4c1.8,0,3.2,0.2,4.4,0.7c1.2,0.5,2.1,1.2,2.8,2.1
	c0.7,0.9,1.2,2,1.5,3.2c0.3,1.2,0.4,2.6,0.4,4.1v12.4h-3.9V252c0-1.4-0.1-2.5-0.3-3.5c-0.2-1-0.5-1.7-0.9-2.3c-0.4-0.6-1-1-1.7-1.3
	c-0.7-0.3-1.6-0.4-2.6-0.4c-0.4,0-0.9,0-1.3,0c-0.4,0-0.9,0.1-1.3,0.1c-0.4,0-0.8,0.1-1.1,0.1c-0.3,0.1-0.6,0.1-0.7,0.1v18.6H296.3
	L296.3,263.5z M334.4,260v-13.9c-0.5-0.4-1.2-0.8-2.1-1.1c-0.9-0.4-1.9-0.6-3-0.6c-1.1,0-2.1,0.2-2.9,0.6c-0.8,0.4-1.5,1-2,1.7
	c-0.5,0.7-0.9,1.6-1.1,2.6c-0.2,1-0.3,2.1-0.3,3.2c0,2.6,0.6,4.6,1.9,6c1.3,1.4,3,2.1,5.1,2.1c1.1,0,2,0,2.7-0.1
	C333.5,260.3,334,260.2,334.4,260L334.4,260z M334.4,242.4v-11.1l3.9-0.7v32.2c-0.9,0.3-2.1,0.5-3.5,0.8c-1.4,0.3-3,0.4-4.9,0.4
	c-1.7,0-3.2-0.3-4.6-0.8c-1.4-0.5-2.5-1.3-3.5-2.3s-1.7-2.2-2.2-3.6c-0.5-1.4-0.8-3-0.8-4.8c0-1.7,0.2-3.2,0.6-4.7
	c0.4-1.4,1.1-2.6,1.9-3.6c0.8-1,1.9-1.8,3.1-2.4c1.2-0.6,2.6-0.8,4.2-0.8c1.3,0,2.4,0.2,3.4,0.5
	C333.2,241.8,333.9,242.1,334.4,242.4L334.4,242.4z M362.3,263.7c-0.6,0-1.2,0-1.9,0c-0.7,0-1.4-0.1-2.1-0.1c-0.7-0.1-1.4-0.1-2-0.2
	c-0.7-0.1-1.3-0.2-1.9-0.3v-28.5c0.6-0.1,1.2-0.3,1.9-0.3c0.7-0.1,1.4-0.2,2-0.2c0.7-0.1,1.4-0.1,2.1-0.1c0.7,0,1.3,0,1.9,0
	c1.7,0,3.3,0.1,4.8,0.4c1.5,0.3,2.8,0.7,3.9,1.3s1.9,1.4,2.6,2.4c0.6,1,0.9,2.2,0.9,3.6c0,1.6-0.4,2.9-1.1,4c-0.8,1-1.8,1.8-3,2.3
	c1.7,0.5,3.1,1.3,4.1,2.4c1,1.1,1.5,2.7,1.5,4.7c0,2.9-1.1,5.2-3.2,6.6C370.4,263,367,263.7,362.3,263.7z M363.7,249.8h-5.3v10.3
	c0.3,0,0.7,0.1,1.1,0.1c0.4,0,0.8,0.1,1.3,0.1c0.5,0,1.1,0,1.7,0c1.2,0,2.4-0.1,3.5-0.2c1.1-0.2,2-0.4,2.9-0.8c0.8-0.4,1.5-1,2-1.6
	c0.5-0.7,0.7-1.6,0.7-2.7c0-1-0.2-1.8-0.5-2.4c-0.4-0.7-0.9-1.2-1.6-1.6c-0.7-0.4-1.5-0.7-2.5-0.9
	C366,249.9,364.9,249.8,363.7,249.8L363.7,249.8z M358.4,237.4v9.1h4.3c1,0,2-0.1,2.9-0.2c0.9-0.1,1.7-0.4,2.4-0.8
	c0.7-0.4,1.2-0.8,1.6-1.4c0.4-0.6,0.6-1.3,0.6-2.2c0-0.9-0.2-1.6-0.6-2.1c-0.4-0.6-0.9-1-1.6-1.4s-1.5-0.6-2.4-0.8
	c-0.9-0.2-1.9-0.2-3-0.2c-1,0-1.9,0-2.5,0C359.4,237.3,358.9,237.4,358.4,237.4L358.4,237.4z M388.4,260.6c0.9,0,1.8,0,2.5-0.1
	c0.7,0,1.3-0.1,1.8-0.2v-6.6c-0.3-0.1-0.7-0.3-1.4-0.4c-0.6-0.1-1.4-0.1-2.3-0.1c-0.6,0-1.2,0-1.9,0.1c-0.7,0.1-1.3,0.3-1.8,0.5
	c-0.6,0.3-1,0.6-1.4,1.1c-0.4,0.5-0.6,1.1-0.5,1.9c0,1.4,0.5,2.4,1.4,2.9C385.6,260.4,386.8,260.6,388.4,260.6L388.4,260.6z
	 M388,240.9c1.6,0,2.9,0.2,4,0.6c1.1,0.4,2,1,2.6,1.7c0.7,0.7,1.1,1.6,1.4,2.7c0.3,1,0.4,2.2,0.4,3.4v13.8c-0.3,0.1-0.8,0.1-1.4,0.2
	c-0.6,0.1-1.3,0.2-2.1,0.3c-0.8,0.1-1.6,0.2-2.5,0.2c-0.9,0.1-1.8,0.1-2.6,0.1c-1.2,0-2.4-0.1-3.4-0.4c-1-0.3-1.9-0.7-2.7-1.2
	c-0.8-0.5-1.4-1.3-1.8-2.2c-0.4-0.9-0.6-2-0.6-3.3c0-1.2,0.2-2.3,0.7-3.1c0.5-0.9,1.2-1.6,2-2.1c0.8-0.5,1.8-0.9,3-1.2
	c1.1-0.3,2.3-0.4,3.6-0.4c0.4,0,0.8,0,1.2,0.1c0.4,0,0.8,0.1,1.2,0.2c0.4,0.1,0.7,0.1,1,0.2c0.3,0.1,0.5,0.1,0.6,0.1v-1.1
	c0-0.7-0.1-1.3-0.2-1.9c-0.1-0.6-0.4-1.2-0.8-1.7c-0.4-0.5-0.9-0.9-1.5-1.2c-0.6-0.3-1.5-0.5-2.5-0.4c-1.3,0-2.4,0.1-3.4,0.3
	c-1,0.2-1.7,0.4-2.2,0.6l-0.5-3.3c0.5-0.2,1.4-0.4,2.5-0.7C385.4,241,386.6,240.9,388,240.9L388,240.9z M399.3,270.8l0.7-3.2
	c0.3,0.1,0.7,0.3,1.2,0.4s1,0.2,1.5,0.2c1.6,0,2.8-0.3,3.6-1c0.9-0.7,1.7-1.8,2.4-3.4c-1.8-3.4-3.4-7-5-10.8
	c-1.5-3.8-2.8-7.7-3.8-11.6h4.2c0.3,1.3,0.7,2.6,1.1,4.1c0.4,1.5,0.9,3,1.5,4.5c0.5,1.6,1.1,3.1,1.7,4.7c0.6,1.6,1.3,3.1,2,4.5
	c1.1-3,2-5.9,2.8-8.8c0.8-2.9,1.5-5.9,2.2-9h4.1c-1,4.2-2.1,8.1-3.4,12c-1.2,3.8-2.6,7.4-4,10.7c-0.6,1.3-1.2,2.4-1.8,3.3
	c-0.6,0.9-1.3,1.7-2,2.3c-0.7,0.6-1.6,1-2.5,1.3c-0.9,0.3-2,0.4-3.1,0.4c-0.3,0-0.6,0-1-0.1c-0.3,0-0.7-0.1-1-0.2
	c-0.3-0.1-0.6-0.2-0.9-0.2C399.6,270.9,399.4,270.8,399.3,270.8L399.3,270.8z M422,252.5c0-1.9,0.3-3.6,0.9-5.1
	c0.6-1.5,1.3-2.7,2.2-3.6c0.9-1,2-1.7,3.2-2.2c1.2-0.5,2.5-0.7,3.7-0.7c3,0,5.2,0.9,6.8,2.8c1.6,1.8,2.4,4.7,2.4,8.4
	c0,0.2,0,0.4,0,0.7c0,0.3,0,0.5,0,0.7h-15.1c0.2,2.3,0.8,4,2,5.2s3,1.8,5.4,1.8c1.4,0,2.6-0.1,3.5-0.4c0.9-0.2,1.7-0.5,2.1-0.7
	l0.5,3.3c-0.5,0.3-1.3,0.5-2.5,0.8c-1.2,0.3-2.6,0.4-4.1,0.4c-1.9,0-3.6-0.3-5-0.9c-1.4-0.6-2.6-1.4-3.5-2.4c-0.9-1-1.6-2.2-2-3.6
	C422.2,255.7,422,254.2,422,252.5L422,252.5z M426.2,250.3h10.9c0-1.8-0.4-3.2-1.3-4.4c-0.9-1.1-2.2-1.7-3.8-1.7
	c-0.9,0-1.7,0.2-2.4,0.5c-0.7,0.4-1.3,0.8-1.8,1.4c-0.5,0.6-0.9,1.2-1.1,1.9C426.5,248.8,426.3,249.6,426.2,250.3z M454.6,241
	c0.3,0,0.7,0,1.2,0.1c0.4,0,0.9,0.1,1.3,0.2c0.4,0.1,0.8,0.1,1.2,0.2c0.4,0.1,0.6,0.1,0.8,0.2l-0.7,3.4c-0.3-0.1-0.8-0.2-1.5-0.4
	c-0.7-0.2-1.6-0.2-2.8-0.2c-0.7,0-1.5,0.1-2.2,0.2c-0.7,0.2-1.2,0.3-1.4,0.3v18.5h-3.9v-21.1c0.9-0.3,2.1-0.7,3.5-1
	C451.3,241.1,452.9,241,454.6,241L454.6,241z M462.4,263.5v-21.4c0.9-0.2,2.1-0.5,3.6-0.7c1.5-0.3,3.2-0.4,5.2-0.4
	c1.7,0,3.2,0.2,4.4,0.7c1.2,0.5,2.1,1.2,2.8,2.1c0.7,0.9,1.2,2,1.5,3.2c0.3,1.2,0.4,2.6,0.4,4.1v12.4h-3.9V252
	c0-1.4-0.1-2.5-0.3-3.5c-0.2-1-0.5-1.7-0.9-2.3c-0.4-0.6-1-1-1.7-1.3c-0.7-0.3-1.6-0.4-2.6-0.4c-0.4,0-0.9,0-1.3,0
	c-0.5,0-0.9,0.1-1.3,0.1c-0.4,0-0.8,0.1-1.1,0.1c-0.3,0.1-0.6,0.1-0.7,0.1v18.6H462.4L462.4,263.5z"/>
<path class="st1" d="M60.8,73.5l77.3-69.9l-82.8,7.2L60.8,73.5"/>
<path class="st1" d="M54.2,101.8l87.3,56.9l-82.9,5.8L54.2,101.8"/>
<path class="st1" d="M432.3,19.4c5.4,0,9.7-4.3,9.7-9.7c0-5.4-4.3-9.7-9.7-9.7c-5.4,0-9.7,4.3-9.7,9.7
	C422.6,15.1,427,19.4,432.3,19.4"/>
<path class="st0" d="M0,14.9v142.6h48V14.9H0"/>
<path class="st0" d="M151.1,15v142.3L57,86.2L151.1,15"/>
<path class="st0" d="M596.9,176.3c-1.3,0.5-3,1-5.2,1.3c-2.2,0.3-4.1,0.5-5.7,0.5c-5,0-8.8-1.4-11.5-4.3c-2.7-2.9-4.1-7.8-4.1-14.8
	c0-7.4,1.5-12.7,4.4-15.9c2.9-3.2,6.6-4.8,11.1-4.8c1.5,0,3.2,0.1,4.9,0.2c1.7,0.2,3.8,0.5,6.1,1.1L596.9,176.3z M610.2,182.4v-76
	c0-0.8-0.2-1.4-0.5-1.6c-0.3-0.2-0.9-0.3-1.6-0.3h-8.9c-0.8,0-1.4,0.1-1.8,0.3c-0.3,0.2-0.5,0.8-0.5,1.6V128c-2.4-0.6-4.7-1-6.8-1.1
	c-2.1-0.2-3.9-0.2-5.4-0.2c-5,0-9.2,0.9-12.7,2.6c-3.5,1.8-6.4,4.1-8.7,7c-2.3,2.9-4,6.4-5,10.3c-1.1,3.9-1.6,8-1.6,12.3
	c0,4.6,0.5,8.7,1.4,12.5c1,3.7,2.5,7,4.7,9.6c2.2,2.7,5,4.7,8.5,6.2c3.5,1.5,7.8,2.2,12.9,2.2c1.3,0,3.4-0.1,6.3-0.3
	c2.9-0.2,5.8-0.5,8.7-1c2.9-0.5,5.5-1.2,7.7-2.1C609.1,185,610.2,183.8,610.2,182.4"/>
<path class="st0" d="M316.8,176.7c-2-0.7-3.6-1.8-4.7-3.3c-1.1-1.5-1.9-3.3-2.2-5.5c-0.4-2.2-0.6-4.8-0.6-7.8v-30.7
	c0-0.8-0.2-1.4-0.5-1.6c-0.3-0.2-0.9-0.3-1.7-0.3h-9c-0.8,0-1.4,0.1-1.7,0.3c-0.3,0.2-0.5,0.8-0.5,1.6v30.4c0,5.3,0.5,9.8,1.6,13.6
	c1,3.8,2.7,6.8,4.9,9.2c2.2,2.3,5.1,4.1,8.8,5.1c3.6,1.1,8,1.6,13.3,1.6c1,0,2.2,0,3.5-0.1c1.3,0,2.7-0.1,4-0.2
	c1.4-0.1,2.7-0.2,4-0.3c1.3-0.2,2.5-0.3,3.5-0.5c2.7-0.5,4.6-1.6,5.9-3.2c1.2-1.6,1.8-3.7,1.8-6.4v-49.3c0-0.8-0.2-1.4-0.5-1.6
	c-0.3-0.2-0.9-0.3-1.7-0.3h-9c-0.8,0-1.4,0.1-1.7,0.3c-0.3,0.2-0.5,0.8-0.5,1.6v47.7c-2.1,0.4-3.9,0.6-5.5,0.6
	c-1.6,0-2.8,0.1-3.6,0.1C321.4,177.8,318.8,177.5,316.8,176.7"/>
<path class="st0" d="M399.1,175.6c-2.5,0.7-4.8,1.2-7,1.4c-2.2,0.2-3.9,0.3-5.1,0.3c-4.6,0-8.2-1.6-10.8-4.7
	c-2.6-3.2-3.9-8.1-3.9-14.9c0-3.7,0.4-6.8,1.2-9.4c0.8-2.5,1.8-4.6,3.2-6.2c1.4-1.6,3.1-2.7,5-3.5c2-0.7,4.1-1.1,6.5-1.1
	c1.5,0,3.3,0.1,5.2,0.3c2,0.2,3.9,0.6,5.7,1.2L399.1,175.6z M412.7,182.5v-49.3c0-0.6-0.1-1.1-0.3-1.6c-0.2-0.4-0.7-0.8-1.5-1.2
	c-3.5-1.5-7.2-2.6-11.3-3.2c-4.1-0.6-8.1-0.9-12-0.9c-5.1,0-9.4,0.8-13.1,2.4c-3.7,1.6-6.7,3.8-9,6.6c-2.4,2.8-4.2,6.2-5.3,10.1
	c-1.2,3.9-1.7,8.2-1.7,12.8c0,4.5,0.5,8.7,1.6,12.4c1,3.7,2.6,6.9,4.8,9.6c2.2,2.7,4.9,4.8,8.2,6.3c3.3,1.5,7.2,2.2,11.8,2.2
	c2.2,0,4.5-0.2,7.1-0.5c2.6-0.3,5-0.9,7.2-1.6v0.7c0,2.5-0.4,4.5-1.3,6.2c-0.9,1.7-2.2,3-3.8,4.2c-1.7,1.1-3.7,2-6,2.7
	c-2.3,0.7-4.9,1.2-7.8,1.7c-1,0.2-1.5,0.8-1.4,1.8l1.2,8.8c0.2,1.1,0.9,1.5,2.2,1.3c5.1-0.7,9.5-1.7,13.3-3.1c3.8-1.4,7-3.3,9.6-5.8
	c2.6-2.5,4.5-5.5,5.8-9.2C412.1,192.2,412.7,187.8,412.7,182.5"/>
<path class="st0" d="M466.9,152.1h-26.5c0.1-1.9,0.5-3.8,1.2-5.5c0.7-1.8,1.6-3.3,2.8-4.7c1.2-1.4,2.5-2.5,4.2-3.3
	c1.6-0.8,3.5-1.2,5.5-1.2c2.6,0,4.7,0.4,6.4,1.2c1.7,0.8,3,1.8,3.9,3.2c1,1.3,1.6,2.9,2,4.7C466.7,148.1,466.9,150,466.9,152.1
	L466.9,152.1z M479.8,151.7c0-7.9-2.1-14.1-6.4-18.7c-4.3-4.5-10.8-6.8-19.7-6.8c-4,0-7.7,0.7-11.1,2.1c-3.4,1.4-6.3,3.5-8.7,6.2
	c-2.4,2.7-4.3,6.1-5.7,10c-1.4,4-2.1,8.5-2.1,13.5c0,10.8,2.5,18.8,7.4,23.7c4.9,5,12,7.5,21.3,7.5c3.2,0,6.5-0.3,9.9-1
	c3.5-0.7,6.6-1.9,9.6-3.7c1.1-0.5,1.3-1.4,0.8-2.7l-3.1-6.6c-0.5-1-1.3-1.2-2.5-0.7c-1.8,0.8-3.8,1.6-6.2,2.2
	c-2.4,0.6-4.8,0.9-7.3,0.9c-2.2,0-4.3-0.3-6.2-0.8c-1.9-0.5-3.6-1.4-5.1-2.7c-1.5-1.3-2.6-2.9-3.5-5c-0.8-2-1.3-4.6-1.4-7.6h30.7
	c1.3,0,2.5-0.2,3.6-0.5c1.1-0.3,2.1-0.8,2.9-1.6c0.8-0.8,1.5-1.8,2-3.1C479.6,155.3,479.8,153.7,479.8,151.7"/>
<path class="st0" d="M523,138.8c2.1,0.7,3.8,1.8,5,3.3c1.2,1.5,2.1,3.3,2.6,5.5c0.5,2.2,0.7,4.8,0.7,7.8v30.7c0,0.8,0.2,1.4,0.5,1.6
	c0.3,0.2,0.9,0.3,1.7,0.3h9c0.8,0,1.4-0.1,1.7-0.3c0.3-0.2,0.5-0.8,0.5-1.6v-30.4c0-5.3-0.6-9.8-1.7-13.6c-1.2-3.8-2.9-6.8-5.3-9.2
	c-2.4-2.3-5.5-4.1-9.2-5.1c-3.7-1.1-8.1-1.6-13.2-1.6c-1,0-2.2,0-3.6,0.1c-1.4,0.1-2.8,0.2-4.3,0.2c-1.5,0.1-2.8,0.2-4.1,0.3
	c-1.3,0.2-2.3,0.3-3.1,0.3c-3.1,0.5-5.2,1.6-6.2,3.1c-1,1.5-1.5,3.7-1.5,6.5v49.3c0,0.8,0.2,1.4,0.5,1.6c0.3,0.2,0.9,0.3,1.7,0.3h9
	c0.8,0,1.4-0.1,1.7-0.3c0.3-0.2,0.5-0.8,0.5-1.6v-47.7c2.1-0.4,3.9-0.6,5.5-0.6c1.6,0,2.8-0.1,3.6-0.1
	C518.2,137.7,520.9,138.1,523,138.8"/>
<path class="st0" d="M245.4,16.9c0.5-0.5,0.6-1,0.3-1.4c-0.2-0.4-0.7-0.6-1.4-0.6h-11.8c-1.2,0-2.1,0.1-2.8,0.4
	c-0.7,0.3-1.3,0.7-1.7,1.2L210.5,38L199,52.6l-0.5-0.2v-35c0-1.1-0.2-1.7-0.5-2c-0.3-0.3-1.1-0.4-2.1-0.4h-8.6c-0.8,0-1.5,0.2-2,0.5
	c-0.5,0.3-0.7,1-0.7,2v75.8c0,1,0.2,1.7,0.7,2c0.5,0.3,1.1,0.5,2,0.5h8.6c1.1,0,1.8-0.1,2.1-0.4c0.3-0.3,0.5-0.9,0.5-2V73.6l14.6-18
	l20.6,37.6c0.7,1.2,1.3,1.9,2,2.1c0.6,0.2,1.7,0.3,3.1,0.3h10.3c1.8,0,2.2-0.9,1.2-2.7l-27.4-49L245.4,16.9"/>
<path class="st0" d="M295.7,55.6c0,2.7-0.3,5.3-0.7,7.7c-0.5,2.4-1.3,4.6-2.4,6.4c-1.1,1.9-2.6,3.3-4.4,4.5
	c-1.8,1.1-4.1,1.7-6.8,1.7c-5.3,0-9-1.8-11.1-5.5c-2.1-3.7-3.1-8.7-3.1-15.1c0-2.9,0.3-5.5,0.9-8c0.6-2.5,1.5-4.6,2.7-6.4
	c1.2-1.8,2.8-3.2,4.6-4.2c1.8-1,4-1.6,6.5-1.6c2.8,0,5.1,0.5,6.9,1.6c1.8,1.1,3.2,2.6,4.3,4.5c1,1.9,1.8,4.1,2.2,6.5
	C295.5,50.2,295.7,52.8,295.7,55.6L295.7,55.6z M309.4,55.3c0-9.8-2.4-17.4-7.1-23c-4.7-5.6-11.7-8.4-20.8-8.4
	c-4.1,0-7.9,0.7-11.4,2.1c-3.4,1.4-6.4,3.5-8.8,6.2c-2.5,2.7-4.4,6-5.8,9.9c-1.4,3.9-2.1,8.4-2.1,13.5c0,10.3,2.3,18.1,6.9,23.5
	c4.6,5.3,11.5,8,20.8,8c9.4,0,16.4-2.7,21.2-8.2C307.1,73.3,309.4,65.5,309.4,55.3"/>
<path class="st0" d="M346,76.6c-0.1-0.6-0.3-1-0.5-1.2c-0.3-0.2-0.7-0.2-1.3-0.2c-0.5,0.1-1.2,0.2-2,0.2c-0.8,0.1-1.5,0.1-2.1,0.1
	c-1.5,0-2.6-0.4-3.1-1.1c-0.5-0.7-0.8-2.1-0.8-4.1V3.5c0-0.8-0.2-1.4-0.5-1.6c-0.3-0.2-0.9-0.3-1.8-0.3h-9.1c-0.8,0-1.3,0.1-1.7,0.3
	c-0.3,0.2-0.5,0.8-0.5,1.6v70.1c0,5,1,8.5,3,10.5c2,2,5.1,3,9.5,3c1.5,0,3.3-0.1,5.2-0.3c2-0.2,3.7-0.6,5.2-1.2
	c0.8-0.4,1.2-0.7,1.4-1c0.2-0.3,0.2-0.8,0-1.6L346,76.6"/>
<path class="st0" d="M398,55.4c0,3.8-0.4,6.9-1.2,9.5c-0.8,2.5-1.9,4.6-3.2,6.2c-1.4,1.6-3,2.7-4.9,3.4c-1.9,0.7-4,1-6.2,1
	c-1.5,0-3.2-0.1-5-0.3c-1.8-0.2-3.9-0.7-6.3-1.3V37.2c1.4-0.5,3.1-0.8,5.3-1.2c2.1-0.3,4-0.5,5.5-0.5c2.5,0,4.7,0.3,6.7,1
	c2,0.7,3.7,1.8,5.1,3.4c1.4,1.6,2.4,3.6,3.2,6.1C397.6,48.6,398,51.7,398,55.4L398,55.4z M411.9,55.5c0-4.4-0.5-8.5-1.6-12.3
	c-1-3.8-2.7-7.2-5-10c-2.3-2.8-5.2-5.1-8.7-6.7c-3.5-1.6-7.8-2.4-12.8-2.4c-3.8,0-7.9,0.3-12.2,0.9c-4.3,0.6-8.3,1.8-12.2,3.5
	c-0.8,0.4-1.3,0.8-1.5,1.2c-0.2,0.4-0.3,0.9-0.3,1.6v76.1c0,0.8,0.2,1.4,0.5,1.6c0.3,0.2,0.9,0.3,1.7,0.3h9c0.8,0,1.4-0.1,1.7-0.3
	c0.3-0.2,0.5-0.8,0.5-1.6V85.3c2.7,0.6,5.1,1,7.3,1.3c2.2,0.2,4.3,0.3,6.4,0.3c4.5,0,8.5-0.8,11.9-2.5c3.4-1.7,6.2-3.9,8.4-6.8
	c2.2-2.9,3.9-6.2,5-10C411.3,63.9,411.9,59.8,411.9,55.5"/>
<path class="st0" d="M486.2,36.5c2.1,0.7,3.8,1.8,5,3.3c1.2,1.5,2.1,3.3,2.6,5.5c0.5,2.2,0.8,4.8,0.8,7.8v30.7
	c0,0.8,0.2,1.4,0.5,1.6c0.3,0.2,0.9,0.3,1.7,0.3h9c0.8,0,1.4-0.1,1.7-0.3c0.3-0.2,0.5-0.8,0.5-1.6V53.4c0-5.3-0.6-9.8-1.7-13.6
	c-1.2-3.8-2.9-6.8-5.4-9.2c-2.4-2.3-5.5-4.1-9.2-5.1c-3.7-1.1-8.1-1.6-13.2-1.6c-1,0-2.2,0-3.6,0.1c-1.4,0.1-2.8,0.2-4.3,0.2
	c-1.5,0.1-2.8,0.2-4.1,0.3c-1.3,0.2-2.3,0.3-3.1,0.3c-3.1,0.5-5.2,1.6-6.2,3.1c-1,1.5-1.5,3.7-1.5,6.5v49.3c0,0.8,0.2,1.4,0.5,1.6
	c0.3,0.2,0.9,0.3,1.7,0.3h9c0.8,0,1.4-0.1,1.7-0.3c0.3-0.2,0.5-0.8,0.5-1.6V36.1c2.1-0.4,3.9-0.6,5.5-0.6c1.6,0,2.8-0.1,3.6-0.1
	C481.4,35.4,484.1,35.8,486.2,36.5"/>
<path class="st0" d="M560.5,73.4c-2.5,0.7-4.8,1.2-7,1.4c-2.2,0.2-3.9,0.3-5.1,0.3c-4.6,0-8.2-1.6-10.8-4.7
	c-2.6-3.2-3.9-8.1-3.9-14.9c0-3.7,0.4-6.8,1.2-9.4c0.8-2.5,1.8-4.6,3.2-6.2c1.4-1.6,3.1-2.7,5-3.5c2-0.7,4.1-1.1,6.5-1.1
	c1.5,0,3.3,0.1,5.2,0.3c2,0.2,3.9,0.6,5.7,1.2V73.4z M574.1,80.3V30.9c0-0.6-0.1-1.1-0.3-1.6c-0.2-0.4-0.7-0.8-1.5-1.2
	c-3.5-1.5-7.2-2.6-11.3-3.2c-4.1-0.6-8.1-0.9-12-0.9c-5.1,0-9.4,0.8-13.1,2.4c-3.7,1.6-6.7,3.8-9,6.6c-2.4,2.8-4.2,6.2-5.3,10.1
	c-1.2,3.9-1.7,8.2-1.7,12.8c0,4.5,0.5,8.7,1.6,12.4c1,3.7,2.6,6.9,4.8,9.6c2.2,2.7,4.9,4.8,8.2,6.3c3.3,1.5,7.2,2.2,11.8,2.2
	c2.2,0,4.5-0.2,7.1-0.5c2.6-0.3,5-0.9,7.2-1.6v0.7c0,2.5-0.4,4.5-1.3,6.2c-0.9,1.7-2.2,3-3.8,4.1c-1.7,1.1-3.7,2-6,2.7
	c-2.3,0.7-4.9,1.2-7.8,1.7c-1,0.2-1.5,0.8-1.4,1.8l1.2,8.8c0.2,1.1,0.9,1.5,2.2,1.3c5.1-0.7,9.5-1.7,13.3-3.1c3.8-1.4,7-3.3,9.6-5.8
	c2.6-2.5,4.5-5.5,5.8-9.2C573.4,90,574.1,85.5,574.1,80.3"/>
<path class="st0" d="M272.1,121c5.4,0,9.7-4.3,9.7-9.7c0-5.4-4.3-9.7-9.7-9.7c-5.4,0-9.7,4.3-9.7,9.7
	C262.4,116.7,266.8,121,272.1,121"/>
<path class="st0" d="M278.8,129.1c0-0.8-0.2-1.4-0.5-1.6c-0.3-0.2-0.9-0.3-1.7-0.3l-9,3.2c0,0-1.3,0.4-1.6,0.6
	c-0.3,0.2-0.5,0.8-0.5,1.6V180c0,2.3-0.1,4.5-0.4,6.5c-0.3,2-0.8,3.9-1.7,5.7c-0.8,1.8-2,3.4-3.6,4.9c-1.5,1.5-3.6,2.8-6.1,4
	c-0.6,0.4-1,0.7-1.3,1c-0.3,0.3-0.2,0.8,0.1,1.5l2.9,8c0.3,1,1.2,1.3,2.6,0.9c2.9-1,5.6-2.3,8.2-3.9c2.5-1.6,4.7-3.7,6.6-6.4
	c1.9-2.6,3.3-5.9,4.4-9.7c1.1-3.9,1.6-8.5,1.6-14V129.1"/>
<path class="st0" d="M439,27.5c0-0.8-0.2-1.4-0.5-1.6c-0.3-0.2-0.9-0.3-1.8-0.3l-8.8,3.2c0,0-1.3,0.5-1.7,0.8s-0.5,0.8-0.5,1.6v52.6
	c0,0.8,0.2,1.4,0.5,1.6s0.9,0.3,1.7,0.3h8.8c0.8,0,1.4-0.1,1.8-0.3c0.3-0.2,0.5-0.8,0.5-1.6V27.5"/>
</svg>
