<?xml version="1.0" encoding="utf-8"?>
<!-- Generator: Adobe Illustrator 26.0.1, SVG Export Plug-In . SVG Version: 6.00 Build 0)  -->
<svg version="1.1" id="Ebene_1" xmlns="http://www.w3.org/2000/svg" xmlns:xlink="http://www.w3.org/1999/xlink" x="0px" y="0px"
	 viewBox="0 0 388 388" style="enable-background:new 0 0 388 388;" xml:space="preserve">
<style type="text/css">
	.st0{fill-rule:evenodd;clip-rule:evenodd;}
	.st1{fill-rule:evenodd;clip-rule:evenodd;fill:#FF8C00;}
	.st2{fill:#261500;}
</style>
<g id="Ebene_1_00000038404082771139895270000014668594175368172475_">
	<path class="st0" d="M226.5,115.1l16.4-23.3c0.5-0.7,0.6-1.7,0.1-2.5c-0.4-0.8-1.2-1.3-2.2-1.3H233l18.1-28.1
		c0.5-0.7,0.5-1.7,0.1-2.5c-0.4-0.7-1.2-1.2-2.1-1.2h-8l21-35.1l21,35.1h-8c-0.9,0-1.7,0.4-2.1,1.2s-0.4,1.7,0.1,2.5L291.2,88h-6.7
		c-0.9,0-1.7,0.4-2.2,1.3c-0.4,0.8-0.4,1.8,0.1,2.5l19.5,27.8h-10.7c-0.9,0-1.7,0.4-2.1,1.3c-0.4,0.7-0.4,1.7,0.1,2.5l26.6,40.8
		c0.7,1.2,2.2,1.5,3.3,0.7c1.1-0.7,1.5-2.2,0.7-3.3l-24.2-37.1h10.9c0.9,0,1.7-0.4,2.2-1.3c0.4-0.8,0.4-1.8-0.1-2.5l-19.5-27.8h6.5
		c0.9,0,1.7-0.4,2.1-1.3c0.4-0.7,0.4-1.7-0.1-2.5l-18.1-28h7.8c0.9,0,1.7-0.4,2.1-1.2c0.4-0.7,0.4-1.7,0-2.5l-25.2-42.1
		c-0.4-0.7-1.2-1.2-2.1-1.2s-1.7,0.4-2.1,1.2l-25.2,42.2c-0.4,0.7-0.4,1.7,0,2.5c0.4,0.7,1.2,1.2,2.1,1.2h7.8
		c-5.4,8.4-18.1,28-18.1,28c-0.5,0.7-0.5,1.7-0.1,2.5s1.2,1.3,2.1,1.3h7.5l-13.7,19.4c-0.8,1.2-0.5,2.6,0.6,3.4
		C224.3,116.5,225.8,116.2,226.5,115.1z"/>
</g>
<g id="Ebene_2_00000098901042915318199760000000064759979802968473_">
	<path class="st1" d="M286,358.9c0.1-3.4-1.5-6.5-4.4-8.9c-4.1-3.6-10.4-6-16.5-6.8c-10.7-1.4-23.5,3.7-23.5,3.7
		c-0.3,0.1-0.5,0.4-0.5,0.7l-1.9,21.3c0,0.4,0.2,0.7,0.6,0.8c0,0,9.1,2.9,16,3.3c9.2,0.4,18-1.7,23.6-5.1
		C283.4,365.5,285.8,362.4,286,358.9z M228.8,347.6c0.1-0.4-0.1-0.7-0.5-0.8c0,0-5.2-2.2-10.6-2.4c-3.3-0.1-6.8,0.5-9.1,2.8
		c-1.6,1.5-2.8,3.8-3,7c-0.3,3.3,0.4,5.7,1.6,7.7c1.8,2.8,4.9,4.4,8.2,5.3c5.1,1.4,10.5,0.7,10.5,0.7c0.4-0.1,0.7-0.4,0.7-0.7
		L228.8,347.6z M206.9,317.6c-0.2-3.4-2.7-6.5-6.7-8.8c-5.7-3.4-14.5-5.4-23.7-4.8c-6.9,0.4-16,3.5-16,3.5c-0.4,0.1-0.6,0.4-0.5,0.8
		l2.2,21.3c0,0.3,0.2,0.6,0.5,0.7c0,0,12.9,4.9,23.6,3.3c6.1-0.9,12.4-3.4,16.4-7C205.5,324.1,207.1,321,206.9,317.6L206.9,317.6z
		 M149.4,330.7c0.4-0.1,0.5-0.5,0.5-0.9l-2.6-19.4c-0.1-0.4-0.4-0.7-0.7-0.7c0,0-5.4-0.5-10.5,0.9c-3.2,0.9-6.3,2.5-8,5.4
		c-1.2,2-1.8,4.4-1.5,7.7c0.4,3.3,1.5,5.5,3.1,7c2.4,2.2,5.9,2.8,9.2,2.6C144.3,332.9,149.4,330.7,149.4,330.7z M160.6,82.5
		c-0.3-0.4-0.7-0.7-1.2-0.7s-0.9,0.2-1.2,0.7l-51.7,80c-0.3,0.4-0.3,1-0.1,1.5c0.3,0.4,0.7,0.7,1.3,0.7h48c0.5,0,0.9-0.2,1.2-0.7
		l28.4-41.8c0.4-0.5,0.4-1.1,0-1.6L160.6,82.5z M164.6,162c-0.3,0.4-0.4,1-0.1,1.5c0.2,0.5,0.7,0.8,1.3,0.8h19.3
		c0.4,0,0.9-0.2,1.2-0.6l21.2-30.2l21.2,30.2c0.3,0.4,0.7,0.6,1.2,0.6h39.3c0.5,0,1-0.3,1.3-0.8c0.2-0.5,0.2-1-0.1-1.5l-51.7-73.5
		c-0.3-0.4-0.7-0.6-1.2-0.6c-0.4,0-0.9,0.2-1.2,0.6L164.6,162z M185.8,57.4c4.3,0,7.8,3.4,7.8,7.6s-3.5,7.6-7.8,7.6S178,69.2,178,65
		C178.1,60.8,181.6,57.4,185.8,57.4z M216.2,57.4c4.3,0,7.8,3.4,7.8,7.6s-3.5,7.6-7.8,7.6s-7.8-3.4-7.8-7.6S211.9,57.4,216.2,57.4z
		 M155.7,37.4c4.3,0,7.8,3.4,7.8,7.6s-3.5,7.6-7.8,7.6s-7.8-3.4-7.8-7.6S151.3,37.4,155.7,37.4z"/>
</g>
<g id="Ebene_3_00000085946438267167685470000016727132457950493085_">
	<path d="M297.8,277.8c0.1,0.4,0.1,0.7,0.1,1l0,0c-0.1,2.2-0.9,3.8-2.6,5.1c-1.7,1.2-3.6,1.5-5.7,0.8v-0.1c-1.2-0.4-2.2-0.9-3.1-1.5
		c-0.2-0.1-0.4-0.2-0.7-0.4c-0.5-0.4-0.7-0.9-0.4-1.5c0.2-0.4,0.4-0.8,0.7-1.2c0.4-0.6,0.9-0.7,1.6-0.4c0.2,0.1,0.4,0.3,0.7,0.4
		c0.7,0.4,1.3,0.8,2,1.1c0.7,0.3,1.5,0.3,2.2,0c1.3-0.9,1.5-2.1,0.5-3.5c-0.7-0.6-1.5-1.2-2.3-1.6s-1.6-0.8-2.4-1.3
		c-1.7-0.7-2.7-1.9-3.1-3.6c-0.1-0.4-0.1-0.7-0.1-1l0,0c0-2,0.8-3.6,2.3-4.9s3.3-1.7,5.4-1.2v0.1c1.3,0.4,2.5,0.9,3.6,1.6l0,0
		c0.2,0.1,0.4,0.3,0.7,0.4c0.7,0.4,0.8,1,0.4,1.7c-0.3,0.4-0.5,0.8-0.7,1.2c-0.4,0.6-0.9,0.7-1.6,0.4c-0.2-0.1-0.4-0.3-0.7-0.4
		c-1.2-0.9-2.6-1.3-4.1-1.1c-1.5,0.9-1.8,2.1-0.9,3.6c0.7,0.6,1.5,1.1,2.4,1.5c0.8,0.4,1.6,0.9,2.4,1.4
		C296.4,274.8,297.4,276.1,297.8,277.8z M282.9,277.8c0.1,0.4,0.1,0.7,0.1,1l0,0c-0.1,2.2-0.9,3.8-2.6,5.1c-1.7,1.2-3.6,1.5-5.7,0.8
		v-0.1c-1.2-0.4-2.2-0.9-3.1-1.5c-0.2-0.1-0.4-0.2-0.7-0.4c-0.5-0.4-0.7-0.9-0.4-1.5c0.2-0.4,0.4-0.8,0.7-1.2
		c0.4-0.6,0.9-0.7,1.6-0.4c0.2,0.1,0.4,0.3,0.7,0.4c0.7,0.4,1.3,0.8,2,1.1c0.7,0.3,1.5,0.3,2.2,0c1.3-0.9,1.5-2.1,0.5-3.5
		c-0.7-0.6-1.5-1.2-2.3-1.6s-1.6-0.8-2.4-1.3c-1.7-0.7-2.7-1.9-3.1-3.6c-0.1-0.4-0.1-0.7-0.1-1l0,0c0-2,0.8-3.6,2.3-4.9
		s3.3-1.7,5.4-1.2v0.1c1.3,0.4,2.5,0.9,3.6,1.6l0,0c0.2,0.1,0.4,0.3,0.7,0.4c0.7,0.4,0.8,1,0.4,1.7c-0.3,0.4-0.5,0.8-0.7,1.2
		c-0.4,0.6-0.9,0.7-1.6,0.4c-0.2-0.1-0.4-0.3-0.7-0.4c-1.2-0.9-2.6-1.3-4.1-1.1c-1.5,0.9-1.8,2.1-0.9,3.6c0.7,0.6,1.5,1.1,2.4,1.5
		c0.8,0.4,1.6,0.9,2.4,1.4C281.5,274.8,282.5,276.1,282.9,277.8z M70.3,277.8c0.1,0.4,0.1,0.7,0.1,1l0,0c-0.1,2.2-0.9,3.8-2.6,5.1
		c-1.7,1.2-3.6,1.5-5.7,0.8v-0.1c-1.2-0.4-2.2-0.9-3.1-1.5c-0.2-0.1-0.4-0.2-0.7-0.4c-0.5-0.4-0.7-0.9-0.4-1.5
		c0.2-0.4,0.4-0.8,0.7-1.2c0.4-0.6,0.9-0.7,1.6-0.4c0.2,0.1,0.4,0.3,0.7,0.4c0.7,0.4,1.3,0.8,2,1.1c0.7,0.3,1.5,0.3,2.2,0
		c1.3-0.9,1.5-2.1,0.5-3.5c-0.7-0.6-1.5-1.2-2.3-1.6s-1.6-0.8-2.4-1.3c-1.7-0.7-2.7-1.9-3.1-3.6c-0.1-0.4-0.1-0.7-0.1-1l0,0
		c0-2,0.8-3.6,2.3-4.9s3.3-1.7,5.4-1.2v0.1c1.3,0.4,2.5,0.9,3.6,1.6l0,0c0.2,0.1,0.4,0.3,0.7,0.4c0.7,0.4,0.8,1,0.4,1.7
		c-0.3,0.4-0.5,0.8-0.7,1.2c-0.4,0.6-0.9,0.7-1.6,0.4c-0.2-0.1-0.4-0.3-0.7-0.4c-1.2-0.9-2.6-1.3-4.1-1.1c-1.5,0.9-1.8,2.1-0.9,3.6
		c0.7,0.6,1.5,1.1,2.4,1.5c0.8,0.4,1.6,0.9,2.4,1.4C68.9,274.8,69.9,276.1,70.3,277.8z M98.4,264c0.6,0.1,1,0.5,1.2,1.1v14.1
		c-0.1,1-0.4,2-0.9,2.9c-1.2,2-3,3-5.3,3c-2.2,0-4.1-1-5.3-3c-0.5-0.9-0.8-1.8-0.8-2.9v-14.1c0.1-0.7,0.4-1,1.1-1.1h1.5
		c0.7,0.1,1.1,0.5,1.2,1.2c0,4.6,0,9.3,0,13.9c0.1,1.5,0.8,2.2,2.2,2.2c1.5,0,2.3-0.7,2.4-2.2c0-4.6,0-9.3,0-14
		c0.1-0.7,0.4-1.1,1.2-1.2h1.5L98.4,264L98.4,264z M176.4,265.2v18.6c-0.1,0.2-0.1,0.4-0.2,0.5c-0.1,0.1-0.2,0.3-0.4,0.4l0,0
		c-0.1,0-0.1,0,0,0c-0.2,0.1-0.4,0.1-0.6,0.1h-1.5c-0.7,0-1.1-0.4-1.2-1.1v-18.6c0.1-0.7,0.4-1.1,1.2-1.2h1.5
		c0.4,0.1,0.7,0.2,0.9,0.6C176.3,264.8,176.4,265,176.4,265.2z M207.1,264c0.7,0.1,1.1,0.5,1.2,1.2v1.5c-0.1,0.7-0.5,1.1-1.2,1.2h-3
		c-0.4,0.1-0.6,0.2-0.6,0.6c0,0.7,0,1.3,0,1.9V284c-0.1,0.1-0.1,0.3-0.2,0.4c-0.1,0.1-0.2,0.3-0.4,0.4c-0.1,0-0.1,0.1,0,0.1l0,0
		c-0.2,0.1-0.4,0.1-0.6,0.1h-1.5c-0.7-0.1-1-0.4-1.2-1.1v-15.4c-0.1-0.4-0.2-0.5-0.6-0.6h-3c-0.7-0.1-1.1-0.4-1.2-1.2v-1.5
		c0.1-0.7,0.4-1.1,1.2-1.2H207.1L207.1,264z M168,264c0.7,0.1,1,0.5,1.2,1.2v18.6c-0.1,0.7-0.5,1.1-1.2,1.2h-1.5
		c-0.4,0-0.7-0.2-0.9-0.5c-0.1-0.2-0.1-0.4-0.1-0.7c0-2.2,0-4.5,0-6.7c-0.1-0.4-0.3-0.5-0.6-0.6h-3.7c-0.2,0.1-0.4,0.3-0.4,0.6
		c0,2.2-0.1,4.4-0.1,6.7v0.2c-0.1,0.2-0.1,0.4-0.1,0.5c-0.1,0.1-0.2,0.2-0.4,0.4c-0.1,0-0.1,0-0.1,0c-0.1,0.1-0.4,0.1-0.5,0.1h-1.5
		c-0.7-0.1-1-0.4-1.1-1.1v-18.6c0.1-0.7,0.4-1.1,1.1-1.2h1.5c0.4,0.1,0.7,0.3,0.9,0.6c0.1,0.2,0.1,0.4,0.2,0.6v6.9
		c0.1,0.4,0.2,0.5,0.6,0.5h3.8c0.2-0.1,0.3-0.2,0.4-0.5c0-2.3,0-4.6,0-6.9v-0.1c0-0.1,0.1-0.3,0.2-0.4c0.1-0.1,0.2-0.3,0.4-0.4l0,0
		l0,0c0.1-0.1,0.4-0.2,0.5-0.2L168,264L168,264z M251.9,284.8H242c-0.7-0.1-1-0.5-1.1-1.2V265c0.1-0.7,0.5-1,1.2-1.1h1.5
		c0.7,0.1,1.1,0.4,1.2,1.2v15.4c0.1,0.4,0.2,0.6,0.6,0.6h6.7c0.7,0.1,1.1,0.4,1.2,1.2v1.5C252.9,284.4,252.6,284.8,251.9,284.8z
		 M304.9,267.7c-0.4,0.1-0.6,0.2-0.6,0.6v3.8c0.1,0.4,0.2,0.5,0.6,0.6h4.2c0.7,0.1,1.1,0.4,1.2,1.2v1.5c-0.1,0.7-0.5,1.1-1.2,1.2
		h-4.2c-0.4,0.1-0.5,0.2-0.6,0.6v3.6c0.1,0.4,0.2,0.6,0.6,0.6h6.7c0.7,0.1,1.1,0.5,1.2,1.2v1.5c-0.1,0.7-0.6,1.1-1.2,1.1h-9.7
		c-0.7,0-1.1-0.4-1.1-1.1v-18.6c0-0.7,0.4-1,1-1.2h9.9c0.7,0.1,1.1,0.5,1.2,1.2v1.5c-0.1,0.7-0.6,1.1-1.2,1.2L304.9,267.7
		L304.9,267.7z M215.3,267.7c-0.4,0.1-0.6,0.2-0.6,0.6v3.8c0.1,0.4,0.2,0.5,0.6,0.6h4.2c0.7,0.1,1.1,0.4,1.2,1.2v1.5
		c-0.1,0.7-0.5,1.1-1.2,1.2h-4.2c-0.4,0.1-0.5,0.2-0.6,0.6v3.6c0.1,0.4,0.2,0.6,0.6,0.6h6.7c0.7,0.1,1.1,0.5,1.2,1.2v1.5
		c-0.1,0.7-0.6,1.1-1.2,1.1h-9.8c-0.7,0-1.1-0.4-1.1-1.1v-18.6c0-0.7,0.4-1,1-1.2h9.9c0.7,0.1,1.1,0.5,1.2,1.2v1.5
		c-0.1,0.7-0.6,1.1-1.2,1.2L215.3,267.7L215.3,267.7z M121.5,267.7c-0.4,0.1-0.6,0.2-0.6,0.6v3.8c0.1,0.4,0.2,0.5,0.6,0.6h4.2
		c0.7,0.1,1.1,0.4,1.2,1.2v1.5c-0.1,0.7-0.5,1.1-1.2,1.2h-4.2c-0.4,0.1-0.5,0.2-0.6,0.6v3.6c0.1,0.4,0.2,0.6,0.6,0.6h6.7
		c0.7,0.1,1.1,0.5,1.2,1.2v1.5c-0.1,0.7-0.6,1.1-1.2,1.1h-9.8c-0.7,0-1.1-0.4-1.1-1.1v-18.6c0-0.7,0.4-1,1-1.2h9.9
		c0.7,0.1,1.1,0.5,1.2,1.2v1.5c-0.1,0.7-0.6,1.1-1.2,1.2L121.5,267.7L121.5,267.7z M262,263.7c3.7,0.4,5.8,2.4,6.1,6.2v13.8
		c-0.1,0.7-0.5,1.1-1.2,1.2h-1.5c-0.7-0.1-1.1-0.5-1.2-1.2v-4.8c-0.1-0.4-0.2-0.5-0.6-0.6H260c-0.4,0.1-0.6,0.2-0.6,0.6v4.8
		c-0.1,0.7-0.4,1.1-1.2,1.2h-1.5c-0.7-0.1-1-0.4-1.2-1.1v-13.9C256.2,266.2,258.2,264.1,262,263.7z M79.1,264
		c3.7,0.4,5.8,2.5,6.2,6.2c-0.4,3.8-2.4,5.8-6.2,6.2h-1.5c-0.4,0-0.6,0.2-0.6,0.6v6.7c-0.1,0.7-0.4,1.1-1.2,1.2h-1.5
		c-0.7-0.1-1.1-0.4-1.2-1.2v-18.5c0.1-0.7,0.4-1,1-1.2L79.1,264L79.1,264z M236.4,274.5c1.1,1.1,1.6,2.4,1.5,3.9v5.3
		c-0.1,0.7-0.4,1.1-1.2,1.2h-1.5c-0.7-0.1-1.1-0.4-1.2-1.2v-5c-0.1-1.5-0.9-2.2-2.4-2.3h-1.5c-0.4,0.1-0.6,0.2-0.6,0.6v6.7
		c-0.1,0.7-0.4,1.1-1.2,1.2h-1.5c-0.7-0.1-1.1-0.4-1.2-1.2v-18.5c0.1-0.7,0.4-1,1.1-1.2h4.9c3.7,0.4,5.8,2.5,6.2,6.2
		C238.1,271.8,237.5,273.2,236.4,274.5z M112.7,274.5c1.1,1.1,1.6,2.4,1.5,3.9v5.3c-0.1,0.7-0.4,1.1-1.2,1.2h-1.5
		c-0.7-0.1-1.1-0.4-1.2-1.2v-5c-0.1-1.5-0.9-2.2-2.4-2.3h-1.5c-0.4,0.1-0.6,0.2-0.6,0.6v6.7c-0.1,0.7-0.4,1.1-1.2,1.2h-1.5
		c-0.7-0.1-1.1-0.4-1.2-1.2v-18.5c0.1-0.7,0.4-1,1.1-1.2h4.9c3.7,0.4,5.8,2.5,6.2,6.2C114.4,271.8,113.8,273.2,112.7,274.5z
		 M192.1,283.8c0,0.7-0.4,0.9-1,0.9h-1.8c-0.7,0.1-1.3-0.3-1.6-0.9c-1.4-3.3-2.8-6.5-4.1-9.8v9.6c-0.1,0.7-0.4,1.1-1.2,1.2h-1.5
		c-0.7-0.1-1-0.4-1.1-1.1v-19c0.1-0.6,0.4-0.8,0.9-0.7h1.7c0.7-0.1,1.3,0.3,1.7,0.9c1.3,3.3,2.7,6.6,4.1,9.9v-9.7
		c0.1-0.7,0.4-1.1,1.2-1.2h1.5c0.7,0.1,1,0.4,1.2,1.1v13.6c0,1.7,0,3.3,0,5L192.1,283.8L192.1,283.8z M327.8,283.8
		c0,0.7-0.4,0.9-1,0.9H325c-0.7,0.1-1.3-0.3-1.6-0.9c-1.4-3.3-2.8-6.5-4.1-9.8v9.6c-0.1,0.7-0.4,1.1-1.2,1.2h-1.5
		c-0.7-0.1-1-0.4-1.1-1.1v-19c0.1-0.6,0.4-0.8,0.9-0.7h1.7c0.7-0.1,1.3,0.3,1.7,0.9c1.3,3.3,2.7,6.6,4.1,9.9v-9.7
		c0.1-0.7,0.4-1.1,1.2-1.2h1.5c0.7,0.1,1,0.4,1.2,1.1v13.6c0,1.7,0,3.3,0,5L327.8,283.8L327.8,283.8z M144.4,283.8
		c0,0.7-0.4,0.9-1,0.9h-1.8c-0.7,0.1-1.3-0.3-1.6-0.9c-1.4-3.3-2.8-6.5-4.1-9.8v9.6c-0.1,0.7-0.4,1.1-1.2,1.2h-1.5
		c-0.7-0.1-1-0.4-1.1-1.1v-19c0.1-0.6,0.4-0.8,0.9-0.7h1.7c0.7-0.1,1.3,0.3,1.7,0.9c1.3,3.3,2.7,6.6,4.1,9.9v-9.7
		c0.1-0.7,0.4-1.1,1.2-1.2h1.5c0.7,0.1,1,0.4,1.2,1.1v13.6c0,1.7,0,3.3,0,5L144.4,283.8L144.4,283.8z M264.3,273.9v-3.8
		c-0.1-1.5-0.9-2.2-2.4-2.4c-1.5,0.1-2.2,0.9-2.4,2.4v3.8c0,0.4,0.2,0.6,0.6,0.6h3.6C264.1,274.4,264.3,274.3,264.3,273.9z
		 M108.1,272.5c1.5-0.1,2.2-0.9,2.4-2.4c-0.1-1.5-0.9-2.2-2.4-2.4h-1.5c-0.4,0.1-0.6,0.2-0.6,0.6v3.6c0.1,0.4,0.2,0.6,0.6,0.6
		L108.1,272.5L108.1,272.5z M231.8,272.5c1.5-0.1,2.2-0.9,2.4-2.4c-0.1-1.5-0.9-2.2-2.4-2.4h-1.5c-0.4,0.1-0.6,0.2-0.6,0.6v3.6
		c0.1,0.4,0.2,0.6,0.6,0.6L231.8,272.5L231.8,272.5z M79,272.5c1.5-0.1,2.2-0.9,2.4-2.4c-0.1-1.5-0.9-2.2-2.4-2.4h-1.5
		c-0.4,0.1-0.6,0.2-0.6,0.6v3.6c0.1,0.4,0.2,0.6,0.6,0.6L79,272.5C79,272.4,79,272.5,79,272.5z M47.1,216.3c0.2,1,0.3,1.9,0.3,2.7
		v0.1c-0.1,5.8-2.4,10.3-6.9,13.5c-4.5,3.1-9.4,3.8-14.9,2.2v-0.1c-3-1-5.7-2.4-8.2-4.1c-0.5-0.3-1.1-0.6-1.7-0.9
		c-1.4-0.9-1.7-2.3-0.9-4.1c0.5-1,1.2-2,1.8-3.1c1-1.6,2.5-2,4.2-1.1c0.5,0.4,1.2,0.7,2,1c1.7,1.1,3.5,2,5.4,2.8s3.9,0.8,5.9-0.1
		c3.5-2.5,3.9-5.6,1.4-9.1c-1.8-1.6-3.9-3-6.2-4.3c-2.1-1-4.2-2.2-6.4-3.5c-4.4-2-7.2-5.1-8.2-9.6c-0.3-0.9-0.4-1.8-0.4-2.7v-0.1
		c0.1-5.3,2.1-9.7,6.2-13.1c4.1-3.5,8.8-4.6,14.3-3.3v0.1c3.4,1,6.6,2.5,9.5,4.3l0,0c0.6,0.4,1.2,0.7,1.8,1c1.7,1.2,2.1,2.6,1,4.5
		c-0.7,1-1.4,2.1-2,3.2c-1.1,1.6-2.5,2-4.2,1.1c-0.5-0.4-1.2-0.7-1.8-1c-3.3-2.5-6.8-3.5-10.8-3c-4,2.4-4.7,5.5-2.2,9.4
		c2,1.6,4,2.8,6.3,3.8c2.1,1.2,4.3,2.4,6.5,3.6C43.3,208.6,46,211.8,47.1,216.3z M209.4,179.7c1.8,0.2,2.8,1.3,3.1,3.1v3.8
		c-0.2,1.9-1.3,2.9-3.1,3.1h-8c-1,0.1-1.5,0.7-1.5,1.5c-0.1,1.7-0.1,3.4-0.1,5.1v36c-0.1,0.4-0.3,0.9-0.5,1.2
		c-0.3,0.4-0.6,0.8-0.9,0.9c-0.1,0.1-0.1,0.1-0.1,0.1h-0.1c-0.5,0.2-1,0.4-1.5,0.3h-3.8c-1.7-0.1-2.8-1.1-3-2.8v-41
		c-0.1-0.9-0.6-1.4-1.5-1.5h-8.1c-1.9-0.2-2.9-1.2-3-3.1v-3.8c0.1-1.8,1.2-2.8,3-3.1L209.4,179.7L209.4,179.7z M87.1,179.7
		c1.8,0.2,2.8,1.3,3.1,3.1v3.8c-0.2,1.9-1.3,2.9-3.1,3.1h-8c-1,0.1-1.5,0.7-1.5,1.5c-0.1,1.7-0.1,3.4-0.1,5.1v36
		c-0.1,0.4-0.3,0.9-0.5,1.2c-0.3,0.4-0.6,0.8-0.9,0.9c-0.1,0.1-0.1,0.1-0.1,0.1h-0.1c-0.5,0.2-1,0.4-1.5,0.3h-3.8
		c-1.7-0.1-2.8-1.1-3-2.8v-41c-0.1-0.9-0.6-1.4-1.5-1.5H58c-1.9-0.2-2.9-1.2-3-3.1v-3.8c0.1-1.8,1.2-2.8,3-3.1L87.1,179.7
		L87.1,179.7z M315.9,179c9.9,0.9,15.3,6.4,16.2,16.3v36.6c-0.2,1.8-1.2,2.8-3,3h-3.9c-1.9-0.2-2.9-1.3-3-3.2v-12.8
		c-0.1-0.9-0.6-1.4-1.5-1.5h-9.5c-0.9,0.1-1.5,0.7-1.5,1.5v12.8c-0.2,2-1.2,3-3.1,3.2h-3.8c-1.7-0.1-2.8-1.1-3-2.8v-36.8
		C300.6,185.5,306,180.1,315.9,179z M113.8,179c9.9,0.9,15.3,6.4,16.2,16.3v36.6c-0.2,1.8-1.2,2.8-3,3h-3.9c-1.9-0.2-2.9-1.3-3-3.2
		v-12.8c-0.1-0.9-0.6-1.4-1.5-1.5H109c-0.9,0.1-1.5,0.7-1.5,1.5v12.8c-0.2,2-1.2,3-3.1,3.2h-3.8c-1.7-0.1-2.8-1.1-3-2.8v-36.8
		C98.5,185.5,103.9,180.1,113.8,179z M289.2,235h-26.5c-1.7-0.2-2.7-1.2-2.8-3v-49.5c0.2-1.7,1.2-2.7,3-2.9h3.8
		c1.9,0.2,3,1.2,3.1,3.1v40.8c0.1,0.9,0.6,1.5,1.5,1.5H289c1.8,0.2,2.9,1.2,3.2,3.1v3.8C292,233.9,290.9,234.9,289.2,235z
		 M238.9,208.2c0.1,0.4,0.2,0.7,0.3,0.9c1.7,2.8,3.3,5.8,4.9,8.8c2,3.5,3.9,6.9,5.9,10.4c0.5,0.9,1.1,1.9,1.5,2.8
		c0.3,0.6,0.4,1.2,0.5,1.7c-0.3,1.5-1.2,2.1-2.6,2.1h-4.6c-2.1,0.1-3.6-0.9-4.4-2.7c-0.4-0.8-0.9-1.6-1.3-2.5
		c-3.2-5.6-6.4-11.2-9.4-17v13.7c-0.1,1.7-0.1,3.6-0.1,5.2c-0.1,1.9-1.1,2.9-2.9,3.2h-4c-1.7-0.2-2.7-1.2-2.9-2.8v-49.4
		c0.1-1.9,1-2.9,2.9-3.1h3.9c1.8,0.3,2.8,1.4,2.9,3.2v18.9c0.4-0.9,0.9-1.7,1.4-2.5c3.1-5.7,6.2-11.4,9.4-17c0.9-2,2.3-2.9,4.4-2.6
		h4.6c0.9-0.1,1.7,0.3,2.3,0.9c0.5,0.9,0.4,1.7-0.1,2.5c-1.1,2.1-2.2,4.2-3.4,6.2c-2,3.8-4.1,7.5-6.2,11.1c-1.2,2-2.2,4-3.2,5.9
		c-0.3,0.3-0.5,0.6-0.7,0.8C238.3,207.6,238.6,208,238.9,208.2z M165,207.5c2.8,2.9,4.2,6.4,4.1,10.4V232c-0.2,1.9-1.2,2.9-3,3h-3.8
		c-2-0.1-3-1.1-3.1-3v-13.3c-0.4-3.8-2.5-5.9-6.4-6.2H149c-0.9,0.1-1.5,0.6-1.6,1.5v18c-0.2,1.9-1.2,2.9-3.1,3h-3.8
		c-1.8-0.1-2.8-1.2-3-3v-49.2c0.2-1.7,1.2-2.8,2.8-3.1h13c9.9,1,15.4,6.5,16.3,16.4C169.5,200.4,168,204.3,165,207.5z M367.1,207.5
		c2.8,2.9,4.2,6.4,4.1,10.4V232c-0.2,1.9-1.2,2.9-3,3h-3.8c-2-0.1-3-1.1-3.1-3v-13.3c-0.4-3.8-2.5-5.9-6.4-6.2h-3.8
		c-0.9,0.1-1.5,0.6-1.6,1.5v18c-0.2,1.9-1.2,2.9-3.1,3h-3.8c-1.8-0.1-2.8-1.2-3-3v-49.2c0.2-1.7,1.2-2.8,2.8-3.1h13
		c9.9,1,15.4,6.5,16.3,16.4C371.6,200.4,370.1,204.3,367.1,207.5z M120.1,205.9v-10.3c-0.4-3.8-2.5-5.9-6.3-6.3
		c-3.8,0.4-5.9,2.5-6.3,6.3v10.3c0.1,1,0.6,1.5,1.5,1.5h9.6C119.5,207.5,119.9,206.9,120.1,205.9z M322.2,205.9v-10.3
		c-0.4-3.8-2.5-5.9-6.3-6.3c-3.8,0.4-5.9,2.5-6.3,6.3v10.3c0.1,1,0.6,1.5,1.5,1.5h9.5C321.6,207.5,322,206.9,322.2,205.9z
		 M152.9,202.4c3.8-0.4,5.9-2.5,6.4-6.3c-0.4-3.8-2.5-5.9-6.4-6.3h-3.8c-1,0.1-1.5,0.6-1.6,1.5v9.4c0.1,1,0.7,1.5,1.6,1.5h3.8V202.4
		z M355,202.4c3.8-0.4,5.9-2.5,6.4-6.3c-0.4-3.8-2.5-5.9-6.4-6.3h-3.8c-1,0.1-1.5,0.6-1.6,1.5v9.4c0.1,1,0.7,1.5,1.6,1.5h3.8V202.4z
		"/>
	<path class="st2" d="M317.5,342.4c1.4,1.7,2.2,3.3,2.2,4.6c0.1,1.5-0.4,2.6-1.5,3.6c-1.1,0.9-2.4,1.2-3.8,0.9
		c-1.4-0.4-2.8-1.4-4.2-3c-0.7-0.9-1.2-1.7-1.6-2.4c-0.4-0.8-0.6-1.5-0.7-2.2s0.1-1.4,0.3-2s0.7-1.2,1.2-1.6
		c1.1-0.9,2.4-1.2,3.8-0.9C314.8,339.7,316.2,340.7,317.5,342.4z M315.4,344.2c-0.4-0.5-0.8-0.9-1.2-1.3c-0.4-0.4-0.7-0.7-1.1-0.9
		c-0.4-0.2-0.7-0.3-1-0.4c-0.3,0-0.6,0.1-0.9,0.3s-0.4,0.5-0.4,0.8c-0.1,0.3,0,0.7,0.1,1.1s0.4,0.8,0.7,1.2c0.3,0.4,0.7,0.9,1.1,1.5
		s0.8,0.9,1.2,1.3c0.4,0.4,0.8,0.7,1.2,0.9c0.4,0.2,0.7,0.3,1,0.4c0.3,0,0.6-0.1,0.9-0.3c0.3-0.2,0.4-0.5,0.5-0.8s0-0.7-0.1-1
		c-0.1-0.4-0.4-0.8-0.7-1.2C316.2,345.2,315.8,344.7,315.4,344.2z M327.2,337.4c0.4,0.4,0.7,0.9,0.9,1.3c0.1,0.5,0.2,0.9,0.2,1.5
		c-0.1,0.5-0.2,1-0.5,1.6c-0.3,0.5-0.7,1.1-1.3,1.6c-0.7,0.6-1.2,1-1.8,1.2c-0.6,0.2-1.2,0.3-1.7,0.3s-0.9-0.1-1.4-0.4
		s-0.7-0.4-0.9-0.7c-0.3-0.3-0.4-0.6-0.6-0.9c-0.1-0.3-0.2-0.6-0.3-0.9s-0.1-0.6-0.1-0.9s0.1-0.6,0.1-0.9c-0.7,0.1-1.3,0-1.7-0.1
		c-0.5-0.1-0.9-0.4-1.4-0.9c-0.4-0.4-0.6-0.8-0.7-1.2c-0.1-0.5-0.2-0.9-0.2-1.5c0.1-0.5,0.2-1,0.4-1.5c0.2-0.5,0.6-1,1.1-1.5
		c0.6-0.5,1.1-0.9,1.7-1.1s1.1-0.3,1.5-0.3c0.5,0,0.9,0.1,1.3,0.3c0.4,0.2,0.7,0.4,1,0.7c0.4,0.4,0.7,0.9,0.8,1.5
		c0.1,0.6,0.1,1.2,0,1.7c0.9-0.1,1.5-0.1,2.1,0C326.2,336.6,326.7,336.9,327.2,337.4z M322.5,341.9c0.1,0.1,0.2,0.2,0.4,0.3
		c0.1,0.1,0.4,0.1,0.6,0.1s0.4,0,0.7-0.1c0.2-0.1,0.5-0.2,0.7-0.5c0.5-0.4,0.7-0.9,0.7-1.3s-0.1-0.8-0.4-1.1
		c-0.2-0.2-0.4-0.4-0.7-0.4s-0.5-0.1-0.8-0.1s-0.6,0.1-0.9,0.2s-0.7,0.2-0.9,0.4c-0.1,0.4-0.1,0.9,0,1.3
		C322,341.2,322.2,341.5,322.5,341.9z M332.1,335.5c0.4,0.4,0.6,0.8,0.5,1.3c-0.1,0.4-0.2,0.9-0.5,1.2s-0.7,0.5-1.2,0.6
		c-0.4,0.1-0.9-0.1-1.3-0.5s-0.6-0.8-0.5-1.3c0.1-0.4,0.2-0.9,0.5-1.2s0.7-0.5,1.2-0.6C331.2,334.9,331.7,335.1,332.1,335.5z
		 M320.9,335c-0.1-0.1-0.2-0.2-0.4-0.3c-0.1-0.1-0.3-0.1-0.5-0.1s-0.4,0-0.6,0.1s-0.4,0.2-0.7,0.4c-0.2,0.2-0.4,0.4-0.4,0.6
		s-0.1,0.4-0.1,0.6s0.1,0.4,0.1,0.5c0.1,0.1,0.1,0.3,0.2,0.4c0.3,0.3,0.7,0.4,1.1,0.5s1-0.1,1.7-0.4c0.1-0.4,0.1-0.9,0.1-1.2
		C321.4,335.7,321.2,335.4,320.9,335z M329,331l3.7-4l1.9,1.7l-3.7,4L329,331z M331.2,323.5c0.1-0.4,0.2-0.8,0.4-1.2
		c0.1-0.4,0.2-0.9,0.3-1.3c0.1-0.4,0.1-0.9,0.1-1.3s0-0.9,0-1.2l1.3-1.5l9.9,8.5l-1.8,2.1l-7.1-6.1c-0.1,0.4-0.1,0.9-0.3,1.4
		c-0.1,0.5-0.3,0.9-0.5,1.4L331.2,323.5z M337.9,315.6c0.1-0.4,0.2-0.8,0.3-1.2s0.1-0.9,0.2-1.3s0.1-0.9,0.1-1.3s0-0.9-0.1-1.2
		l1.2-1.5l10.3,7.9l-1.7,2.2l-7.4-5.7c0,0.4-0.1,0.9-0.2,1.5s-0.2,0.9-0.4,1.4L337.9,315.6z M352.9,310.1c0.4,0.3,0.7,0.7,0.7,1.2
		s-0.1,0.9-0.4,1.2c-0.3,0.4-0.6,0.6-1.1,0.7c-0.4,0.1-0.9,0-1.4-0.3c-0.4-0.3-0.7-0.7-0.7-1.2s0.1-0.9,0.4-1.2
		c0.3-0.4,0.6-0.6,1.1-0.7C352,309.6,352.4,309.8,352.9,310.1z M354.5,298.4c1.8,1.2,3,2.5,3.6,3.8c0.5,1.3,0.4,2.6-0.4,3.8
		c-0.8,1.2-1.9,1.9-3.3,2s-3-0.5-4.9-1.7c-0.9-0.6-1.7-1.2-2.2-1.8c-0.6-0.7-1-1.3-1.3-2s-0.4-1.3-0.3-2s0.3-1.3,0.7-1.9
		c0.8-1.2,1.9-1.9,3.3-2C351,296.7,352.7,297.2,354.5,298.4z M353,300.8c-0.6-0.4-1.1-0.7-1.5-0.9c-0.5-0.2-0.9-0.4-1.3-0.5
		s-0.7-0.1-1.1,0c-0.3,0.1-0.6,0.3-0.7,0.6c-0.2,0.3-0.3,0.6-0.2,0.9c0.1,0.3,0.2,0.7,0.4,0.9c0.2,0.4,0.6,0.7,1,1
		c0.4,0.4,0.9,0.7,1.5,1c0.6,0.4,1.1,0.7,1.5,0.9c0.5,0.2,0.9,0.4,1.3,0.5s0.7,0.1,1.1,0c0.3-0.1,0.6-0.3,0.7-0.6
		c0.2-0.3,0.3-0.6,0.2-0.9c-0.1-0.3-0.2-0.7-0.4-0.9s-0.6-0.7-1-1C354,301.5,353.5,301.2,353,300.8z M356,292.3
		c0.4-0.7,0.9-1.2,1.3-1.7c0.4-0.4,0.9-0.7,1.5-0.8c0.5-0.1,1-0.1,1.5-0.1s1,0.3,1.5,0.6c0.4,0.2,0.9,0.6,1.2,1
		c0.4,0.4,0.7,0.9,0.9,1.5c0.2,0.5,0.3,1.1,0.2,1.7c-0.1,0.7-0.3,1.3-0.7,2c-0.8,1.4-1.8,2.2-3,2.4s-2.6-0.1-4.1-0.9
		c-1.1-0.6-2-1.3-2.6-2.2c-0.7-0.8-1.1-1.7-1.3-2.6c-0.2-0.9-0.2-2,0-3c0.2-1.1,0.6-2.2,1.2-3.3c0.4,0.1,0.7,0.4,1,0.5
		c0.4,0.1,0.7,0.4,1,0.5c-0.3,0.6-0.6,1.1-0.7,1.7c-0.1,0.5-0.3,1.1-0.3,1.6s0,1,0.1,1.5c0.1,0.4,0.4,0.9,0.7,1.3
		c0-0.3,0.1-0.6,0.2-0.9C355.7,292.7,355.9,292.5,356,292.3z M357.7,293.7c-0.1,0.2-0.3,0.5-0.4,0.8s-0.1,0.5-0.1,0.7
		c0.1,0,0.1,0.1,0.2,0.1c0.1,0.1,0.1,0.1,0.2,0.1c0.4,0.2,0.8,0.4,1.2,0.6c0.4,0.1,0.7,0.2,1.1,0.2s0.7-0.1,0.9-0.1
		c0.3-0.1,0.5-0.4,0.7-0.7c0.1-0.3,0.2-0.5,0.2-0.8s-0.1-0.5-0.1-0.7c-0.1-0.2-0.2-0.4-0.4-0.6c-0.1-0.1-0.4-0.3-0.6-0.4
		c-0.6-0.3-1.1-0.4-1.5-0.3C358.5,292.6,358.1,293,357.7,293.7z M366.3,287.4c0.5,0.3,0.8,0.6,0.9,1.1c0.1,0.4,0.1,0.9-0.1,1.3
		s-0.5,0.7-0.9,0.9c-0.4,0.2-0.9,0.1-1.4-0.1c-0.5-0.3-0.8-0.6-0.9-1.1c-0.1-0.4-0.1-0.9,0.1-1.3s0.5-0.7,0.9-0.9
		C365.4,287.1,365.8,287.2,366.3,287.4z M363.3,275c0.4,0.2,0.8,0.5,1.1,0.9c0.3,0.4,0.6,0.7,0.9,1.2c0.2,0.4,0.4,0.9,0.7,1.5
		c0.1,0.5,0.4,1,0.5,1.5c0.1,0.2,0.1,0.5,0.3,0.8c0.1,0.3,0.2,0.6,0.4,0.9c0.1,0.3,0.2,0.5,0.4,0.7c0.1,0.2,0.2,0.4,0.3,0.4l2.4-5.1
		l2.1,1l-3.7,7.8c-0.1,0-0.3-0.1-0.5-0.2s-0.4-0.1-0.4-0.2c-0.6-0.3-1-0.6-1.4-0.9c-0.4-0.4-0.7-0.8-0.9-1.3
		c-0.3-0.4-0.5-0.9-0.7-1.5c-0.1-0.5-0.4-1-0.5-1.5c-0.1-0.4-0.3-0.8-0.4-1.1c-0.1-0.4-0.2-0.7-0.4-0.9c-0.1-0.3-0.3-0.5-0.4-0.7
		s-0.4-0.4-0.6-0.4c-0.5-0.2-0.9-0.3-1.2-0.1c-0.4,0.2-0.6,0.5-0.8,0.9c-0.1,0.3-0.2,0.6-0.3,0.9c0,0.3,0,0.6,0,0.9s0.1,0.5,0.1,0.7
		c0.1,0.2,0.1,0.4,0.1,0.5l-2.3,0.4c-0.2-0.7-0.4-1.5-0.4-2.2c0-0.8,0.2-1.6,0.6-2.3c0.3-0.7,0.7-1.2,1.1-1.7
		c0.4-0.4,0.8-0.7,1.2-0.9c0.4-0.2,0.9-0.3,1.4-0.2C362.3,274.6,362.7,274.8,363.3,275z M374.5,273.7c-0.1,0.3-0.3,0.7-0.4,0.9
		c-0.1,0.4-0.4,0.7-0.6,0.9c-0.2,0.3-0.4,0.6-0.6,0.8c-0.2,0.2-0.4,0.4-0.5,0.5l-2-1.4c0.2-0.2,0.5-0.6,0.9-1s0.7-0.9,0.9-1.7
		c0.3-0.8,0.4-1.5,0.2-2c-0.1-0.5-0.5-0.9-1-1c-0.3-0.1-0.6-0.1-0.9-0.1c-0.3,0.1-0.5,0.1-0.7,0.4c-0.2,0.1-0.4,0.4-0.6,0.7
		c-0.1,0.3-0.4,0.7-0.5,1l-0.4,1l-2.1-0.9l0.4-1.2c0.1-0.3,0.1-0.5,0.2-0.8s0.1-0.5,0-0.7s-0.1-0.4-0.3-0.7
		c-0.1-0.2-0.4-0.4-0.7-0.4c-0.2-0.1-0.4-0.1-0.7-0.1c-0.2,0-0.4,0.1-0.6,0.2c-0.1,0.1-0.3,0.2-0.4,0.4c-0.1,0.1-0.2,0.4-0.3,0.6
		c-0.2,0.5-0.3,1-0.4,1.5c0,0.5,0,0.9,0.1,1.4l-2.2,0.1c-0.1-0.2-0.1-0.5-0.1-0.8s0-0.7,0-0.9c0-0.4,0.1-0.7,0.1-1.1
		c0.1-0.4,0.1-0.7,0.4-1.2c0.3-0.7,0.6-1.3,1-1.7c0.4-0.4,0.8-0.8,1.2-1c0.4-0.2,0.9-0.3,1.4-0.3s0.9,0.1,1.5,0.3s0.9,0.5,1.2,0.9
		c0.4,0.4,0.5,0.9,0.6,1.5c0.5-0.5,1.1-0.9,1.7-1c0.7-0.1,1.3-0.1,2,0.2c0.6,0.2,1,0.5,1.5,0.9c0.4,0.4,0.7,0.8,0.9,1.4
		c0.2,0.5,0.2,1.2,0.2,1.8C375,272.1,374.8,272.9,374.5,273.7z M17.5,139.5c-0.6,0.1-1.2,0.4-1.9,0.6c-0.7,0.2-1.3,0.5-2,0.8
		s-1.3,0.6-1.9,0.9s-1.2,0.7-1.7,1l5.7,1.9l-0.7,2.2l-12.5-4.1l0.7-2.2l5.1,1.7c-0.3-0.5-0.6-1.1-0.9-1.7s-0.7-1.2-0.9-1.7
		c-0.3-0.6-0.7-1.2-0.9-1.7c-0.3-0.5-0.6-1-0.8-1.5l0.9-2.8c0.4,0.6,0.7,1.2,1,1.7c0.4,0.6,0.7,1.2,1,1.9c0.4,0.7,0.7,1.3,1,1.9
		c0.4,0.7,0.7,1.2,0.9,1.9c0.6-0.4,1.2-0.7,1.9-1.1c0.7-0.4,1.4-0.7,2.2-1c0.7-0.3,1.5-0.6,2.3-0.9c0.8-0.3,1.6-0.4,2.3-0.7
		L17.5,139.5z M17.5,125.7c0.7,0.3,1.4,0.7,1.9,1.1s0.9,0.9,1.2,1.5c0.3,0.6,0.4,1.2,0.4,1.8c0,0.7-0.1,1.3-0.4,2s-0.7,1.2-1.1,1.7
		c-0.4,0.4-0.9,0.8-1.5,1s-1.2,0.3-1.9,0.3c-0.7,0-1.4-0.1-2.1-0.4s-1.4-0.7-1.9-1.1c-0.5-0.4-0.9-0.9-1.2-1.5s-0.4-1.2-0.4-1.8
		c0-0.7,0.1-1.3,0.4-2c0.3-0.7,0.6-1.2,1.1-1.7c0.4-0.4,0.9-0.8,1.5-1s1.2-0.3,1.9-0.3C16,125.2,16.7,125.4,17.5,125.7z M16.6,127.9
		c-0.9-0.4-1.7-0.4-2.4-0.3c-0.7,0.2-1.2,0.7-1.5,1.3c-0.3,0.7-0.2,1.4,0.1,2c0.4,0.6,1,1.1,2,1.5c0.9,0.4,1.7,0.4,2.5,0.3
		s1.2-0.7,1.5-1.3c0.3-0.7,0.2-1.4-0.1-2C18.2,128.7,17.5,128.2,16.6,127.9z M24.6,122.6c-0.3,0.7-0.6,1.1-0.9,1.5s-0.7,0.6-1,0.7
		c-0.4,0.1-0.7,0.1-1.1,0.1c-0.4-0.1-0.8-0.2-1.3-0.4l-10.4-4.7l0.6-2.2l10.4,4.7c0.3,0.1,0.5,0.2,0.7,0.2c0.2,0.1,0.4,0,0.5,0
		c0.1-0.1,0.3-0.1,0.4-0.3c0.1-0.1,0.3-0.4,0.4-0.7L24.6,122.6z M24.8,110.5c0.7,0.4,1.2,0.7,1.7,1.2c0.5,0.4,0.9,0.9,1.1,1.5
		c0.2,0.5,0.4,1.1,0.4,1.7s-0.2,1.2-0.5,1.9c-0.2,0.4-0.4,0.8-0.7,1.1s-0.5,0.5-0.8,0.7l3.5,1.7l-1,2l-11.7-5.9
		c0.1-0.5,0.2-1,0.4-1.7c0.2-0.7,0.5-1.3,0.8-2c0.4-0.7,0.8-1.3,1.3-1.7c0.5-0.4,1-0.8,1.7-0.9c0.6-0.2,1.2-0.2,1.9-0.1
		C23.3,109.9,24.1,110.2,24.8,110.5z M23.8,112.6c-0.9-0.4-1.7-0.7-2.5-0.4c-0.7,0.1-1.3,0.7-1.8,1.6c-0.1,0.2-0.2,0.4-0.3,0.7
		c-0.1,0.2-0.1,0.4-0.2,0.7l5.1,2.6c0.2-0.1,0.4-0.3,0.7-0.6c0.3-0.2,0.5-0.5,0.7-0.9c0.4-0.7,0.4-1.5,0.1-2
		C25.2,113.6,24.7,113.1,23.8,112.6z M31.4,109l-1.2,2l-8.7-4.9l1.2-2L31.4,109z M24.4,101.6c0.1-0.4,0.4-1,0.6-1.7
		c0.3-0.7,0.7-1.4,1.1-2.1s0.9-1.2,1.4-1.6s0.9-0.6,1.5-0.7c0.5-0.1,1,0,1.6,0.1c0.6,0.2,1.1,0.4,1.7,0.8l4.8,3l-1.2,2l-4.5-2.8
		c-0.4-0.3-0.9-0.5-1.2-0.7c-0.4-0.1-0.7-0.2-0.9-0.2c-0.3,0-0.5,0.1-0.8,0.3c-0.2,0.1-0.4,0.4-0.7,0.8c-0.1,0.2-0.3,0.5-0.4,0.8
		s-0.2,0.5-0.3,0.7l6.9,4.2l-1.2,2L24.4,101.6z M20.2,102.5c0.4,0.2,0.6,0.5,0.7,0.9s0,0.7-0.1,1.1c-0.2,0.4-0.4,0.6-0.8,0.7
		s-0.7,0.1-1.1-0.1s-0.7-0.5-0.7-0.9s0-0.7,0.1-1.1c0.2-0.4,0.4-0.6,0.8-0.7C19.5,102.2,19.9,102.3,20.2,102.5z M42.3,90.1
		c1.3,0.9,2,1.9,2.2,3s-0.3,2.3-1.2,3.7c-0.4,0.5-0.7,0.9-1.2,1.4c-0.4,0.4-0.8,0.8-1.2,1.1l-1.4-1.5c0.4-0.2,0.7-0.5,1.1-0.9
		c0.4-0.4,0.7-0.8,1.1-1.2c0.5-0.7,0.7-1.4,0.7-2c-0.1-0.5-0.4-1-1.1-1.5L41,92c-0.1,0.2-0.1,0.6-0.2,0.9c-0.1,0.4-0.3,0.7-0.6,1.2
		c-0.4,0.5-0.8,0.9-1.2,1.2s-1,0.6-1.6,0.6c-0.5,0.1-1.1,0.1-1.7-0.1c-0.6-0.1-1.2-0.5-1.9-0.9c-0.6-0.4-1.1-0.9-1.5-1.5
		c-0.4-0.5-0.6-1.1-0.7-1.7s-0.1-1.2,0.1-1.9c0.1-0.7,0.4-1.3,0.9-1.9c0.4-0.6,0.9-1.2,1.4-1.7s0.9-0.9,1.3-1.2L42.3,90.1z M35.2,93
		c0.8,0.6,1.5,0.8,2.1,0.7s1.1-0.4,1.5-0.9c0.2-0.3,0.4-0.6,0.4-0.9c0.1-0.3,0.1-0.6,0.1-0.9l-4.2-3c-0.1,0.1-0.3,0.3-0.4,0.4
		c-0.1,0.1-0.4,0.4-0.6,0.7c-0.5,0.7-0.7,1.4-0.4,2C34,91.8,34.4,92.5,35.2,93z M46.8,91.8c-0.1,0.1-0.2,0.3-0.4,0.5
		s-0.4,0.4-0.7,0.5l-1.3-1.4c0.2-0.1,0.5-0.4,0.7-0.7c0.3-0.4,0.4-0.8,0.3-1.2s-0.4-0.7-0.9-1.1l-7.8-5.8l1.4-1.8l7.8,5.9
		c1,0.8,1.6,1.6,1.7,2.5C47.8,90,47.5,90.9,46.8,91.8z M52.7,78.3c-0.2,0.4-0.5,0.9-0.9,1.6s-0.8,1.2-1.4,1.9
		c-0.5,0.6-1,1.1-1.5,1.3c-0.5,0.3-1,0.4-1.6,0.4c-0.5,0-1-0.1-1.6-0.4c-0.5-0.3-1-0.6-1.6-1l-4.3-3.6l1.5-1.7l4,3.3
		c0.8,0.7,1.5,1.1,2,1.1c0.6,0.1,1.1-0.2,1.6-0.8c0.1-0.2,0.4-0.4,0.5-0.7c0.1-0.3,0.3-0.4,0.4-0.6L43.6,74l1.5-1.7L52.7,78.3z
		 M36,78.9c0.4,0.3,0.5,0.6,0.6,0.9c0,0.4-0.1,0.7-0.3,1s-0.5,0.5-0.9,0.6s-0.7,0-1.1-0.3c-0.4-0.3-0.6-0.6-0.6-0.9s0.1-0.7,0.3-1
		s0.5-0.5,0.9-0.6C35.2,78.5,35.6,78.6,36,78.9z M59.7,69.7c1.2,1.1,1.7,2.2,1.7,3.3c0,1.1-0.6,2.2-1.7,3.5
		c-0.4,0.4-0.9,0.9-1.3,1.2c-0.4,0.4-0.9,0.7-1.4,0.9l-1.2-1.7c0.4-0.1,0.8-0.4,1.2-0.7s0.8-0.7,1.2-1.1c0.7-0.7,0.9-1.3,0.9-1.8
		c0-0.6-0.3-1.1-0.9-1.6l-0.3-0.3c-0.1,0.2-0.2,0.6-0.4,0.9c-0.1,0.4-0.4,0.7-0.7,1.1c-0.4,0.4-0.9,0.8-1.5,1.1
		c-0.5,0.2-1,0.4-1.6,0.4s-1.1-0.1-1.7-0.4c-0.6-0.2-1.2-0.7-1.7-1.2s-0.9-1-1.2-1.6s-0.4-1.2-0.5-1.8c0-0.6,0.1-1.2,0.3-1.8
		c0.2-0.6,0.7-1.2,1.2-1.7c0.5-0.6,1-1,1.6-1.5c0.6-0.4,1-0.7,1.5-1L59.7,69.7z M52.2,71.5c0.7,0.7,1.4,1,2,1s1.2-0.2,1.6-0.7
		c0.2-0.3,0.4-0.6,0.6-0.9c0.1-0.3,0.2-0.6,0.3-0.8l-3.8-3.6c-0.1,0.1-0.3,0.2-0.5,0.4c-0.2,0.1-0.4,0.4-0.7,0.7
		c-0.6,0.6-0.8,1.3-0.7,2C51.2,70.2,51.6,70.9,52.2,71.5z M58.6,65.3c-0.6-0.7-1-1.3-1.3-2s-0.4-1.3-0.4-1.9s0.1-1.2,0.4-1.7
		c0.2-0.6,0.6-1,1-1.5c1-0.9,2.1-1.4,3.2-1.3c1.2,0.1,2.3,0.7,3.5,2c0.1,0.1,0.2,0.2,0.3,0.3c0.1,0.1,0.2,0.2,0.3,0.4l-4.8,4.5
		c0.6,0.5,1.2,0.8,1.9,0.8s1.4-0.4,2-1c0.4-0.4,0.7-0.8,1-1.2s0.4-0.7,0.6-1l1.5,1.2c-0.1,0.1-0.1,0.3-0.2,0.5s-0.3,0.4-0.4,0.7
		c-0.1,0.2-0.4,0.5-0.6,0.7c-0.2,0.3-0.4,0.5-0.7,0.7c-0.7,0.6-1.3,1-2,1.3c-0.7,0.3-1.3,0.4-1.9,0.3c-0.7-0.1-1.2-0.2-1.8-0.6
		C59.6,66.1,59.1,65.8,58.6,65.3z M62.7,59.9c-0.2-0.2-0.4-0.4-0.7-0.6c-0.3-0.1-0.5-0.2-0.8-0.3c-0.3,0-0.5,0-0.8,0.1
		s-0.5,0.2-0.8,0.5c-0.3,0.2-0.4,0.5-0.5,0.8C59,60.7,59,61,59,61.3s0.1,0.6,0.2,0.9c0.1,0.3,0.3,0.5,0.4,0.8L62.7,59.9z M64,53.8
		c0.3-0.4,0.7-0.9,1.1-1.4c0.4-0.6,1-1.1,1.7-1.7c0.7-0.5,1.2-0.9,1.8-1.1c0.6-0.2,1.1-0.2,1.6-0.1c0.5,0.1,1,0.3,1.5,0.7
		c0.4,0.4,0.9,0.8,1.4,1.3l3.6,4.3L75,57.3l-3.4-4c-0.4-0.4-0.7-0.7-0.9-0.9c-0.3-0.2-0.6-0.4-0.9-0.5s-0.6-0.1-0.8,0
		c-0.3,0.1-0.6,0.3-0.9,0.5c-0.2,0.2-0.4,0.4-0.7,0.7c-0.2,0.2-0.4,0.4-0.5,0.5l5.2,6.2l-1.7,1.5L64,53.8z M85.2,48.9
		c-0.3,0.4-0.7,0.8-1.2,1.3s-1,1-1.7,1.5s-1.3,0.8-1.9,1c-0.7,0.1-1.3,0.2-1.9,0.1c-0.7-0.1-1.2-0.4-1.8-0.7
		c-0.6-0.4-1.1-0.9-1.6-1.5s-0.8-1.2-1-1.9s-0.3-1.2-0.3-1.8s0.2-1.2,0.5-1.7s0.7-1,1.3-1.5c0.4-0.3,0.8-0.5,1.2-0.7
		c0.4-0.1,0.7-0.2,1-0.3L75,39l1.6-1.7L85.2,48.9z M77,49.1c0.6,0.8,1.3,1.3,2,1.5s1.5,0,2.1-0.5c0.3-0.2,0.5-0.4,0.7-0.6
		c0.2-0.2,0.4-0.4,0.4-0.4l-3.4-4.6c-0.2,0-0.5,0.1-0.9,0.1c-0.4,0.1-0.7,0.3-0.9,0.5c-0.7,0.5-1,1.1-0.9,1.8
		C76.1,47.6,76.4,48.3,77,49.1z M94.4,43.3c-0.6,0.4-1.2,0.7-1.8,1.1c-0.7,0.4-1.2,0.6-1.7,0.7l-6.7-10.9c0.2-0.2,0.4-0.4,0.7-0.6
		c0.2-0.2,0.5-0.4,0.8-0.6c0.3-0.2,0.5-0.4,0.8-0.6c0.3-0.2,0.5-0.4,0.8-0.5c0.7-0.4,1.4-0.8,2-1c0.7-0.3,1.2-0.4,1.8-0.4
		c0.6,0,1.1,0.1,1.6,0.3s0.9,0.7,1.2,1.2c0.4,0.5,0.5,1.1,0.4,1.6c0,0.5-0.2,1.1-0.5,1.6c0.8-0.2,1.5-0.1,2.1,0.1
		c0.6,0.2,1.1,0.7,1.5,1.4c0.7,1.2,0.8,2.3,0.4,3.4C97.3,41.1,96.1,42.2,94.4,43.3z M89.8,39l2.1,3.4c0.2-0.1,0.5-0.3,0.7-0.4
		c0.3-0.1,0.5-0.3,0.7-0.4c0.4-0.3,0.8-0.5,1.2-0.8s0.6-0.6,0.8-0.9c0.1-0.3,0.3-0.6,0.3-0.9c0-0.3-0.1-0.7-0.3-1
		c-0.4-0.7-0.9-0.9-1.5-0.9c-0.7,0.1-1.3,0.3-2.2,0.8L89.8,39z M99.4,28.4c0.7-0.4,1.3-0.6,1.8-0.7c0.6-0.1,1-0.1,1.5,0.1
		s0.8,0.4,1.2,0.8s0.7,0.8,0.9,1.3l2.9,5.3c-0.3,0.2-0.7,0.6-1.3,1c-0.6,0.4-1.2,0.9-2,1.3c-0.5,0.3-1,0.5-1.5,0.7
		c-0.5,0.1-0.9,0.1-1.4,0.1c-0.4-0.1-0.8-0.2-1.2-0.5c-0.4-0.3-0.7-0.7-1-1.2s-0.4-1-0.4-1.5c0-0.4,0.1-0.9,0.4-1.3
		c0.2-0.4,0.5-0.8,0.9-1.1c0.4-0.4,0.8-0.7,1.3-0.9c0.2-0.1,0.4-0.2,0.7-0.4c0.3-0.1,0.6-0.2,0.9-0.3l-0.2-0.4
		c-0.1-0.2-0.3-0.4-0.4-0.7s-0.4-0.3-0.6-0.4s-0.5-0.1-0.7-0.1c-0.3,0-0.6,0.1-0.9,0.4c-0.4,0.3-0.9,0.5-1.2,0.8s-0.7,0.5-0.8,0.7
		l-1.2-1.5c0.2-0.2,0.5-0.5,0.9-0.9C98.4,28.9,98.8,28.7,99.4,28.4z M113,21.8c0.7,3.8,1.1,7.5,1.2,10.9c0,0.7,0,1.2-0.1,1.7
		s-0.2,0.9-0.4,1.3c-0.2,0.4-0.4,0.7-0.7,1c-0.3,0.3-0.7,0.5-1.2,0.8c-0.3,0.1-0.7,0.3-1,0.4S110.1,38,110,38l-0.4-1.9
		c0.5-0.1,0.9-0.1,1.3-0.4c0.5-0.3,0.9-0.6,1.1-1c0.1-0.4,0.3-0.9,0.2-1.6c-1.2-0.9-2.5-2-3.8-3.3c-1.3-1.2-2.6-2.5-3.9-4l2.2-1.1
		c0.4,0.4,0.7,0.9,1.2,1.4c0.4,0.5,0.9,0.9,1.4,1.5s0.9,0.9,1.5,1.5c0.5,0.4,0.9,0.9,1.5,1.3c-0.1-1.2-0.3-2.5-0.5-3.8
		s-0.4-2.5-0.7-3.8L113,21.8z M88.8,37.4l1.5-0.9c0.8-0.5,1.3-0.9,1.6-1.5s0.3-1-0.1-1.6c-0.4-0.5-0.8-0.8-1.4-0.7s-1.2,0.3-2,0.8
		c-0.3,0.2-0.6,0.4-0.8,0.5c-0.2,0.1-0.4,0.3-0.6,0.4L88.8,37.4z M103.7,35.8c0.7-0.4,1.1-0.7,1.4-0.9l-1.2-2.2
		c-0.1,0-0.3,0.1-0.5,0.1s-0.5,0.2-0.7,0.4c-0.2,0.1-0.4,0.3-0.7,0.4s-0.4,0.4-0.5,0.5c-0.1,0.2-0.2,0.4-0.2,0.7
		c0,0.2,0,0.4,0.1,0.7c0.3,0.5,0.6,0.7,1,0.7C102.7,36.2,103.2,36.1,103.7,35.8z M116.3,25.9c-0.4-0.8-0.5-1.6-0.5-2.3
		s0.1-1.4,0.4-2c0.2-0.6,0.6-1.1,1-1.5s0.9-0.7,1.5-0.9c1.3-0.5,2.4-0.5,3.5-0.1c1,0.5,1.9,1.5,2.5,3.1c0.1,0.1,0.1,0.2,0.1,0.4
		c0.1,0.1,0.1,0.3,0.1,0.4l-6.1,2.5c0.4,0.7,0.9,1.2,1.5,1.4c0.7,0.2,1.4,0.1,2.2-0.2c0.5-0.2,0.9-0.4,1.4-0.7
		c0.4-0.3,0.7-0.5,0.9-0.7l1,1.6c-0.1,0.1-0.2,0.2-0.4,0.4c-0.1,0.1-0.4,0.3-0.7,0.4c-0.2,0.1-0.5,0.3-0.8,0.5s-0.6,0.3-0.9,0.4
		c-0.8,0.4-1.6,0.5-2.2,0.5c-0.7,0-1.3-0.1-1.9-0.4s-1.1-0.7-1.5-1.2C117,27.2,116.6,26.6,116.3,25.9z M131.3,17
		c-0.2,0-0.5,0-0.8,0.1c-0.4,0.1-0.7,0.1-1.2,0.3c-0.2,0.1-0.5,0.2-0.7,0.4c-0.2,0.1-0.4,0.2-0.5,0.3l2.6,7.5l-2.2,0.8l-3.1-9
		c0.4-0.3,0.9-0.7,1.5-1c0.6-0.4,1.2-0.7,2-0.9c0.1-0.1,0.3-0.1,0.5-0.1c0.2-0.1,0.4-0.1,0.6-0.1c0.2-0.1,0.4-0.1,0.6-0.1
		c0.2,0,0.4,0,0.5,0L131.3,17z M122.1,22.4c-0.1-0.3-0.3-0.6-0.4-0.8c-0.2-0.2-0.4-0.4-0.7-0.5c-0.2-0.1-0.5-0.2-0.8-0.2
		s-0.6,0.1-0.9,0.1c-0.4,0.1-0.6,0.3-0.8,0.5c-0.2,0.2-0.4,0.5-0.4,0.7c-0.1,0.2-0.1,0.6-0.1,0.9s0.1,0.6,0.1,0.9L122.1,22.4z
		 M132.8,14.6c0.4-0.2,0.9-0.5,1.6-0.9c0.7-0.3,1.4-0.6,2.2-0.9c0.8-0.2,1.5-0.3,2-0.3c0.6,0.1,1.1,0.2,1.5,0.5s0.8,0.7,1.1,1.2
		s0.5,1.1,0.7,1.7l1.6,5.4l-2.2,0.7l-1.5-5c-0.1-0.5-0.3-0.9-0.5-1.3c-0.1-0.4-0.4-0.6-0.6-0.8c-0.2-0.1-0.5-0.3-0.8-0.3
		s-0.7,0-1,0.1s-0.6,0.2-0.9,0.3c-0.3,0.1-0.5,0.2-0.7,0.3l2.3,7.7l-2.2,0.7L132.8,14.6z"/>
	<path class="st0" d="M27.6,254.7l0.1,0.3l0.1,0.2l0.1,0.4L28,256l0.1,0.2l0.1,0.4l0.1,0.4c7.1,20.6,18.1,39.4,31.9,55.8
		c0,0,0,0.1,0.1,0.1c31.9,37.5,79.5,61.3,132.6,61.3c1.7,0,3-1.4,3-3s-1.4-3-3-3c-51.2,0-97.1-23-127.9-59.2c0,0,0-0.1-0.1-0.1
		c-12.7-14.9-22.8-32.1-29.7-50.8l-0.1-0.4l-0.1-0.5l-0.2-0.5l-0.2-0.5l-0.1-0.4l-0.1-0.4l-0.1-0.4l-0.1-0.4h317.9
		c-11.1,32.3-31.8,60.1-58.5,80.1c-1.3,1-1.6,2.9-0.6,4.2s2.9,1.6,4.2,0.6c28.4-21.2,50-50.7,61.3-85h20.8c1.7,0,3-1.4,3-3
		c0-1.7-1.4-3-3-3H7.2c-1.7,0-3,1.4-3,3c0,1.7,1.4,3,3,3L27.6,254.7L27.6,254.7z M281.8,353.9c0.1-3.8-1.7-7.3-5-10.2
		c-4.3-3.7-10.9-6.2-17.4-7c-11.1-1.3-24.2,4.1-24.2,4.1c-0.8,0.4-1.4,1.1-1.5,2l-1.7,21.3c-0.1,1.1,0.6,2.1,1.7,2.5
		c0,0,9.4,2.9,16.5,3.2c9.6,0.4,18.7-2,24.5-5.7C279,361.3,281.6,357.7,281.8,353.9L281.8,353.9z M277,353.7
		c-0.1,2.5-2.1,4.6-4.9,6.5c-5.1,3.3-13.3,5.2-21.8,4.9c-4.7-0.1-10.5-1.6-13.3-2.4l1.5-17.9c3.4-1.2,12.5-4.1,20.5-3.2
		c5.4,0.7,11.2,2.7,14.9,5.9C275.7,349.2,277.1,351.3,277,353.7L277,353.7z M224.5,343.2c0.1-1.1-0.5-2.1-1.5-2.5
		c0,0-5.5-2.2-11.2-2.4c-3.8-0.1-7.6,0.7-10.3,3.3c-1.8,1.7-3.1,4.4-3.5,8c-0.3,3.7,0.5,6.5,2,8.6c2.1,3.2,5.6,5,9.1,5.9
		c5.4,1.4,11.1,0.7,11.1,0.7c1.1-0.1,2-1,2.1-2.1L224.5,343.2z M219.6,344.5l-1.7,15.7c-1.8,0.1-4.7,0-7.5-0.7
		c-2.5-0.6-4.9-1.7-6.3-3.8c-0.9-1.4-1.4-3.3-1.2-5.7c0.2-2.3,0.9-4,2-5c1.7-1.7,4.4-2,6.8-2C214.8,343.1,217.8,343.9,219.6,344.5
		L219.6,344.5z M202.8,314.1c-0.1-3.8-2.6-7.5-7-10.4c-5.7-3.8-14.8-6.3-24.4-6.1c-7.1,0.1-16.5,2.8-16.5,2.8
		c-1.1,0.3-1.8,1.3-1.7,2.5l1.2,21.4c0.1,0.9,0.6,1.7,1.5,2c0,0,13.1,5.7,24.1,4.6c6.5-0.7,13.2-3,17.5-6.7
		C200.9,321.5,202.9,318.1,202.8,314.1z M143.8,326.2c1-0.4,1.6-1.4,1.5-2.5l-1.7-19.6c-0.1-1.1-0.9-2-2-2.2c0,0-5.7-0.8-11.1,0.4
		c-3.6,0.8-7.1,2.5-9.3,5.7c-1.5,2.1-2.3,4.9-2.1,8.6c0.2,3.8,1.5,6.4,3.3,8.1c2.6,2.6,6.5,3.6,10.2,3.5
		C138.3,328.3,143.8,326.2,143.8,326.2z M198,314.3c0.1,2.5-1.4,4.6-3.5,6.2c-3.7,3-9.5,5-14.9,5.6c-8,0.8-17.1-2.3-20.4-3.6
		l-1.1-17.9c2.9-0.7,8.7-2.1,13.4-2.2c8.5-0.1,16.6,2,21.7,5.4C196.1,309.6,198,311.7,198,314.3z M140.4,322.3
		c-1.8,0.5-4.8,1.3-7.9,1.3c-2.5,0-5.1-0.4-6.8-2.1c-1.1-1.1-1.7-2.8-1.9-5.1c-0.1-2.4,0.3-4.2,1.3-5.6c1.5-2.1,3.9-3.2,6.4-3.7
		c2.8-0.7,5.7-0.7,7.5-0.5L140.4,322.3L140.4,322.3z M362.2,159.8c0.2,0.8,0.4,1.6,0.6,2.4L362.2,159.8
		c-10.4-43.8-37.4-81.1-74-105.1c-1.4-0.9-3.3-0.5-4.2,0.9c-0.9,1.4-0.5,3.3,0.9,4.2c34.9,22.9,60.8,58.4,71.1,100.1h-96l-49.6-70.3
		l5.7-8c0.8-1.1,0.5-2.6-0.6-3.4s-2.6-0.5-3.4,0.6l-4.6,6.6l-4.6-6.6c-0.8-1.1-2.2-1.4-3.4-0.6c-1.1,0.8-1.4,2.2-0.6,3.4l5.7,8
		l-25.2,35.7l-27-41.8l5.7-8.8c0.7-1.1,0.4-2.6-0.7-3.3c-1.1-0.7-2.6-0.4-3.3,0.7l-4.6,7l-4.6-7c-0.7-1.1-2.2-1.5-3.3-0.7
		c-1.1,0.7-1.5,2.2-0.7,3.3l5.7,8.8L119,125.8l-9.3-15.3h2.5c0.9,0,1.7-0.4,2.1-1.2c0.4-0.7,0.4-1.6,0.1-2.4l-14.1-26.8
		c-0.4-0.8-1.2-1.3-2.2-1.3c-0.9,0-1.7,0.5-2.2,1.3l-14.1,26.8c-0.4,0.7-0.4,1.7,0.1,2.4c0.4,0.7,1.2,1.2,2.1,1.2h2.5l-12.2,20.2
		c-0.4,0.7-0.4,1.7,0,2.5c0.4,0.7,1.2,1.2,2.1,1.2h4.4L66,159.9H29.9C42.8,107.8,80.1,65.2,129,45c1.5-0.7,2.2-2.4,1.7-3.9
		c-0.7-1.5-2.4-2.2-3.9-1.7c-51,21.1-89.9,65.8-103,120.5H7.2c-1.7,0-3,1.4-3,3s1.4,3,3,3H379c1.7,0,3-1.4,3-3s-1.4-3-3-3
		L362.2,159.8L362.2,159.8z M116.1,130.2l-12.8-21c-0.4-0.7-0.4-1.7-0.1-2.5c0.4-0.8,1.2-1.2,2.1-1.2h2.8l-10-19.1L88,105.5h2.8
		c0.9,0,1.7,0.4,2.1,1.2c0.4,0.7,0.4,1.7,0,2.5c0,0-8.1,13.6-12.2,20.2H85c0.9,0,1.7,0.4,2.1,1.2c0.4,0.7,0.4,1.7,0,2.4l-15.6,26.7
		h25.4L116.1,130.2z M102.7,159.8h52.1l21.4-30.4l-27-41.6L102.7,159.8z M230.8,159.8h23.3l-46.6-66.1l-46.6,66.1h23.5l21.2-30.2
		c0.4-0.7,1.2-1,2-1s1.5,0.4,2,1L230.8,159.8z M190.3,159.8h34.6l-17.3-24.7L190.3,159.8z M187.9,52.9c-1.7-1.3-3.8-2.1-6.2-2.1
		c-5.6,0-10.2,4.5-10.2,10s4.6,10,10.2,10c5.6,0,10.1-4.4,10.2-9.9c1.2-8.3,1.4-17,0.6-26.1c9.5-0.7,17.6-0.5,25.5,1.2
		c0.4,5.6,0.6,11.2,0.2,16.8c-1.7-1.2-3.8-2-6.1-2c-5.6,0-10.2,4.5-10.2,10s4.6,10,10.2,10s10.1-4.4,10.2-9.9
		c1.5-12.9,0.9-25.7-1.3-38.5c-0.2-1.2-1.2-2-2.3-2l-30.4-0.2c-0.7,0-1.4,0.3-1.9,0.9c-0.4,0.6-0.7,1.3-0.5,2
		C187.9,33.7,188.5,43.5,187.9,52.9z M217.3,60.8c0-2.9-2.4-5.2-5.4-5.2s-5.4,2.3-5.4,5.2s2.4,5.2,5.4,5.2
		C214.9,66.1,217.3,63.8,217.3,60.8C217.3,60.9,217.3,60.8,217.3,60.8z M187,60.8c0-2.9-2.4-5.2-5.4-5.2s-5.4,2.3-5.4,5.2
		s2.4,5.2,5.4,5.2C184.6,66.1,187,63.8,187,60.8C187,60.9,187,60.8,187,60.8z M157.2,32.6c-1.7-1.1-3.6-1.8-5.8-1.8
		c-5.6,0-10.2,4.5-10.2,10s4.6,10,10.2,10s10.1-4.4,10.2-9.9c0.8-10.4,0.5-20.6-0.7-30.7c0.5,0.4,1.1,0.7,1.7,1.1
		c2.4,1.5,5.2,2.9,8.8,6.1c4.6,4.1,5.3,12.4-0.9,17.9c-1,0.9-1.1,2.4-0.2,3.3c0.9,1,2.4,1.1,3.3,0.2c8.8-7.8,7.3-19.4,1-25.1
		c-3.8-3.4-6.9-5-9.4-6.6c-2.2-1.4-3.9-2.8-5.6-5.8c-0.6-1-1.7-1.5-2.9-1.2c-1.1,0.4-1.8,1.5-1.6,2.6
		C156.6,12.8,157.4,22.6,157.2,32.6z M156.8,40.8L156.8,40.8c0,2.9-2.4,5.2-5.4,5.2s-5.4-2.3-5.4-5.2s2.4-5.2,5.4-5.2
		C154.4,35.6,156.8,37.9,156.8,40.8z M229.9,36.3c5.9,1.3,11.7,3,17.5,4.9c1.6,0.5,3.3-0.3,3.8-1.9c0.5-1.6-0.3-3.3-1.9-3.8
		c-5.9-2-11.9-3.7-18.1-5.1c-1.6-0.4-3.3,0.7-3.6,2.3C227.3,34.2,228.3,35.9,229.9,36.3z M217.2,31.1c-0.2-2-0.5-3.8-0.8-5.8
		L191,25.1c0.3,1.7,0.6,3.4,0.8,5.1C201.3,29.5,209.4,29.6,217.2,31.1z"/>
</g>
</svg>
