<?xml version="1.0" encoding="utf-8"?>
<!-- Generator: Adobe Illustrator 26.0.1, SVG Export Plug-In . SVG Version: 6.00 Build 0)  -->
<svg version="1.1" id="Ebene_1" xmlns="http://www.w3.org/2000/svg" xmlns:xlink="http://www.w3.org/1999/xlink" x="0px" y="0px"
	 viewBox="0 0 382.7 337.3" style="enable-background:new 0 0 382.7 337.3;" xml:space="preserve">
<style type="text/css">
	.st0{fill:#0095DB;}
	.st1{fill-rule:evenodd;clip-rule:evenodd;fill:#0095DB;}
	.st2{fill:#B81867;}
</style>
<g>
	<g>
		<path class="st0" d="M146.2,188.2c-47.7-7.5-80.8-25.9-82.4-49.5c-2.4-34.9,64.6-68,149.6-74c40.3-2.8,77.4,0.9,105.5,9.4
			c-20-2.5-42.2-3.1-65.4-1.5c-84.7,6-151.3,39.7-148.9,75.4C105.7,164.5,121.3,178.5,146.2,188.2L146.2,188.2z"/>
		<path class="st1" d="M174.9,174.8c21.1,0,25.5-14.8,25.5-21.7c0-6.1-3.8-10.6-8.8-11.9c9.3-2.8,12.5-11.4,12.5-17.2
			c0-7.4-5.5-12.2-13.5-12.2h-28l-13.4,63.1H174.9L174.9,174.8z M182.3,125c3.2,0,4.5,1.2,4.5,3.4c0,4.4-3.1,7.5-6.7,7.5h-6.4
			L176,125H182.3L182.3,125z M181.9,152.8c0,4.7-2.8,8.5-7.4,8.5h-6.2l2.6-12.5h6C180.8,148.8,181.9,150.5,181.9,152.8L181.9,152.8z
			"/>
		<path class="st0" d="M242.5,111.7H226l-11,51.9c-2.4,11.4-3.7,15-12.7,20.4l5.8,8c9.5-3.2,19.6-10.5,22-21.4L242.5,111.7
			L242.5,111.7z"/>
		<path class="st1" d="M299.4,174.8c-1-4.7-4-16.4-5.4-20.6c-1-3-3.3-6-4.6-6.8c12.8-2.2,17.5-13.6,17.5-21.5
			c0-8.8-5.6-14.1-21.3-14.1h-21.7l-13.4,63.1h16.2l5.3-25c3.5,0,4.3,1.2,5.5,7.7l3.2,17.3H299.4L299.4,174.8z M281.7,125
			c4.3,0,6.4,0.8,6.5,3.8c0,4.3-2.2,8.5-9,8.5h-4.6l2.6-12.3H281.7L281.7,125z"/>
		<path class="st2" d="M226.9,91.9c0-5.7,4.6-10.2,10.2-10.2c5.7,0,10.2,4.6,10.2,10.2c0,5.7-4.6,10.2-10.2,10.2
			C231.5,102.2,226.9,97.6,226.9,91.9L226.9,91.9z"/>
	</g>
	<g>
		<path d="M148.4,222.1c0,1.1-0.5,1.9-1.2,2.5c-0.6,0.5-1.3,0.7-2.5,0.7h-2.8l1.1-5.3h2.7C147.7,219.9,148.4,220.7,148.4,222.1z
			 M152,221.4c0-2.6-1.8-4.3-5.5-4.3h-6.1l-4.2,19.6h6.3c3.3,0,4.8-0.5,6.3-1.9c1.4-1.3,2.1-3.1,2.1-4.6c0-2-1.1-3.6-3.1-4
			C150.7,225.6,152,223.6,152,221.4z M147.2,230.3c0,1.2-0.7,2.4-1.5,3c-0.7,0.5-1.5,0.8-2.7,0.8h-3.1l1.3-6.2h2.9
			C146.5,228,147.2,228.8,147.2,230.3z"/>
		<path d="M164.2,224.8l-1.5,7c-0.7,1.5-2.1,2.8-3.4,2.8c-1.1,0-1.6-0.6-1.6-2.2c0-2,0.6-4.8,1.9-6.3c1.1-1.3,2-1.6,3.3-1.6
			C163.4,224.6,163.9,224.7,164.2,224.8z M167.7,223.2c-1.1-0.7-2.8-1.1-4.5-1.1c-2.3,0-4.2,0.8-5.7,2.3c-1.8,1.9-3,5-3,8.2
			c0,3.1,1.5,4.6,3.8,4.6c1.8,0,3.3-0.8,4.3-2.2c0,0.9,0.3,1.7,1.1,2.4l2.6-1.9c-0.7-0.8-0.9-1.5-0.5-3.2l1.2-5.7
			C167.1,225.4,167.4,224,167.7,223.2z"/>
		<path d="M177.5,236c-1.6,3-2.7,4.7-4.1,5.7c-0.9,0.7-2.1,1.1-3.4,1.3l-0.7-2.1c0.9-0.1,1.9-0.6,2.5-1.1c0.9-0.7,1.4-1.4,2.2-3
			l-1,0.1c0-1-0.2-3.2-0.3-4.5l-1.3-9.7l3.2-0.5l0.8,8.7c0.1,1.1,0.1,2.6,0.1,3.2h0c0.3-0.7,1-2.3,1.8-3.8l4.1-8h3.4L177.5,236z"/>
		<path d="M195.4,226.1c0,0.6-0.2,1.1-0.6,1.4c-0.7,0.7-1.9,0.9-3.6,0.9c-0.5,0-1.1-0.1-1.2-0.1c0.6-2.7,2-4,3.7-4
			C194.9,224.4,195.4,225.2,195.4,226.1z M198.5,225.9c0-2.6-1.8-3.8-4.5-3.8c-1.8,0-3.4,0.6-4.9,2c-2,1.9-3.2,5-3.2,7.9
			c0,3.4,2,5.3,5.1,5.3c2.4,0,4.1-0.7,5.9-2l-1-1.9c-1.3,1.1-2.6,1.6-4.1,1.6c-1.6,0-2.6-0.9-2.6-2.6c0-0.5,0.1-1.2,0.2-1.5
			c0.3,0,0.9,0.1,1.7,0.1c3,0,4.9-0.7,6.1-1.8C198.1,228.1,198.5,227.1,198.5,225.9z"/>
		<path d="M210.9,225.3c-0.3-0.2-0.6-0.2-1-0.2c-1,0-2.1,0.8-3.4,2.5l-2,9.2h-3.1l2-9.6c0.4-2,0.4-3,0.1-4l2.9-1.2
			c0.3,0.7,0.4,1.8,0.2,2.8c1.3-1.6,2.9-2.7,4.3-2.7c0.5,0,0.8,0.1,1.2,0.2L210.9,225.3z"/>
		<path d="M218.3,220.4c-1.1,0-2.1-0.9-2.1-2.1c0-1.2,0.9-2.1,2.1-2.1c1.1,0,2,0.9,2,2.1C220.3,219.4,219.4,220.4,218.3,220.4z
			 M215.9,236.8h-3.2l3-14.2l3.3-0.5L215.9,236.8z"/>
		<path d="M232.6,225.4c-1.2-0.7-2.3-1-3.4-1c-1.5,0-2.6,0.6-2.6,1.8c0,0.8,0.4,1.3,1.5,1.7l1.7,0.7c1.8,0.7,2.9,1.7,2.9,3.4
			c0,3-2.4,5.4-6.7,5.4c-2,0-3.8-0.6-5.3-1.5l1.2-2.3c1.2,0.8,2.9,1.4,4.5,1.4c1.6,0,2.8-0.9,2.8-2.1c0-0.9-0.5-1.4-1.8-1.9
			l-1.6-0.6c-1.7-0.7-2.7-1.6-2.7-3.4c0-2.5,2.1-4.9,6.3-4.9c1.7,0,3.4,0.5,4.5,1.2L232.6,225.4z"/>
		<path d="M246.8,225.6c-0.7-0.7-1.6-1.1-2.5-1.1c-0.9,0-1.7,0.4-2.3,1.2c-1,1.2-2,4.3-2,6.5c0,1.7,0.8,2.6,2.1,2.6
			c1.1,0,2.2-0.6,3.3-1.5l1.1,2c-1.6,1.3-3.1,1.9-5.1,1.9c-3.2,0-4.8-1.8-4.8-4.9c0-3.4,1.7-6.9,3.7-8.5c1.3-1.1,2.7-1.7,4.5-1.7
			c1.4,0,2.7,0.5,3.7,1.5L246.8,225.6z"/>
		<path d="M263.9,226.6l-2.2,10.2h-3.1l2-9.7c0.1-0.5,0.2-0.9,0.2-1.2c0-0.8-0.5-1.2-1.3-1.2c-1.2,0-3,1.2-4.2,2.7l-2,9.4h-3.1
			l3.4-15.8c0.5-2.1,0.5-3.3,0.3-4.2l3.2-1.1c0.3,0.9,0.2,2.9-0.2,4.7l-0.4,2c-0.1,0.5-0.4,1.6-0.6,2.2c1.4-1.6,3.4-2.5,5.1-2.5
			c2.1,0,3.2,1.1,3.2,2.8C264.2,225.3,264.1,225.9,263.9,226.6z"/>
		<path d="M277.2,226.1c0,0.6-0.2,1.1-0.6,1.4c-0.7,0.7-1.9,0.9-3.6,0.9c-0.5,0-1.1-0.1-1.2-0.1c0.6-2.7,2-4,3.7-4
			C276.8,224.4,277.2,225.2,277.2,226.1z M280.4,225.9c0-2.6-1.8-3.8-4.5-3.8c-1.8,0-3.4,0.6-4.9,2c-2,1.9-3.2,5-3.2,7.9
			c0,3.4,2,5.3,5.1,5.3c2.4,0,4.1-0.7,5.9-2l-1-1.9c-1.3,1.1-2.6,1.6-4.1,1.6c-1.6,0-2.6-0.9-2.6-2.6c0-0.5,0.1-1.2,0.2-1.5
			c0.3,0,0.9,0.1,1.7,0.1c3,0,4.9-0.7,6.1-1.8C279.9,228.1,280.4,227.1,280.4,225.9z"/>
		<path d="M292.8,225.3c-0.3-0.2-0.6-0.2-1-0.2c-1,0-2.1,0.8-3.4,2.5l-2,9.2h-3.1l2-9.6c0.4-2,0.4-3,0.1-4l2.9-1.2
			c0.3,0.7,0.4,1.8,0.2,2.8c1.3-1.6,2.9-2.7,4.3-2.7c0.5,0,0.8,0.1,1.2,0.2L292.8,225.3z"/>
	</g>
	<g>
		<path d="M133.9,263.9c-0.7,3.3-1.4,6.1-6.3,7.9l-1.1-1.8c2.6-1.4,3.3-2.3,4-5.8l3.4-16.3h3.4L133.9,263.9z"/>
		<path d="M150.9,263.5c-0.3,1.5-0.2,2.4,0.3,3.2l-2.6,1.4c-0.5-0.6-0.9-1.4-0.9-2.5c-1.4,1.5-3,2.4-4.7,2.4c-2.1,0-3.3-1-3.3-2.9
			c0-0.6,0.1-1.4,0.3-2.2l2-9.4l3.2-0.6l-2,9.4c-0.2,0.7-0.3,1.5-0.3,1.9c0,0.9,0.4,1.4,1.1,1.4c1.3,0,3-1.2,4-2.8l2-9.2l3.2-0.6
			L150.9,263.5z"/>
		<path d="M166.5,255.7l-1.5,7.1c-0.9,1.5-2.3,2.6-3.6,2.6c-1.2,0-1.9-0.8-1.9-2.5c0-1.9,0.9-4.8,2.1-6.2c0.7-0.9,2-1.3,3-1.3
			C165.4,255.3,166,255.4,166.5,255.7z M170.1,253.9c-1.6-0.8-3-1.1-5.3-1.1c-2.1,0-3.9,0.8-5.4,2.1c-2,1.8-3.2,5.1-3.2,8.1
			c0,3.2,1.4,4.9,4.2,4.9c1.5,0,2.8-0.5,4-1.7c-0.1,0.3-0.4,1.8-0.5,2.1c-0.5,2-1.8,2.9-4.2,2.9c-1.6,0-3-0.3-4.2-1.1l-1.1,2.2
			c1.5,0.9,3.2,1.3,5,1.3c3.7,0,6.7-1.3,7.6-5.3c0.3-1.1,0.5-2.7,0.9-4.9l1.5-7C169.7,255.4,170,254.1,170.1,253.9z"/>
		<path d="M183,256.8c0,0.6-0.2,1.1-0.6,1.4c-0.7,0.7-1.9,0.9-3.6,0.9c-0.5,0-1.1-0.1-1.3-0.1c0.6-2.7,2-4,3.7-4
			C182.5,255.1,183,255.9,183,256.8z M186.1,256.6c0-2.6-1.8-3.8-4.5-3.8c-1.8,0-3.4,0.6-4.9,2c-2,1.9-3.2,5-3.2,7.9
			c0,3.4,2,5.3,5.1,5.3c2.4,0,4.1-0.7,5.9-2l-1-1.9c-1.3,1.1-2.6,1.6-4.1,1.6c-1.6,0-2.6-0.9-2.6-2.6c0-0.5,0.1-1.2,0.2-1.5
			c0.3,0,0.9,0.1,1.7,0.1c3,0,4.9-0.7,6.1-1.8C185.7,258.8,186.1,257.8,186.1,256.6z"/>
		<path d="M202.3,257.2l-2.2,10.3H197l2-9.5c0.1-0.6,0.2-1.1,0.2-1.4c0-0.8-0.4-1.1-1.1-1.1c-1,0-2.4,0.7-4,2.7l-2,9.4h-3.1l2.1-9.9
			c0.3-1.7,0.4-2.6,0.1-3.7l2.9-1.2c0.3,0.7,0.5,1.7,0.3,2.7c1.4-1.6,3.2-2.6,5.2-2.6c1.8,0,2.9,1.1,2.9,2.8
			C202.4,256.1,202.4,256.7,202.3,257.2z"/>
		<path d="M216.5,256l-1.5,6.7c-0.9,1.5-2.4,2.6-3.6,2.6c-1.2,0-1.7-0.8-1.7-2.4c0-2,0.8-4.7,2-6.2c0.7-0.9,1.7-1.3,2.6-1.3
			C215.3,255.4,215.9,255.6,216.5,256z M221.5,247.1l-3-0.5l-1,4.8c-0.1,0.5-0.4,1.8-0.4,1.9c-0.5-0.3-1.5-0.5-2.8-0.5
			c-1.6,0-3.4,0.7-4.8,2c-2,2-3.2,5.1-3.2,7.9c0,3.2,1.4,4.9,4.2,4.9c1.6,0,3.1-0.7,4.2-2.1c-0.1,0.9,0.2,1.6,0.5,2.1l2.7-0.6
			c-0.4-0.7-0.5-1.6,0.1-4.6L221.5,247.1z"/>
		<path d="M232.7,256c-0.3-0.2-0.6-0.2-1-0.2c-1,0-2.1,0.8-3.4,2.5l-2,9.2h-3.1l2-9.6c0.4-2,0.4-3,0.1-4l2.9-1.2
			c0.3,0.7,0.4,1.8,0.2,2.8c1.3-1.6,2.9-2.7,4.3-2.7c0.5,0,0.8,0.1,1.2,0.2L232.7,256z"/>
		<path d="M240,251.1c-1.1,0-2.1-0.9-2.1-2.1c0-1.2,0.9-2.1,2.1-2.1c1.1,0,2,0.9,2,2.1C242.1,250.1,241.2,251.1,240,251.1z
			 M237.6,267.5h-3.2l3-14.2l3.3-0.5L237.6,267.5z"/>
		<path d="M256.7,257.2l-2.2,10.3h-3.1l2-9.5c0.1-0.6,0.2-1.1,0.2-1.4c0-0.8-0.4-1.1-1.1-1.1c-1,0-2.4,0.7-4,2.7l-2,9.4h-3.1
			l2.1-9.9c0.3-1.7,0.4-2.6,0.1-3.7l2.9-1.2c0.3,0.7,0.5,1.7,0.3,2.7c1.4-1.6,3.2-2.6,5.2-2.6c1.8,0,2.9,1.1,2.9,2.8
			C256.8,256.1,256.8,256.7,256.7,257.2z"/>
		<path d="M271,255.7l-1.5,7.1c-0.9,1.5-2.3,2.6-3.6,2.6c-1.2,0-1.9-0.8-1.9-2.5c0-1.9,0.9-4.8,2.1-6.2c0.7-0.9,2-1.3,3-1.3
			C269.9,255.3,270.5,255.4,271,255.7z M274.6,253.9c-1.6-0.8-3-1.1-5.3-1.1c-2.1,0-3.9,0.8-5.4,2.1c-2,1.8-3.2,5.1-3.2,8.1
			c0,3.2,1.4,4.9,4.2,4.9c1.5,0,2.8-0.5,4-1.7c-0.1,0.3-0.4,1.8-0.5,2.1c-0.5,2-1.8,2.9-4.2,2.9c-1.6,0-3-0.3-4.2-1.1l-1.1,2.2
			c1.5,0.9,3.2,1.3,5,1.3c3.7,0,6.7-1.3,7.6-5.3c0.3-1.1,0.5-2.7,0.9-4.9l1.5-7C274.2,255.4,274.5,254.1,274.6,253.9z"/>
	</g>
</g>
</svg>
