<?xml version="1.0" encoding="utf-8"?>
<!-- Generator: Adobe Illustrator 26.0.1, SVG Export Plug-In . SVG Version: 6.00 Build 0)  -->
<svg version="1.1" id="Ebene_1" xmlns="http://www.w3.org/2000/svg" xmlns:xlink="http://www.w3.org/1999/xlink" x="0px" y="0px"
	 viewBox="0 0 255.2 209.8" style="enable-background:new 0 0 255.2 209.8;" xml:space="preserve">
<style type="text/css">
	.st0{fill:#0095DB;}
	.st1{fill-rule:evenodd;clip-rule:evenodd;fill:#0095DB;}
	.st2{fill:#B81867;}
</style>
<g>
	<g>
		<path class="st0" d="M82.5,124.4C34.8,116.9,1.7,98.5,0.1,74.9c-2.4-34.9,64.6-68,149.6-74c40.3-2.8,77.4,0.9,105.5,9.4
			c-20-2.5-42.2-3.1-65.4-1.5c-84.7,6-151.3,39.7-148.9,75.4C42,100.7,57.6,114.7,82.5,124.4L82.5,124.4z"/>
		<path class="st1" d="M111.2,111c21.1,0,25.5-14.8,25.5-21.7c0-6.1-3.8-10.6-8.8-11.9c9.3-2.8,12.5-11.4,12.5-17.2
			c0-7.4-5.5-12.2-13.5-12.2h-28l-13.4,63.1h25.7V111z M118.6,61.2c3.2,0,4.5,1.2,4.5,3.4c0,4.4-3.1,7.5-6.7,7.5H110l2.3-10.9H118.6
			L118.6,61.2z M118.2,89c0,4.7-2.8,8.5-7.4,8.5h-6.2l2.6-12.5h6C117.1,85,118.2,86.7,118.2,89L118.2,89z"/>
		<path class="st0" d="M178.8,47.9h-16.5l-11,51.9c-2.4,11.4-3.7,15-12.7,20.4l5.8,8c9.5-3.2,19.6-10.5,22-21.4L178.8,47.9
			L178.8,47.9z"/>
		<path class="st1" d="M235.7,111c-1-4.7-4-16.4-5.4-20.6c-1-3-3.3-6-4.6-6.8c12.8-2.2,17.5-13.6,17.5-21.5
			c0-8.8-5.6-14.1-21.3-14.1h-21.7l-13.4,63.1H203l5.3-25c3.5,0,4.3,1.2,5.5,7.7l3.2,17.3L235.7,111L235.7,111z M218,61.2
			c4.3,0,6.4,0.8,6.5,3.8c0,4.3-2.2,8.5-9,8.5h-4.6l2.6-12.3H218L218,61.2z"/>
		<path class="st2" d="M163.2,28.1c0-5.7,4.6-10.2,10.2-10.2c5.7,0,10.2,4.6,10.2,10.2c0,5.7-4.6,10.2-10.2,10.2
			C167.8,38.4,163.2,33.8,163.2,28.1L163.2,28.1z"/>
	</g>
	<g>
		<path d="M84.7,158.3c0,1.1-0.5,1.9-1.2,2.5c-0.6,0.5-1.3,0.7-2.5,0.7h-2.8l1.1-5.3H82C84,156.1,84.7,156.9,84.7,158.3z
			 M88.3,157.6c0-2.6-1.8-4.3-5.5-4.3h-6.1l-4.2,19.6h6.3c3.3,0,4.8-0.5,6.3-1.9c1.4-1.3,2.1-3.1,2.1-4.6c0-2-1.1-3.6-3.1-4
			C87,161.8,88.3,159.8,88.3,157.6z M83.5,166.5c0,1.2-0.7,2.4-1.5,3c-0.7,0.5-1.5,0.8-2.7,0.8h-3.1l1.3-6.2h2.9
			C82.8,164.2,83.5,165,83.5,166.5z"/>
		<path d="M100.5,161l-1.5,7c-0.7,1.5-2.1,2.8-3.4,2.8c-1.1,0-1.6-0.6-1.6-2.2c0-2,0.6-4.8,1.9-6.3c1.1-1.3,2-1.6,3.3-1.6
			C99.7,160.8,100.2,160.9,100.5,161z M104,159.4c-1.1-0.7-2.8-1.1-4.5-1.1c-2.3,0-4.2,0.8-5.7,2.3c-1.8,1.9-3,5-3,8.2
			c0,3.1,1.5,4.6,3.8,4.6c1.8,0,3.3-0.8,4.3-2.2c0,0.9,0.3,1.7,1.1,2.4l2.6-1.9c-0.7-0.8-0.9-1.5-0.5-3.2l1.2-5.7
			C103.4,161.6,103.7,160.2,104,159.4z"/>
		<path d="M113.8,172.2c-1.6,3-2.7,4.7-4.1,5.7c-0.9,0.7-2.1,1.1-3.4,1.3l-0.7-2.1c0.9-0.1,1.9-0.6,2.5-1.1c0.9-0.7,1.4-1.4,2.2-3
			l-1,0.1c0-1-0.2-3.2-0.3-4.5l-1.3-9.7l3.2-0.5l0.8,8.7c0.1,1.1,0.1,2.6,0.1,3.2l0,0c0.3-0.7,1-2.3,1.8-3.8l4.1-8h3.4L113.8,172.2z
			"/>
		<path d="M131.7,162.3c0,0.6-0.2,1.1-0.6,1.4c-0.7,0.7-1.9,0.9-3.6,0.9c-0.5,0-1.1-0.1-1.2-0.1c0.6-2.7,2-4,3.7-4
			C131.2,160.6,131.7,161.4,131.7,162.3z M134.8,162.1c0-2.6-1.8-3.8-4.5-3.8c-1.8,0-3.4,0.6-4.9,2c-2,1.9-3.2,5-3.2,7.9
			c0,3.4,2,5.3,5.1,5.3c2.4,0,4.1-0.7,5.9-2l-1-1.9c-1.3,1.1-2.6,1.6-4.1,1.6c-1.6,0-2.6-0.9-2.6-2.6c0-0.5,0.1-1.2,0.2-1.5
			c0.3,0,0.9,0.1,1.7,0.1c3,0,4.9-0.7,6.1-1.8C134.4,164.3,134.8,163.3,134.8,162.1z"/>
		<path d="M147.2,161.5c-0.3-0.2-0.6-0.2-1-0.2c-1,0-2.1,0.8-3.4,2.5l-2,9.2h-3.1l2-9.6c0.4-2,0.4-3,0.1-4l2.9-1.2
			c0.3,0.7,0.4,1.8,0.2,2.8c1.3-1.6,2.9-2.7,4.3-2.7c0.5,0,0.8,0.1,1.2,0.2L147.2,161.5z"/>
		<path d="M154.6,156.6c-1.1,0-2.1-0.9-2.1-2.1c0-1.2,0.9-2.1,2.1-2.1c1.1,0,2,0.9,2,2.1C156.6,155.6,155.7,156.6,154.6,156.6z
			 M152.2,173H149l3-14.2l3.3-0.5L152.2,173z"/>
		<path d="M168.9,161.6c-1.2-0.7-2.3-1-3.4-1c-1.5,0-2.6,0.6-2.6,1.8c0,0.8,0.4,1.3,1.5,1.7l1.7,0.7c1.8,0.7,2.9,1.7,2.9,3.4
			c0,3-2.4,5.4-6.7,5.4c-2,0-3.8-0.6-5.3-1.5l1.2-2.3c1.2,0.8,2.9,1.4,4.5,1.4s2.8-0.9,2.8-2.1c0-0.9-0.5-1.4-1.8-1.9l-1.6-0.6
			c-1.7-0.7-2.7-1.6-2.7-3.4c0-2.5,2.1-4.9,6.3-4.9c1.7,0,3.4,0.5,4.5,1.2L168.9,161.6z"/>
		<path d="M183.1,161.8c-0.7-0.7-1.6-1.1-2.5-1.1s-1.7,0.4-2.3,1.2c-1,1.2-2,4.3-2,6.5c0,1.7,0.8,2.6,2.1,2.6c1.1,0,2.2-0.6,3.3-1.5
			l1.1,2c-1.6,1.3-3.1,1.9-5.1,1.9c-3.2,0-4.8-1.8-4.8-4.9c0-3.4,1.7-6.9,3.7-8.5c1.3-1.1,2.7-1.7,4.5-1.7c1.4,0,2.7,0.5,3.7,1.5
			L183.1,161.8z"/>
		<path d="M200.2,162.8L198,173h-3.1l2-9.7c0.1-0.5,0.2-0.9,0.2-1.2c0-0.8-0.5-1.2-1.3-1.2c-1.2,0-3,1.2-4.2,2.7l-2,9.4h-3.1
			l3.4-15.8c0.5-2.1,0.5-3.3,0.3-4.2l3.2-1.1c0.3,0.9,0.2,2.9-0.2,4.7l-0.4,2c-0.1,0.5-0.4,1.6-0.6,2.2c1.4-1.6,3.4-2.5,5.1-2.5
			c2.1,0,3.2,1.1,3.2,2.8C200.5,161.5,200.4,162.1,200.2,162.8z"/>
		<path d="M213.5,162.3c0,0.6-0.2,1.1-0.6,1.4c-0.7,0.7-1.9,0.9-3.6,0.9c-0.5,0-1.1-0.1-1.2-0.1c0.6-2.7,2-4,3.7-4
			C213.1,160.6,213.5,161.4,213.5,162.3z M216.7,162.1c0-2.6-1.8-3.8-4.5-3.8c-1.8,0-3.4,0.6-4.9,2c-2,1.9-3.2,5-3.2,7.9
			c0,3.4,2,5.3,5.1,5.3c2.4,0,4.1-0.7,5.9-2l-1-1.9c-1.3,1.1-2.6,1.6-4.1,1.6c-1.6,0-2.6-0.9-2.6-2.6c0-0.5,0.1-1.2,0.2-1.5
			c0.3,0,0.9,0.1,1.7,0.1c3,0,4.9-0.7,6.1-1.8C216.2,164.3,216.7,163.3,216.7,162.1z"/>
		<path d="M229.1,161.5c-0.3-0.2-0.6-0.2-1-0.2c-1,0-2.1,0.8-3.4,2.5l-2,9.2h-3.1l2-9.6c0.4-2,0.4-3,0.1-4l2.9-1.2
			c0.3,0.7,0.4,1.8,0.2,2.8c1.3-1.6,2.9-2.7,4.3-2.7c0.5,0,0.8,0.1,1.2,0.2L229.1,161.5z"/>
	</g>
	<g>
		<path d="M70.2,200.1c-0.7,3.3-1.4,6.1-6.3,7.9l-1.1-1.8c2.6-1.4,3.3-2.3,4-5.8l3.4-16.3h3.4L70.2,200.1z"/>
		<path d="M87.2,199.7c-0.3,1.5-0.2,2.4,0.3,3.2l-2.6,1.4c-0.5-0.6-0.9-1.4-0.9-2.5c-1.4,1.5-3,2.4-4.7,2.4c-2.1,0-3.3-1-3.3-2.9
			c0-0.6,0.1-1.4,0.3-2.2l2-9.4l3.2-0.6l-2,9.4c-0.2,0.7-0.3,1.5-0.3,1.9c0,0.9,0.4,1.4,1.1,1.4c1.3,0,3-1.2,4-2.8l2-9.2l3.2-0.6
			L87.2,199.7z"/>
		<path d="M102.8,191.9l-1.5,7.1c-0.9,1.5-2.3,2.6-3.6,2.6c-1.2,0-1.9-0.8-1.9-2.5c0-1.9,0.9-4.8,2.1-6.2c0.7-0.9,2-1.3,3-1.3
			C101.7,191.5,102.3,191.6,102.8,191.9z M106.4,190.1c-1.6-0.8-3-1.1-5.3-1.1c-2.1,0-3.9,0.8-5.4,2.1c-2,1.8-3.2,5.1-3.2,8.1
			c0,3.2,1.4,4.9,4.2,4.9c1.5,0,2.8-0.5,4-1.7c-0.1,0.3-0.4,1.8-0.5,2.1c-0.5,2-1.8,2.9-4.2,2.9c-1.6,0-3-0.3-4.2-1.1l-1.1,2.2
			c1.5,0.9,3.2,1.3,5,1.3c3.7,0,6.7-1.3,7.6-5.3c0.3-1.1,0.5-2.7,0.9-4.9l1.5-7C106,191.6,106.3,190.3,106.4,190.1z"/>
		<path d="M119.3,193c0,0.6-0.2,1.1-0.6,1.4c-0.7,0.7-1.9,0.9-3.6,0.9c-0.5,0-1.1-0.1-1.3-0.1c0.6-2.7,2-4,3.7-4
			C118.8,191.3,119.3,192.1,119.3,193z M122.4,192.8c0-2.6-1.8-3.8-4.5-3.8c-1.8,0-3.4,0.6-4.9,2c-2,1.9-3.2,5-3.2,7.9
			c0,3.4,2,5.3,5.1,5.3c2.4,0,4.1-0.7,5.9-2l-1-1.9c-1.3,1.1-2.6,1.6-4.1,1.6c-1.6,0-2.6-0.9-2.6-2.6c0-0.5,0.1-1.2,0.2-1.5
			c0.3,0,0.9,0.1,1.7,0.1c3,0,4.9-0.7,6.1-1.8C122,195,122.4,194,122.4,192.8z"/>
		<path d="M138.6,193.4l-2.2,10.3h-3.1l2-9.5c0.1-0.6,0.2-1.1,0.2-1.4c0-0.8-0.4-1.1-1.1-1.1c-1,0-2.4,0.7-4,2.7l-2,9.4h-3.1
			l2.1-9.9c0.3-1.7,0.4-2.6,0.1-3.7l2.9-1.2c0.3,0.7,0.5,1.7,0.3,2.7c1.4-1.6,3.2-2.6,5.2-2.6c1.8,0,2.9,1.1,2.9,2.8
			C138.7,192.3,138.7,192.9,138.6,193.4z"/>
		<path d="M152.8,192.2l-1.5,6.7c-0.9,1.5-2.4,2.6-3.6,2.6c-1.2,0-1.7-0.8-1.7-2.4c0-2,0.8-4.7,2-6.2c0.7-0.9,1.7-1.3,2.6-1.3
			C151.6,191.6,152.2,191.8,152.8,192.2z M157.8,183.3l-3-0.5l-1,4.8c-0.1,0.5-0.4,1.8-0.4,1.9c-0.5-0.3-1.5-0.5-2.8-0.5
			c-1.6,0-3.4,0.7-4.8,2c-2,2-3.2,5.1-3.2,7.9c0,3.2,1.4,4.9,4.2,4.9c1.6,0,3.1-0.7,4.2-2.1c-0.1,0.9,0.2,1.6,0.5,2.1l2.7-0.6
			c-0.4-0.7-0.5-1.6,0.1-4.6L157.8,183.3z"/>
		<path d="M169,192.2c-0.3-0.2-0.6-0.2-1-0.2c-1,0-2.1,0.8-3.4,2.5l-2,9.2h-3.1l2-9.6c0.4-2,0.4-3,0.1-4l2.9-1.2
			c0.3,0.7,0.4,1.8,0.2,2.8c1.3-1.6,2.9-2.7,4.3-2.7c0.5,0,0.8,0.1,1.2,0.2L169,192.2z"/>
		<path d="M176.3,187.3c-1.1,0-2.1-0.9-2.1-2.1c0-1.2,0.9-2.1,2.1-2.1c1.1,0,2,0.9,2,2.1C178.4,186.3,177.5,187.3,176.3,187.3z
			 M173.9,203.7h-3.2l3-14.2l3.3-0.5L173.9,203.7z"/>
		<path d="M193,193.4l-2.2,10.3h-3.1l2-9.5c0.1-0.6,0.2-1.1,0.2-1.4c0-0.8-0.4-1.1-1.1-1.1c-1,0-2.4,0.7-4,2.7l-2,9.4h-3.1l2.1-9.9
			c0.3-1.7,0.4-2.6,0.1-3.7l2.9-1.2c0.3,0.7,0.5,1.7,0.3,2.7c1.4-1.6,3.2-2.6,5.2-2.6c1.8,0,2.9,1.1,2.9,2.8
			C193.1,192.3,193.1,192.9,193,193.4z"/>
		<path d="M207.3,191.9l-1.5,7.1c-0.9,1.5-2.3,2.6-3.6,2.6c-1.2,0-1.9-0.8-1.9-2.5c0-1.9,0.9-4.8,2.1-6.2c0.7-0.9,2-1.3,3-1.3
			C206.2,191.5,206.8,191.6,207.3,191.9z M210.9,190.1c-1.6-0.8-3-1.1-5.3-1.1c-2.1,0-3.9,0.8-5.4,2.1c-2,1.8-3.2,5.1-3.2,8.1
			c0,3.2,1.4,4.9,4.2,4.9c1.5,0,2.8-0.5,4-1.7c-0.1,0.3-0.4,1.8-0.5,2.1c-0.5,2-1.8,2.9-4.2,2.9c-1.6,0-3-0.3-4.2-1.1l-1.1,2.2
			c1.5,0.9,3.2,1.3,5,1.3c3.7,0,6.7-1.3,7.6-5.3c0.3-1.1,0.5-2.7,0.9-4.9l1.5-7C210.5,191.6,210.8,190.3,210.9,190.1z"/>
	</g>
</g>
</svg>
