<svg xmlns="http://www.w3.org/2000/svg" xmlns:xlink="http://www.w3.org/1999/xlink" width="134.832" height="147.159" viewBox="0 0 134.832 147.159">
  <defs>
    <clipPath id="clip-path">
      <rect id="Rechteck_26" data-name="Rechteck 26" width="104" height="103.976" fill="#ff8c00"/>
    </clipPath>
  </defs>
  <g id="Gruppe_200" data-name="Gruppe 200" transform="translate(-67.391 -4277.865)">
    <g id="Gruppe_199" data-name="Gruppe 199" transform="matrix(0.966, -0.259, 0.259, 0.966, -1115.378, 258.031)">
      <g id="Gruppe_198" data-name="Gruppe 198" transform="translate(97.237 4235.821)">
        <g id="Gruppe_197" data-name="Gruppe 197" transform="translate(0 0)" clip-path="url(#clip-path)">
          <path id="Pfad_49" data-name="Pfad 49" d="M52,64.984A29.25,29.25,0,0,0,81.243,35.742C81.243,28.989,74.466,15.028,65,6.5a73.36,73.36,0,0,0-7.337,7.615A99.062,99.062,0,0,0,44.689,0C31.868,11.575,22.756,26.664,22.756,35.742A29.25,29.25,0,0,0,52,64.984M46.029,21.81c.707.852,10.03,13.29,10.03,13.29l5.961-7.082c.415.726.809,1.432,1.142,2.118,2.782,5.523,1.6,12.625-3.385,16.278a13.34,13.34,0,0,1-7.849,2.555c-7.331,0-13.29-5.067-13.29-13.29,0-4.1,2.477-7.717,7.39-13.87M99.682,91.364,71.313,81.23,99.682,71.1a6.5,6.5,0,0,0-4.366-12.238L52,74.326,8.693,58.872A6.5,6.5,0,0,0,4.329,71.114L32.687,81.23,4.318,91.361a6.5,6.5,0,0,0,2.193,12.614,6.393,6.393,0,0,0,2.182-.38L52,87.952l43.317,15.466a4.014,4.014,0,0,0,2.173.556,6.5,6.5,0,0,0,2.193-12.61" transform="translate(0 0)" fill="#ff8c00"/>
        </g>
      </g>
      <path id="Pfad_50" data-name="Pfad 50" d="M52,64.984A29.25,29.25,0,0,0,81.243,35.742C81.243,28.989,74.466,15.028,65,6.5a73.36,73.36,0,0,0-7.337,7.615A99.062,99.062,0,0,0,44.689,0C31.868,11.575,22.756,26.664,22.756,35.742A29.25,29.25,0,0,0,52,64.984M46.029,21.81c.707.852,10.03,13.29,10.03,13.29l5.961-7.082c.415.726.809,1.432,1.142,2.118,2.782,5.523,1.6,12.625-3.385,16.278a13.34,13.34,0,0,1-7.849,2.555c-7.331,0-13.29-5.067-13.29-13.29,0-4.1,2.477-7.717,7.39-13.87M99.682,91.364,71.313,81.23,99.682,71.1a6.5,6.5,0,0,0-4.366-12.238L52,74.326,8.693,58.872A6.5,6.5,0,0,0,4.329,71.114L32.687,81.23,4.318,91.361a6.5,6.5,0,0,0,2.193,12.614,6.393,6.393,0,0,0,2.182-.38L52,87.952l43.317,15.466a4.014,4.014,0,0,0,2.173.556,6.5,6.5,0,0,0,2.193-12.61" transform="translate(92.237 4232.821)" fill="none" stroke="#fff" stroke-linecap="round" stroke-linejoin="round" stroke-width="3"/>
    </g>
    <path id="Pfad_51" data-name="Pfad 51" d="M6117.8,4296.659a32.722,32.722,0,0,1,9.24-15.96" transform="translate(-5972 5.858)" fill="none" stroke="#fff" stroke-linecap="round" stroke-width="3"/>
    <path id="Pfad_52" data-name="Pfad 52" d="M6102.685,4294.538s-1.26-7.538-8.4-14.678" transform="translate(3273.579 11050.744) rotate(-150)" fill="none" stroke="#fff" stroke-linecap="round" stroke-width="3"/>
    <path id="Pfad_53" data-name="Pfad 53" d="M6127.045,4296.659a32.722,32.722,0,0,0-9.24-15.96" transform="translate(-7384.793 4172.907) rotate(-34)" fill="none" stroke="#fff" stroke-linecap="round" stroke-width="3"/>
    <path id="Pfad_54" data-name="Pfad 54" d="M8.4,0S7.14,7.538,0,14.678" transform="matrix(0.438, -0.899, 0.899, 0.438, 89.59, 4292.253)" fill="none" stroke="#fff" stroke-linecap="round" stroke-width="3"/>
    <path id="Pfad_55" data-name="Pfad 55" d="M6088.6,4300.79s-1.491-11.217-.994-14.741" transform="translate(-6675.369 1243.166) rotate(-11)" fill="none" stroke="#fff" stroke-linecap="round" stroke-width="3"/>
  </g>
</svg>
