<svg xmlns="http://www.w3.org/2000/svg" xmlns:xlink="http://www.w3.org/1999/xlink" width="348.568" height="254.853" viewBox="0 0 348.568 254.853">
  <defs>
    <clipPath id="clip-path">
      <rect id="Rechteck_25" data-name="Rechteck 25" width="140.671" height="59.487" transform="translate(0 0)" fill="#ff8c00"/>
    </clipPath>
    <clipPath id="clip-path-4">
      <rect id="Rechteck_25-4" data-name="Rechteck 25" width="140.671" height="59.487" transform="translate(0 0)" fill="none" stroke="#fff" stroke-linejoin="round" stroke-width="3"/>
    </clipPath>
  </defs>
  <g id="Gruppe_216" data-name="Gruppe 216" transform="translate(-1667.28 -1120.817)">
    <g id="Gruppe_186" data-name="Gruppe 186" transform="translate(1676.28 1324.153) rotate(-30)">
      <g id="Gruppe_181" data-name="Gruppe 181" clip-path="url(#clip-path)">
        <path id="Pfad_37" data-name="Pfad 37" d="M30.981,2.289S53.135-4.832,65.992,6.047s-6.923,17.407-6.923,17.407-15.033,5.934-27.3-2.769Z" fill="#ff8c00"/>
        <path id="Pfad_38" data-name="Pfad 38" d="M17.728,4.267S-.767,1.2.025,15.245,18.816,21.08,18.816,21.08Z" fill="#ff8c00"/>
        <path id="Pfad_39" data-name="Pfad 39" d="M101.316,57.2s22.154,7.121,35.011-3.758S129.4,36.033,129.4,36.033s-15.033-5.934-27.3,2.769Z" fill="#ff8c00"/>
        <path id="Pfad_40" data-name="Pfad 40" d="M88.063,55.22s-18.5,3.066-17.7-10.978,18.791-5.835,18.791-5.835Z" fill="#ff8c00"/>
      </g>
    </g>
    <g id="Gruppe_187" data-name="Gruppe 187" transform="translate(1768.28 1259.153) rotate(-30)">
      <g id="Gruppe_181-2" data-name="Gruppe 181" clip-path="url(#clip-path)">
        <path id="Pfad_37-2" data-name="Pfad 37" d="M30.981,2.289S53.135-4.832,65.992,6.047s-6.923,17.407-6.923,17.407-15.033,5.934-27.3-2.769Z" fill="#ff8c00"/>
        <path id="Pfad_38-2" data-name="Pfad 38" d="M17.728,4.267S-.767,1.2.025,15.245,18.816,21.08,18.816,21.08Z" fill="#ff8c00"/>
        <path id="Pfad_39-2" data-name="Pfad 39" d="M101.316,57.2s22.154,7.121,35.011-3.758S129.4,36.033,129.4,36.033s-15.033-5.934-27.3,2.769Z" fill="#ff8c00"/>
        <path id="Pfad_40-2" data-name="Pfad 40" d="M88.063,55.22s-18.5,3.066-17.7-10.978,18.791-5.835,18.791-5.835Z" fill="#ff8c00"/>
      </g>
    </g>
    <g id="Gruppe_188" data-name="Gruppe 188" transform="translate(1864.28 1193.153) rotate(-30)">
      <g id="Gruppe_181-3" data-name="Gruppe 181" clip-path="url(#clip-path)">
        <path id="Pfad_37-3" data-name="Pfad 37" d="M30.981,2.289S53.135-4.832,65.992,6.047s-6.923,17.407-6.923,17.407-15.033,5.934-27.3-2.769Z" fill="#ff8c00"/>
        <path id="Pfad_38-3" data-name="Pfad 38" d="M17.728,4.267S-.767,1.2.025,15.245,18.816,21.08,18.816,21.08Z" fill="#ff8c00"/>
      </g>
    </g>
    <g id="Gruppe_182" data-name="Gruppe 182" transform="translate(1667.28 1322.153) rotate(-30)">
      <g id="Gruppe_181-4" data-name="Gruppe 181" clip-path="url(#clip-path-4)">
        <g id="Pfad_37-4" data-name="Pfad 37" fill="none" stroke-linejoin="round">
          <path d="M30.981,2.289S53.135-4.832,65.992,6.047s-6.923,17.407-6.923,17.407-15.033,5.934-27.3-2.769Z" stroke="none"/>
          <path d="M 46.61190032958984 3.000190734863281 C 41.40869140625 3.000190734863281 36.70472717285156 3.921804428100586 34.08128356933594 4.556846618652344 L 34.70358276367188 19.02935981750488 C 38.37038421630859 21.28626251220703 42.65988159179688 22.42910957336426 47.4764404296875 22.42910957336426 C 53.29754257202148 22.42910957336426 57.82947158813477 20.71637153625488 57.97122955322266 20.66204643249512 C 58.02706146240234 20.63978576660156 58.07115936279297 20.62415885925293 58.12879180908203 20.60514068603516 C 58.15082931518555 20.59786987304688 60.39704132080078 19.83991050720215 62.70572280883789 18.48311996459961 C 65.36981964111328 16.91744995117188 66.99679565429688 15.23207950592041 67.28692626953125 13.73748016357422 C 67.40721130371094 13.11789989471436 67.30075073242188 12.46918964385986 66.96147155761719 11.7542896270752 C 66.45780944824219 10.69301986694336 65.47965240478516 9.543330192565918 64.05416870117188 8.337160110473633 C 61.81678009033203 6.443990707397461 59.05718231201172 5.034599304199219 55.85203170776367 4.148139953613281 C 53.09786224365234 3.386419296264648 49.98904037475586 3.000190734863281 46.61190032958984 3.000190734863281 M 46.61190032958984 0.0001926422119140625 C 53.11305999755859 0.0001926422119140625 60.42356491088867 1.335245132446289 65.99200439453125 6.046998977661133 C 78.8489990234375 16.92599868774414 59.06900024414062 23.45400047302246 59.06900024414062 23.45400047302246 C 59.06900405883789 23.45400047302246 44.03599548339844 29.38800048828125 31.77200317382812 20.68499946594238 L 30.98100280761719 2.288999557495117 C 30.98100280761719 2.288999557495117 38.10248565673828 0.0001926422119140625 46.61190032958984 0.0001926422119140625 Z" stroke="none" fill="#fff"/>
        </g>
        <g id="Pfad_38-4" data-name="Pfad 38" fill="none" stroke-linejoin="round">
          <path d="M17.728,4.267S-.767,1.2.025,15.245,18.816,21.08,18.816,21.08Z" stroke="none"/>
          <path d="M 13.66279029846191 6.983789443969727 C 11.23847961425781 6.983789443969727 6.835720062255859 7.339000701904297 4.587140083312988 9.717960357666016 C 3.400259971618652 10.97365951538086 2.887729644775391 12.72631072998047 3.02025032043457 15.0762996673584 C 3.137330055236816 17.1548900604248 3.716449737548828 18.61859130859375 4.74152946472168 19.42671966552734 C 5.615089416503906 20.11540031433105 6.927459716796875 20.46459007263184 8.642189979553223 20.46459007263184 C 11.19585514068604 20.46459007263184 13.92175579071045 19.69355201721191 15.68047618865967 19.08273124694824 L 14.89938259124756 7.012388229370117 C 14.51832008361816 6.994913101196289 14.10307693481445 6.983800888061523 13.66310977935791 6.983789443969727 C 13.66309928894043 6.983789443969727 13.66279983520508 6.983789443969727 13.66279029846191 6.983789443969727 M 13.66349697113037 3.983791351318359 C 16.01922607421875 3.983850479125977 17.72800064086914 4.267000198364258 17.72800064086914 4.267000198364258 L 18.81599998474121 21.07999992370605 C 18.81599998474121 21.07999992370605 0.8160018920898438 29.28899955749512 0.02499961853027344 15.24499988555908 C -0.5263156890869141 5.468887329101562 8.267414093017578 3.983657836914062 13.66349697113037 3.983791351318359 Z" stroke="none" fill="#fff"/>
        </g>
        <g id="Pfad_39-3" data-name="Pfad 39" fill="none" stroke-linejoin="round">
          <path d="M101.316,57.2s22.154,7.121,35.011-3.758S129.4,36.033,129.4,36.033s-15.033-5.934-27.3,2.769Z" stroke="none"/>
          <path d="M 116.94873046875 56.48680877685547 C 120.3252182006836 56.48680877685547 123.433708190918 56.10052108764648 126.1878509521484 55.33868026733398 C 129.3926696777344 54.45217132568359 132.1519927978516 53.04283905029297 134.3891754150391 51.14984130859375 C 135.8132171630859 49.94488906860352 136.7908630371094 48.79623794555664 137.2949981689453 47.73580932617188 C 137.634765625 47.0211181640625 137.7419586181641 46.37271118164062 137.6227111816406 45.75352096557617 C 137.3381958007812 44.27618789672852 135.7419891357422 42.60773086547852 133.1280975341797 41.05550003051758 C 130.7796630859375 39.660888671875 128.4825439453125 38.88811874389648 128.4638061523438 38.88185882568359 C 128.4061737060547 38.86284255981445 128.3620758056641 38.84721374511719 128.3062438964844 38.82495498657227 C 128.1644744873047 38.7706298828125 123.6325531005859 37.05788803100586 117.8114471435547 37.05788803100586 C 112.9948883056641 37.05788803100586 108.7053909301758 38.20074081420898 105.0385818481445 40.4576416015625 L 104.4162902832031 54.92999649047852 C 107.0408325195312 55.56524658203125 111.7445220947266 56.48659896850586 116.9479675292969 56.48680877685547 C 116.9479904174805 56.48680877685547 116.9487075805664 56.48680877685547 116.94873046875 56.48680877685547 M 116.9468994140625 59.4868049621582 C 108.4374847412109 59.48647308349609 101.3160018920898 57.197998046875 101.3160018920898 57.197998046875 L 102.1070022583008 38.80199813842773 C 114.3710021972656 30.0989990234375 129.4040222167969 36.03300476074219 129.4040069580078 36.03300094604492 C 129.4040069580078 36.03300094604492 149.1840057373047 42.56100082397461 136.3269958496094 53.43999862670898 C 130.7585601806641 58.15175247192383 123.4480590820312 59.487060546875 116.9468994140625 59.4868049621582 Z" stroke="none" fill="#fff"/>
        </g>
        <g id="Pfad_40-3" data-name="Pfad 40" fill="none" stroke-linejoin="round">
          <path d="M88.063,55.22s-18.5,3.066-17.7-10.978,18.791-5.835,18.791-5.835Z" stroke="none"/>
          <path d="M 83.99849700927734 52.50321197509766 C 84.43825531005859 52.50321197509766 84.85346984863281 52.49210357666016 85.23438262939453 52.47464370727539 L 86.01547241210938 40.40436172485352 C 84.255859375 39.79317474365234 81.53059387207031 39.02241134643555 78.97718811035156 39.02241134643555 C 77.26245880126953 39.02241134643555 75.95008850097656 39.37160110473633 75.07653045654297 40.06027984619141 C 74.05144500732422 40.86841201782227 73.47232818603516 42.33211135864258 73.35523986816406 44.41091918945312 C 73.22272491455078 46.76071166992188 73.73524475097656 48.51337051391602 74.92210388183594 49.76903915405273 C 77.17067718505859 52.14799880981445 81.57390594482422 52.50321197509766 83.99849700927734 52.50321197509766 M 83.99850463867188 55.50320816040039 C 78.6024169921875 55.50320816040039 69.80867767333984 54.01811218261719 70.36000061035156 44.24200057983398 C 71.15099334716797 30.19799995422363 89.15099334716797 38.40700149536133 89.15099334716797 38.40700149536133 L 88.06300354003906 55.22000122070312 C 88.06300354003906 55.22000122070312 86.35423278808594 55.50320816040039 83.99850463867188 55.50320816040039 Z" stroke="none" fill="#fff"/>
        </g>
      </g>
    </g>
    <g id="Gruppe_184" data-name="Gruppe 184" transform="translate(1759.28 1257.153) rotate(-30)">
      <g id="Gruppe_181-5" data-name="Gruppe 181" clip-path="url(#clip-path-4)">
        <g id="Pfad_37-5" data-name="Pfad 37" fill="none" stroke-linejoin="round">
          <path d="M30.981,2.289S53.135-4.832,65.992,6.047s-6.923,17.407-6.923,17.407-15.033,5.934-27.3-2.769Z" stroke="none"/>
          <path d="M 46.61190032958984 3.000190734863281 C 41.40869140625 3.000190734863281 36.70472717285156 3.921804428100586 34.08128356933594 4.556846618652344 L 34.70358276367188 19.02935981750488 C 38.37038421630859 21.28626251220703 42.65988159179688 22.42910957336426 47.4764404296875 22.42910957336426 C 53.29754257202148 22.42910957336426 57.82947158813477 20.71637153625488 57.97122955322266 20.66204643249512 C 58.02706146240234 20.63978576660156 58.07115936279297 20.62415885925293 58.12879180908203 20.60514068603516 C 58.15082931518555 20.59786987304688 60.39704132080078 19.83991050720215 62.70572280883789 18.48311996459961 C 65.36981964111328 16.91744995117188 66.99679565429688 15.23207950592041 67.28692626953125 13.73748016357422 C 67.40721130371094 13.11789989471436 67.30075073242188 12.46918964385986 66.96147155761719 11.7542896270752 C 66.45780944824219 10.69301986694336 65.47965240478516 9.543330192565918 64.05416870117188 8.337160110473633 C 61.81678009033203 6.443990707397461 59.05718231201172 5.034599304199219 55.85203170776367 4.148139953613281 C 53.09786224365234 3.386419296264648 49.98904037475586 3.000190734863281 46.61190032958984 3.000190734863281 M 46.61190032958984 0.0001926422119140625 C 53.11305999755859 0.0001926422119140625 60.42356491088867 1.335245132446289 65.99200439453125 6.046998977661133 C 78.8489990234375 16.92599868774414 59.06900024414062 23.45400047302246 59.06900024414062 23.45400047302246 C 59.06900405883789 23.45400047302246 44.03599548339844 29.38800048828125 31.77200317382812 20.68499946594238 L 30.98100280761719 2.288999557495117 C 30.98100280761719 2.288999557495117 38.10248565673828 0.0001926422119140625 46.61190032958984 0.0001926422119140625 Z" stroke="none" fill="#fff"/>
        </g>
        <g id="Pfad_38-5" data-name="Pfad 38" fill="none" stroke-linejoin="round">
          <path d="M17.728,4.267S-.767,1.2.025,15.245,18.816,21.08,18.816,21.08Z" stroke="none"/>
          <path d="M 13.66279029846191 6.983789443969727 C 11.23847961425781 6.983789443969727 6.835720062255859 7.339000701904297 4.587140083312988 9.717960357666016 C 3.400259971618652 10.97365951538086 2.887729644775391 12.72631072998047 3.02025032043457 15.0762996673584 C 3.137330055236816 17.1548900604248 3.716449737548828 18.61859130859375 4.74152946472168 19.42671966552734 C 5.615089416503906 20.11540031433105 6.927459716796875 20.46459007263184 8.642189979553223 20.46459007263184 C 11.19585514068604 20.46459007263184 13.92175579071045 19.69355201721191 15.68047618865967 19.08273124694824 L 14.89938259124756 7.012388229370117 C 14.51832008361816 6.994913101196289 14.10307693481445 6.983800888061523 13.66310977935791 6.983789443969727 C 13.66309928894043 6.983789443969727 13.66279983520508 6.983789443969727 13.66279029846191 6.983789443969727 M 13.66349697113037 3.983791351318359 C 16.01922607421875 3.983850479125977 17.72800064086914 4.267000198364258 17.72800064086914 4.267000198364258 L 18.81599998474121 21.07999992370605 C 18.81599998474121 21.07999992370605 0.8160018920898438 29.28899955749512 0.02499961853027344 15.24499988555908 C -0.5263156890869141 5.468887329101562 8.267414093017578 3.983657836914062 13.66349697113037 3.983791351318359 Z" stroke="none" fill="#fff"/>
        </g>
        <g id="Pfad_39-4" data-name="Pfad 39" fill="none" stroke-linejoin="round">
          <path d="M101.316,57.2s22.154,7.121,35.011-3.758S129.4,36.033,129.4,36.033s-15.033-5.934-27.3,2.769Z" stroke="none"/>
          <path d="M 116.94873046875 56.48680877685547 C 120.3252182006836 56.48680877685547 123.433708190918 56.10052108764648 126.1878509521484 55.33868026733398 C 129.3926696777344 54.45217132568359 132.1519927978516 53.04283905029297 134.3891754150391 51.14984130859375 C 135.8132171630859 49.94488906860352 136.7908630371094 48.79623794555664 137.2949981689453 47.73580932617188 C 137.634765625 47.0211181640625 137.7419586181641 46.37271118164062 137.6227111816406 45.75352096557617 C 137.3381958007812 44.27618789672852 135.7419891357422 42.60773086547852 133.1280975341797 41.05550003051758 C 130.7796630859375 39.660888671875 128.4825439453125 38.88811874389648 128.4638061523438 38.88185882568359 C 128.4061737060547 38.86284255981445 128.3620758056641 38.84721374511719 128.3062438964844 38.82495498657227 C 128.1644744873047 38.7706298828125 123.6325531005859 37.05788803100586 117.8114471435547 37.05788803100586 C 112.9948883056641 37.05788803100586 108.7053909301758 38.20074081420898 105.0385818481445 40.4576416015625 L 104.4162902832031 54.92999649047852 C 107.0408325195312 55.56524658203125 111.7445220947266 56.48659896850586 116.9479675292969 56.48680877685547 C 116.9479904174805 56.48680877685547 116.9487075805664 56.48680877685547 116.94873046875 56.48680877685547 M 116.9468994140625 59.4868049621582 C 108.4374847412109 59.48647308349609 101.3160018920898 57.197998046875 101.3160018920898 57.197998046875 L 102.1070022583008 38.80199813842773 C 114.3710021972656 30.0989990234375 129.4040222167969 36.03300476074219 129.4040069580078 36.03300094604492 C 129.4040069580078 36.03300094604492 149.1840057373047 42.56100082397461 136.3269958496094 53.43999862670898 C 130.7585601806641 58.15175247192383 123.4480590820312 59.487060546875 116.9468994140625 59.4868049621582 Z" stroke="none" fill="#fff"/>
        </g>
        <g id="Pfad_40-4" data-name="Pfad 40" fill="none" stroke-linejoin="round">
          <path d="M88.063,55.22s-18.5,3.066-17.7-10.978,18.791-5.835,18.791-5.835Z" stroke="none"/>
          <path d="M 83.99849700927734 52.50321197509766 C 84.43825531005859 52.50321197509766 84.85346984863281 52.49210357666016 85.23438262939453 52.47464370727539 L 86.01547241210938 40.40436172485352 C 84.255859375 39.79317474365234 81.53059387207031 39.02241134643555 78.97718811035156 39.02241134643555 C 77.26245880126953 39.02241134643555 75.95008850097656 39.37160110473633 75.07653045654297 40.06027984619141 C 74.05144500732422 40.86841201782227 73.47232818603516 42.33211135864258 73.35523986816406 44.41091918945312 C 73.22272491455078 46.76071166992188 73.73524475097656 48.51337051391602 74.92210388183594 49.76903915405273 C 77.17067718505859 52.14799880981445 81.57390594482422 52.50321197509766 83.99849700927734 52.50321197509766 M 83.99850463867188 55.50320816040039 C 78.6024169921875 55.50320816040039 69.80867767333984 54.01811218261719 70.36000061035156 44.24200057983398 C 71.15099334716797 30.19799995422363 89.15099334716797 38.40700149536133 89.15099334716797 38.40700149536133 L 88.06300354003906 55.22000122070312 C 88.06300354003906 55.22000122070312 86.35423278808594 55.50320816040039 83.99850463867188 55.50320816040039 Z" stroke="none" fill="#fff"/>
        </g>
      </g>
    </g>
    <g id="Gruppe_181-6" data-name="Gruppe 181" transform="translate(1855.28 1191.153) rotate(-30)" clip-path="url(#clip-path-4)">
      <g id="Pfad_37-6" data-name="Pfad 37" fill="none" stroke-linejoin="round">
        <path d="M30.981,2.289S53.135-4.832,65.992,6.047s-6.923,17.407-6.923,17.407-15.033,5.934-27.3-2.769Z" stroke="none"/>
        <path d="M 46.61190032958984 3.000190734863281 C 41.40869140625 3.000190734863281 36.70472717285156 3.921804428100586 34.08128356933594 4.556846618652344 L 34.70358276367188 19.02935981750488 C 38.37038421630859 21.28626251220703 42.65988159179688 22.42910957336426 47.4764404296875 22.42910957336426 C 53.29754257202148 22.42910957336426 57.82947158813477 20.71637153625488 57.97122955322266 20.66204643249512 C 58.02706146240234 20.63978576660156 58.07115936279297 20.62415885925293 58.12879180908203 20.60514068603516 C 58.15082931518555 20.59786987304688 60.39704132080078 19.83991050720215 62.70572280883789 18.48311996459961 C 65.36981964111328 16.91744995117188 66.99679565429688 15.23207950592041 67.28692626953125 13.73748016357422 C 67.40721130371094 13.11789989471436 67.30075073242188 12.46918964385986 66.96147155761719 11.7542896270752 C 66.45780944824219 10.69301986694336 65.47965240478516 9.543330192565918 64.05416870117188 8.337160110473633 C 61.81678009033203 6.443990707397461 59.05718231201172 5.034599304199219 55.85203170776367 4.148139953613281 C 53.09786224365234 3.386419296264648 49.98904037475586 3.000190734863281 46.61190032958984 3.000190734863281 M 46.61190032958984 0.0001926422119140625 C 53.11305999755859 0.0001926422119140625 60.42356491088867 1.335245132446289 65.99200439453125 6.046998977661133 C 78.8489990234375 16.92599868774414 59.06900024414062 23.45400047302246 59.06900024414062 23.45400047302246 C 59.06900405883789 23.45400047302246 44.03599548339844 29.38800048828125 31.77200317382812 20.68499946594238 L 30.98100280761719 2.288999557495117 C 30.98100280761719 2.288999557495117 38.10248565673828 0.0001926422119140625 46.61190032958984 0.0001926422119140625 Z" stroke="none" fill="#fff"/>
      </g>
      <g id="Pfad_38-6" data-name="Pfad 38" fill="none" stroke-linejoin="round">
        <path d="M17.728,4.267S-.767,1.2.025,15.245,18.816,21.08,18.816,21.08Z" stroke="none"/>
        <path d="M 13.66279029846191 6.983789443969727 C 11.23847961425781 6.983789443969727 6.835720062255859 7.339000701904297 4.587140083312988 9.717960357666016 C 3.400259971618652 10.97365951538086 2.887729644775391 12.72631072998047 3.02025032043457 15.0762996673584 C 3.137330055236816 17.1548900604248 3.716449737548828 18.61859130859375 4.74152946472168 19.42671966552734 C 5.615089416503906 20.11540031433105 6.927459716796875 20.46459007263184 8.642189979553223 20.46459007263184 C 11.19585514068604 20.46459007263184 13.92175579071045 19.69355201721191 15.68047618865967 19.08273124694824 L 14.89938259124756 7.012388229370117 C 14.51832008361816 6.994913101196289 14.10307693481445 6.983800888061523 13.66310977935791 6.983789443969727 C 13.66309928894043 6.983789443969727 13.66279983520508 6.983789443969727 13.66279029846191 6.983789443969727 M 13.66349697113037 3.983791351318359 C 16.01922607421875 3.983850479125977 17.72800064086914 4.267000198364258 17.72800064086914 4.267000198364258 L 18.81599998474121 21.07999992370605 C 18.81599998474121 21.07999992370605 0.8160018920898438 29.28899955749512 0.02499961853027344 15.24499988555908 C -0.5263156890869141 5.468887329101562 8.267414093017578 3.983657836914062 13.66349697113037 3.983791351318359 Z" stroke="none" fill="#fff"/>
      </g>
    </g>
  </g>
</svg>
