<svg xmlns="http://www.w3.org/2000/svg" width="185.99" height="155.461" viewBox="0 0 185.99 155.461">
  <g id="Gruppe_215" data-name="Gruppe 215" transform="translate(-55.838 -2158.346)">
    <g id="Gruppe_192" data-name="Gruppe 192">
      <ellipse id="Ellipse_8" data-name="Ellipse 8" cx="8.248" cy="8.248" rx="8.248" ry="8.248" transform="matrix(0.966, -0.259, 0.259, 0.966, 127.861, 2296.343)" fill="#ff8c00"/>
      <ellipse id="Ellipse_9" data-name="Ellipse 9" cx="8.248" cy="8.248" rx="8.248" ry="8.248" transform="matrix(0.966, -0.259, 0.259, 0.966, 152.107, 2290.651)" fill="#ff8c00"/>
      <circle id="Ellipse_10" data-name="Ellipse 10" cx="12.359" cy="12.359" r="12.359" transform="matrix(0.966, -0.259, 0.259, 0.966, 194.817, 2249.341)" fill="#ff8c00"/>
      <g id="Gruppe_191" data-name="Gruppe 191" transform="matrix(0.966, -0.259, 0.259, 0.966, -1850.119, 1259.559)">
        <g id="Gruppe_190" data-name="Gruppe 190" transform="translate(8.993 118.635)">
          <g id="Ellipse_5" data-name="Ellipse 5" transform="translate(1702 1363.361)" fill="none" stroke="#fff" stroke-width="3">
            <circle cx="14.359" cy="14.359" r="14.359" stroke="none"/>
            <circle cx="14.359" cy="14.359" r="12.859" fill="none"/>
          </g>
          <path id="Pfad_41" data-name="Pfad 41" d="M6909.87,78.191s4.933-15.791-.887-48.558a22.938,22.938,0,0,0,8.73,7.761c6.037,3.126,27.7,15.521,9.379,34.708" transform="translate(-5180.999 1301.095)" fill="none" stroke="#fff" stroke-linecap="round" stroke-linejoin="round" stroke-width="3"/>
        </g>
        <g id="Gruppe_189" data-name="Gruppe 189" transform="translate(1635.647 1490.082)">
          <g id="Ellipse_6" data-name="Ellipse 6" transform="translate(0 20.881)" fill="none" stroke="#fff" stroke-width="3">
            <ellipse cx="9.372" cy="9.372" rx="9.372" ry="9.372" stroke="none"/>
            <ellipse cx="9.372" cy="9.372" rx="7.872" ry="7.872" fill="none"/>
          </g>
          <path id="Pfad_42" data-name="Pfad 42" d="M6909.534,60.987s3.213-10.163-.551-31.355c-.176.3,23.41,0,23.41,0a75.992,75.992,0,0,1,2.238,30.888" transform="translate(-6892.022 -29.632)" fill="none" stroke="#fff" stroke-linecap="round" stroke-linejoin="round" stroke-width="3"/>
          <g id="Ellipse_7" data-name="Ellipse 7" transform="translate(24.993 20.881)" fill="none" stroke="#fff" stroke-width="3">
            <ellipse cx="9.372" cy="9.372" rx="9.372" ry="9.372" stroke="none"/>
            <ellipse cx="9.372" cy="9.372" rx="7.872" ry="7.872" fill="none"/>
          </g>
          <path id="Pfad_43" data-name="Pfad 43" d="M6925.857,45.248s14.625-1.45,24.221.725" transform="translate(-6907.645 -36.562)" fill="none" stroke="#fff" stroke-width="3"/>
        </g>
      </g>
    </g>
    <g id="Gruppe_194" data-name="Gruppe 194" transform="translate(-77.946 27.781)">
      <circle id="Ellipse_10-2" data-name="Ellipse 10" cx="8.909" cy="8.909" r="8.909" transform="matrix(0.966, -0.259, 0.259, 0.966, 140.037, 2165.521)" fill="#ff8c00"/>
      <g id="Gruppe_190-2" data-name="Gruppe 190" transform="matrix(0.966, -0.259, 0.259, 0.966, 127.696, 2141.99)">
        <g id="Ellipse_5-2" data-name="Ellipse 5" transform="translate(0 23.523)" fill="none" stroke="#fff" stroke-width="3">
          <circle cx="10.35" cy="10.35" r="10.35" stroke="none"/>
          <circle cx="10.35" cy="10.35" r="8.85" fill="none"/>
        </g>
        <path id="Pfad_41-2" data-name="Pfad 41" d="M.639,35S4.195,23.62,0,0A16.536,16.536,0,0,0,6.293,5.594c4.352,2.253,19.969,11.188,6.761,25.018" transform="translate(18.731 0)" fill="none" stroke="#fff" stroke-linecap="round" stroke-linejoin="round" stroke-width="3"/>
      </g>
    </g>
    <g id="Gruppe_193" data-name="Gruppe 193" transform="translate(36 -33.011)">
      <ellipse id="Ellipse_8-2" data-name="Ellipse 8" cx="12.357" cy="12.357" rx="12.357" ry="12.357" transform="matrix(0.966, -0.259, 0.259, 0.966, 84.039, 2241.348)" fill="#ff8c00"/>
      <ellipse id="Ellipse_9-2" data-name="Ellipse 9" cx="12.357" cy="12.357" rx="12.357" ry="12.357" transform="matrix(0.966, -0.259, 0.259, 0.966, 120.363, 2232.82)" fill="#ff8c00"/>
      <g id="Gruppe_189-2" data-name="Gruppe 189" transform="matrix(0.966, -0.259, 0.259, 0.966, 65.457, 2210.17)">
        <g id="Ellipse_6-2" data-name="Ellipse 6" transform="translate(0 31.282)" fill="none" stroke="#fff" stroke-width="3">
          <ellipse cx="14.041" cy="14.041" rx="14.041" ry="14.041" stroke="none"/>
          <ellipse cx="14.041" cy="14.041" rx="12.541" ry="12.541" fill="none"/>
        </g>
        <path id="Pfad_42-2" data-name="Pfad 42" d="M.827,46.972S5.641,31.748,0,0c-.264.448,35.07,0,35.07,0S42.1,21.952,38.425,46.273" transform="translate(25.408)" fill="none" stroke="#fff" stroke-linecap="round" stroke-linejoin="round" stroke-width="3"/>
        <g id="Ellipse_7-2" data-name="Ellipse 7" transform="translate(37.442 31.282)" fill="none" stroke="#fff" stroke-width="3">
          <ellipse cx="14.041" cy="14.041" rx="14.041" ry="14.041" stroke="none"/>
          <ellipse cx="14.041" cy="14.041" rx="12.541" ry="12.541" fill="none"/>
        </g>
        <path id="Pfad_43-2" data-name="Pfad 43" d="M0,.709S21.908-1.463,36.285,1.8" transform="translate(27.283 12.303)" fill="none" stroke="#fff" stroke-width="3"/>
      </g>
    </g>
  </g>
</svg>
