<svg xmlns="http://www.w3.org/2000/svg" width="192.917" height="124.614" viewBox="0 0 192.917 124.614">
  <g id="Gruppe_195" data-name="Gruppe 195" transform="translate(-1624.124 -2915.595)">
    <path id="Differenzmenge_1" data-name="Differenzmenge 1" d="M-5894.6,84.581a2.036,2.036,0,0,1-.528-.071l-24.447-6.55a2.007,2.007,0,0,0,1.374-2.476l-9.338-32.642a1.989,1.989,0,0,0-1.93-1.451,1.981,1.981,0,0,0-1.383.563l-24.407,23.6a2.006,2.006,0,0,0-.048,2.831l-10.287-2.756a1.98,1.98,0,0,1-1.419-1.43,1.978,1.978,0,0,1,.543-1.937l51.046-49.576a1.981,1.981,0,0,1,1.386-.566,1.987,1.987,0,0,1,1.931,1.455l19.421,68.458a1.977,1.977,0,0,1-.325,1.747A2.007,2.007,0,0,1-5894.6,84.581Z" transform="translate(7685.428 2948.595)" fill="#ff8c00"/>
    <path id="Differenzmenge_2" data-name="Differenzmenge 2" d="M-5889.808,90.964a2.042,2.042,0,0,1-.527-.07L-5966.6,70.459a1.979,1.979,0,0,1-1.417-1.43,1.978,1.978,0,0,1,.543-1.938l55.239-53.63a1.981,1.981,0,0,1,1.385-.566,1.987,1.987,0,0,1,1.931,1.454l12.261,43.2L-5919.471,79.7a1.977,1.977,0,0,0-.543,1.938,1.977,1.977,0,0,0,1.417,1.428l29.264,7.841A1.962,1.962,0,0,1-5889.808,90.964Z" transform="translate(7632.428 2928.766)" fill="#ff8c00"/>
    <path id="Pfad_44" data-name="Pfad 44" d="M6863.307,110.5h195.918" transform="matrix(0.966, 0.259, -0.259, 0.966, -4974.884, 1104.572)" fill="none" stroke="#fff" stroke-linecap="round" stroke-width="3"/>
    <g id="Polygon_3" data-name="Polygon 3" transform="matrix(0.966, 0.259, -0.259, 0.966, 1736.686, 2982.797)" fill="none" stroke-linecap="round" stroke-linejoin="round">
      <path d="M19.285,2.858a2,2,0,0,1,3.43,0L40.183,31.971A2,2,0,0,1,38.468,35H3.532a2,2,0,0,1-1.715-3.029Z" stroke="none"/>
      <path d="M 20.9999942779541 5.830957412719727 L 5.298572540283203 31.99999618530273 L 36.70142364501953 31.99999618530273 L 20.9999942779541 5.830957412719727 M 21 1.887302398681641 C 21.66329193115234 1.887302398681641 22.32658195495605 2.210971832275391 22.71498107910156 2.858306884765625 L 40.18260192871094 31.97100639343262 C 40.9824333190918 33.30405807495117 40.02221298217773 34.99999618530273 38.46762084960938 34.99999618530273 L 3.532382965087891 34.99999618530273 C 1.977790832519531 34.99999618530273 1.017562866210938 33.30405807495117 1.817390441894531 31.97100639343262 L 19.28501129150391 2.858306884765625 C 19.67341613769531 2.210971832275391 20.33670997619629 1.887302398681641 21 1.887302398681641 Z" stroke="none" fill="#fff"/>
    </g>
    <path id="Pfad_45" data-name="Pfad 45" d="M6901.961,65l33.231,57.223" transform="matrix(0.966, 0.259, -0.259, 0.966, -4937.261, 1078.568)" fill="none" stroke="#fff" stroke-linecap="round" stroke-width="3"/>
    <path id="Pfad_46" data-name="Pfad 46" d="M6950.358,65l-48.4,80.136" transform="matrix(0.966, 0.259, -0.259, 0.966, -4973.085, 1068.969)" fill="none" stroke="#fff" stroke-linecap="round" stroke-width="3"/>
    <path id="Pfad_47" data-name="Pfad 47" d="M6901.961,65l44.053,72.943" transform="matrix(0.966, 0.259, -0.259, 0.966, -4887.735, 1099.285)" fill="none" stroke="#fff" stroke-linecap="round" stroke-width="3"/>
    <path id="Pfad_48" data-name="Pfad 48" d="M6946.015,65l-44.053,72.943" transform="matrix(0.966, 0.259, -0.259, 0.966, -4920.343, 1090.548)" fill="none" stroke="#fff" stroke-linecap="round" stroke-width="3"/>
  </g>
</svg>
